<svg xmlns="http://www.w3.org/2000/svg" viewBox="0 0 260 180"><path d="M108.1 19.9c8.4-8.7 20.1-14.2 33-14.2 17.2 0 32.1 9.6 40.1 23.8 6.9-3.1 14.6-4.8 22.7-4.8 31 0 56 25.3 56 56.5s-25.1 56.5-56 56.5c-3.8 0-7.5-.4-11-1.1-7 12.5-20.4 21-35.8 21-6.4 0-12.5-1.5-17.9-4.1-7.1 16.7-23.7 28.5-43 28.5-20.1 0-37.3-12.7-43.9-30.6-2.9.6-5.9.9-8.9.9-24 0-43.4-19.6-43.4-43.9 0-16.2 8.7-30.4 21.7-38-2.7-6.1-4.2-12.9-4.2-20.1C17.4 22.6 40.1 0 67.9 0c16.4 0 31 7.8 40.2 19.9" fill="#00a1e0"/><path d="M37.6 94.4l1.1-2.9c.2-.5.5-.3.7-.2.3.2.5.3.9.6 3.1 2 6 2 6.9 2 2.3 0 3.8-1.2 3.8-2.9v-.1c0-1.8-2.2-2.5-4.8-3.3l-.6-.2c-3.5-1-7.3-2.5-7.3-6.9v-.1c0-4.2 3.4-7.2 8.3-7.2h.5c2.9 0 5.6.8 7.6 2.1.2.1.4.3.3.6-.1.3-1 2.6-1.1 2.9-.2.5-.7.2-.7.2-1.8-1-4.5-1.7-6.8-1.7-2.1 0-3.4 1.1-3.4 2.6v.1c0 1.7 2.3 2.5 4.9 3.3l.5.1c3.5 1.1 7.2 2.6 7.2 6.9v.1c0 4.6-3.3 7.4-8.6 7.4-2.6 0-5.1-.4-7.8-1.8-.5-.3-1-.5-1.5-.9-.1-.2-.3-.3-.1-.7zm78 0l1.1-2.9c.2-.5.6-.3.7-.2.3.2.5.3.9.6 3.1 2 6 2 6.9 2 2.3 0 3.8-1.2 3.8-2.9v-.1c0-1.8-2.2-2.5-4.8-3.3l-.6-.2c-3.5-1-7.3-2.5-7.3-6.9v-.1c0-4.2 3.4-7.2 8.3-7.2h.5c2.9 0 5.6.8 7.6 2.1.2.1.4.3.3.6-.1.3-1 2.6-1.1 2.9-.2.5-.7.2-.7.2-1.8-1-4.5-1.7-6.8-1.7-2.1 0-3.4 1.1-3.4 2.6v.1c0 1.7 2.3 2.5 4.9 3.3l.5.1c3.5 1.1 7.2 2.6 7.2 6.9v.1c0 4.6-3.3 7.4-8.6 7.4-2.6 0-5.1-.4-7.8-1.8-.5-.3-1-.5-1.5-.9 0-.2-.2-.3-.1-.7zm57.8-13.7c.4 1.5.7 3.1.7 4.8 0 1.7-.2 3.3-.7 4.8-.4 1.5-1.1 2.8-2 3.9-.9 1.1-2.1 2-3.4 2.6-1.4.6-3 .9-4.8.9-1.8 0-3.4-.3-4.8-.9-1.4-.6-2.5-1.5-3.4-2.6-.9-1.1-1.6-2.4-2-3.9-.4-1.5-.7-3.1-.7-4.8 0-1.7.2-3.3.7-4.8.4-1.5 1.1-2.8 2-3.9.9-1.1 2.1-2 3.4-2.6 1.4-.6 3-1 4.8-1 1.8 0 3.4.3 4.8 1 1.4.6 2.5 1.5 3.4 2.6.9 1.1 1.6 2.4 2 3.9zm-4.5 4.7c0-2.6-.5-4.6-1.4-6-.9-1.4-2.4-2.1-4.3-2.1-2 0-3.4.7-4.3 2.1-.9 1.4-1.4 3.4-1.4 6s.5 4.6 1.4 6.1c.9 1.4 2.3 2.1 4.3 2.1s3.4-.7 4.3-2.1c1-1.4 1.4-3.5 1.4-6.1zm41.1 7.5l1.1 3c.1.4-.2.5-.2.5-1.7.7-4 1.1-6.3 1.1-3.9 0-6.8-1.1-8.8-3.3-2-2.2-3-5.2-3-8.9 0-1.7.2-3.3.7-4.8.5-1.5 1.2-2.8 2.2-3.9 1-1.1 2.2-2 3.6-2.6 1.4-.6 3.1-1 5-1 1.3 0 2.4.1 3.3.2 1 .2 2.4.5 3 .8.1 0 .4.2.3.5-.4 1.2-.7 2-1.1 3-.2.5-.5.3-.5.3-1.5-.5-2.9-.7-4.7-.7-2.2 0-3.9.7-4.9 2.2-1.1 1.4-1.7 3.3-1.7 5.9 0 2.8.7 4.8 1.9 6.1 1.2 1.3 2.9 1.9 5.1 1.9.9 0 1.7-.1 2.4-.2s1.4-.3 2.1-.6c-.1.2.3.1.5.5zm22.7-13.1c1 3.4.5 6.3.4 6.5 0 .4-.4.4-.4.4h-15.1c.1 2.3.6 3.9 1.8 5 1.1 1.1 2.8 1.8 5.2 1.8 3.6 0 5.1-.7 6.2-1.1 0 0 .4-.1.6.3l1 2.8c.2.5 0 .6-.1.7-.9.5-3.2 1.5-7.6 1.5-2.1 0-4-.3-5.5-.9-1.5-.6-2.8-1.4-3.8-2.5s-1.7-2.4-2.2-3.8c-.5-1.5-.7-3.1-.7-4.8 0-1.7.2-3.3.7-4.8.4-1.5 1.1-2.8 2-3.9.9-1.1 2.1-2 3.5-2.6 1.4-.7 3.1-1 5-1 1.6 0 3.1.3 4.3.9.9.4 1.9 1.1 2.9 2.2.5.4 1.4 1.9 1.8 3.3zm-15 3.2h10.7c-.1-1.4-.4-2.6-1-3.6-.9-1.4-2.2-2.2-4.2-2.2s-3.4.8-4.3 2.2c-.6.9-.9 2.1-1.2 3.6zM112 79.8c1 3.4.5 6.3.5 6.5 0 .4-.4.4-.4.4H97c.1 2.3.6 3.9 1.8 5 1.1 1.1 2.8 1.8 5.2 1.8 3.6 0 5.1-.7 6.2-1.1 0 0 .4-.1.6.3l1 2.8c.2.5 0 .6-.1.7-.9.5-3.2 1.5-7.6 1.5-2.1 0-4-.3-5.5-.9-1.5-.6-2.8-1.4-3.8-2.5s-1.7-2.4-2.2-3.8c-.5-1.5-.7-3.1-.7-4.8 0-1.7.2-3.3.7-4.8.4-1.5 1.1-2.8 2-3.9.9-1.1 2.1-2 3.5-2.6 1.4-.7 3.1-1 5-1 1.6 0 3.1.3 4.3.9.9.4 1.9 1.1 2.9 2.2.4.4 1.4 1.9 1.7 3.3zM97 83h10.8c-.1-1.4-.4-2.6-1-3.6-.9-1.4-2.2-2.2-4.2-2.2s-3.4.8-4.3 2.2c-.7.9-1 2.1-1.3 3.6zm-26.5-.8s1.2.1 2.5.3v-.6c0-2-.4-3-1.2-3.6-.8-.6-2.1-1-3.7-1 0 0-3.7 0-6.6 1.5-.1.1-.2.1-.2.1s-.4.1-.5-.2l-1.1-2.9c-.2-.4.1-.6.1-.6 1.4-1.1 4.6-1.7 4.6-1.7 1.1-.2 2.9-.4 4-.4 3 0 5.3.7 6.9 2.1 1.6 1.4 2.4 3.6 2.4 6.7v13.8s0 .4-.3.5c0 0-.6.2-1.1.3-.5.1-2.3.5-3.8.7-1.5.3-3 .4-4.6.4-1.5 0-2.8-.1-4-.4-1.2-.3-2.2-.7-3.1-1.3-.8-.6-1.5-1.4-2-2.4-.5-.9-.7-2.1-.7-3.4 0-1.3.3-2.5.8-3.5s1.3-1.8 2.2-2.5c.9-.7 2-1.1 3.1-1.5 1.2-.3 2.4-.5 3.7-.5 1.2.1 2 .1 2.6.1zm-6 10.6s1.4 1.1 4.4.9c2.2-.1 4.1-.5 4.1-.5v-6.9s-1.9-.3-4.1-.3c-3.1 0-4.4 1.1-4.4 1.1-.9.6-1.3 1.6-1.3 2.9 0 .8.2 1.5.5 2 .1.2.2.4.8.8zM192 74.5c-.1.4-.9 2.5-1.1 3.2-.1.3-.3.4-.6.4 0 0-.9-.2-1.7-.2-.5 0-1.3.1-2 .3-.7.2-1.3.6-1.9 1.1-.6.5-1 1.3-1.3 2.2-.3.9-.5 2.4-.5 4v11.2c0 .3-.2.5-.5.5h-4c-.3 0-.5-.2-.5-.5V74.2c0-.3.2-.5.4-.5h3.9c.3 0 .4.2.4.5V76c.6-.8 1.6-1.5 2.5-1.9.9-.4 2-.7 3.9-.6 1 .1 2.3.3 2.5.4.4.1.6.2.5.6zm-37.1-10.4c.1 0 .4.2.3.5l-1.2 3.2c-.1.2-.2.4-.7.2-.1 0-.3-.1-.8-.2-.3-.1-.8-.1-1.2-.1-.6 0-1.1.1-1.6.2s-.9.4-1.3.8a5 5 0 00-1.1 1.6c-.6 1.6-.8 3.3-.8 3.4h4.8c.4 0 .5.2.5.5l-.6 3.1c-.1.5-.5.4-.5.4h-5L142.5 97c-.4 2-.8 3.7-1.3 5.1-.5 1.4-1.1 2.4-2 3.4-.8.9-1.7 1.6-2.8 1.9-1 .4-2.3.6-3.7.6-.7 0-1.4 0-2.2-.2-.6-.1-.9-.2-1.4-.4-.2-.1-.3-.3-.2-.6.1-.3 1-2.7 1.1-3.1.2-.4.5-.2.5-.2.3.1.5.2.8.3.4.1.8.1 1.2.1.7 0 1.3-.1 1.8-.3.6-.2 1-.6 1.4-1.1.4-.5.7-1.2 1.1-2.1.3-.9.6-2.2.9-3.7l3.4-18.9h-3.3c-.4 0-.5-.2-.5-.5l.6-3.1c.1-.5.5-.4.5-.4h3.4l.2-1c.5-3 1.5-5.3 3-6.8s3.7-2.3 6.4-2.3c.8 0 1.5.1 2.1.2.4-.1.9 0 1.4.2zM87.5 96.6c0 .3-.2.5-.4.5h-4c-.3 0-.4-.2-.4-.5V64.5c0-.2.2-.5.4-.5h4c.3 0 .4.2.4.5z" fill="#fff"/></svg>
