<?xml version="1.0" encoding="UTF-8"?>
<!DOCTYPE svg PUBLIC "-//W3C//DTD SVG 1.1//EN" "http://www.w3.org/Graphics/SVG/1.1/DTD/svg11.dtd">
<svg version="1.1" xmlns="http://www.w3.org/2000/svg" xmlns:xlink="http://www.w3.org/1999/xlink" x="0" y="0" width="300" height="300" viewBox="0, 0, 300, 300">
  <g id="Background">
    <rect x="0" y="0" width="300" height="300" fill="#000000" fill-opacity="0"/>
  </g>
  <g id="Layer_1">
    <path d="M92.657,150 C76.407,150.469 61.719,157.5 51.251,170 L30.313,170 C14.688,170 0.001,162.5 0.001,145.156 C0.001,132.5 -0.468,90 19.376,90 C22.657,90 38.907,103.282 60.001,103.282 C67.188,103.282 74.063,102.032 80.782,99.688 C80.313,103.125 80,106.563 80,110 C80,124.219 84.532,138.281 92.657,150 z M259.999,249.531 C259.999,274.843 243.281,289.999 218.281,289.999 L81.719,289.999 C56.719,289.999 40.001,274.843 40.001,249.531 C40.001,214.218 48.282,160 94.063,160 C99.375,160 118.75,181.719 150,181.719 C181.25,181.719 200.625,160 205.937,160 C251.718,160 259.999,214.218 259.999,249.531 z M100,50.001 C100,72.032 82.032,90 60.001,90 C37.969,90 20.001,72.032 20.001,50.001 C20.001,27.97 37.969,10.001 60.001,10.001 C82.032,10.001 100,27.97 100,50.001 z M210,110 C210,143.125 183.125,170 150,170 C116.875,170 90,143.125 90,110 C90,76.875 116.875,50.001 150,50.001 C183.125,50.001 210,76.875 210,110 z M299.999,145.156 C299.999,162.5 285.312,170 269.687,170 L248.749,170 C238.281,157.5 223.593,150.469 207.343,150 C215.468,138.281 220,124.219 220,110 C220,106.563 219.687,103.125 219.218,99.688 C225.937,102.032 232.812,103.282 239.999,103.282 C261.093,103.282 277.343,90 280.624,90 C300.468,90 299.999,132.5 299.999,145.156 z M279.999,50.001 C279.999,72.032 262.031,90 239.999,90 C217.968,90 200,72.032 200,50.001 C200,27.97 217.968,10.001 239.999,10.001 C262.031,10.001 279.999,27.97 279.999,50.001 z" fill="#000000" id="cjfhoelvgi-Shape"/>
  </g>
</svg>
