<svg height="54" viewBox="0 0 54 54" width="54" xmlns="http://www.w3.org/2000/svg"><path d="m0 0h54v54h-54z" fill="none"/><g fill="#f38020"><path d="m27.742 3.834c-6.301-.189-12.434 2.042-17.141 6.235l1.559-8.55-4.048-.738-2.742 15.008 15.014 2.739.737-4.049-7.709-1.408c7.633-6.694 19.015-6.795 26.766-.239 7.752 6.557 9.539 17.799 4.202 26.436-5.336 8.637-16.188 12.07-25.521 8.072-9.332-3.997-14.335-14.222-11.764-24.043l-3.984-1.045c-2.666 10.157 1.383 20.889 10.093 26.755s20.177 5.583 28.586-.706c8.41-6.288 11.924-17.207 8.761-27.22-3.164-10.014-12.313-16.932-22.809-17.247z"/><path d="m41.364 22.42-3.701-3.701-14.52 14.521-5.774-5.772-3.707 3.706 9.489 9.489 3.706-3.706-.014-.015 14.521-14.52z"/></g></svg>