<?xml version="1.0" encoding="UTF-8"?>
<!DOCTYPE svg PUBLIC "-//W3C//DTD SVG 1.1//EN" "http://www.w3.org/Graphics/SVG/1.1/DTD/svg11.dtd">
<svg version="1.1" xmlns="http://www.w3.org/2000/svg" xmlns:xlink="http://www.w3.org/1999/xlink" x="0" y="0" width="100" height="100" viewBox="0, 0, 100, 100">
  <g id="Layer_1">
    <g>
      <path d="M93.073,18.887 C92.761,18.504 92.279,18.326 91.797,18.383 C91.687,18.389 91.585,18.407 91.477,18.439 L8.663,40.963 C8.055,41.128 7.627,41.674 7.609,42.304 C7.594,42.934 7.994,43.501 8.592,43.698 L38.894,53.627 L36.183,75.309 C36.112,75.881 36.39,76.439 36.889,76.725 C37.11,76.852 37.356,76.915 37.6,76.915 C37.907,76.915 38.214,76.816 38.468,76.621 L49.558,68.128 L59.28,82.018 C59.549,82.402 59.986,82.628 60.45,82.628 C60.481,82.628 60.514,82.626 60.547,82.625 C61.047,82.59 61.491,82.298 61.72,81.851 L93.23,20.438 C93.493,19.935 93.43,19.327 93.073,18.887 z M83.154,23.663 L40.259,51.067 L14.013,42.468 L83.154,23.663 z M39.441,72.279 L41.415,56.493 L47.92,65.786 L39.441,72.279 z M60.264,78.439 L42.483,53.037 L88.328,23.747 L60.264,78.439 z" fill="#000000"/>
      <path d="M93.073,18.887 C92.761,18.504 92.279,18.326 91.797,18.383 C91.687,18.389 91.585,18.407 91.477,18.439 L8.663,40.963 C8.055,41.128 7.627,41.674 7.609,42.304 C7.594,42.934 7.994,43.501 8.592,43.698 L38.894,53.627 L36.183,75.309 C36.112,75.881 36.39,76.439 36.889,76.725 C37.11,76.852 37.356,76.915 37.6,76.915 C37.907,76.915 38.214,76.816 38.468,76.621 L49.558,68.128 L59.28,82.018 C59.549,82.402 59.986,82.628 60.45,82.628 C60.481,82.628 60.514,82.626 60.547,82.625 C61.047,82.59 61.491,82.298 61.72,81.851 L93.23,20.438 C93.493,19.935 93.43,19.327 93.073,18.887 z M83.154,23.663 L40.259,51.067 L14.013,42.468 L83.154,23.663 z M39.441,72.279 L41.415,56.493 L47.92,65.786 L39.441,72.279 z M60.264,78.439 L42.483,53.037 L88.328,23.747 L60.264,78.439 z" fill-opacity="0" stroke="#000000" stroke-width="0.5"/>
    </g>
  </g>
</svg>
