<?xml version="1.0" encoding="UTF-8"?>
<!DOCTYPE svg PUBLIC "-//W3C//DTD SVG 1.1//EN" "http://www.w3.org/Graphics/SVG/1.1/DTD/svg11.dtd">
<svg version="1.1" xmlns="http://www.w3.org/2000/svg" xmlns:xlink="http://www.w3.org/1999/xlink" x="0" y="0" width="100" height="100" viewBox="0, 0, 100, 100">
  <g id="Layer_1">
    <path d="M70.197,14.067 C80.469,15.31 87.505,26.392 80.627,35.344 L80.521,35.459 C79.424,36.561 79.424,36.561 75.037,40.967 C69.552,46.475 69.552,46.475 62.971,53.084 C56.39,59.694 56.39,59.694 50.906,65.201 C46.518,69.608 46.518,69.608 45.354,70.773 C41.059,74.703 35.437,74.437 31.604,70.872 C27.809,67.341 27.193,61.854 30.947,57.877 C31.744,57.088 31.744,57.088 34.931,53.931 C37.572,51.316 40.213,48.701 42.854,46.086 C46.057,42.915 49.26,39.743 52.462,36.572 C55.65,33.416 55.65,33.416 56.447,32.627 C57.232,31.85 58.498,31.856 59.275,32.641 C60.052,33.426 60.046,34.692 59.261,35.469 C58.464,36.258 58.464,36.258 55.277,39.414 C52.636,42.03 49.995,44.645 47.354,47.26 C44.151,50.431 40.948,53.602 37.746,56.774 C34.558,59.93 34.558,59.93 33.809,60.67 C29.171,65.587 37.068,72.934 42.587,67.887 C43.684,66.785 43.684,66.785 48.071,62.379 C53.556,56.871 53.556,56.871 60.137,50.262 C66.718,43.652 66.718,43.652 72.202,38.145 C74.005,36.334 75.807,34.525 77.609,32.714 C83.393,25.236 73.586,14.145 64.918,19.815 C64.37,20.377 63.822,20.939 63.274,21.501 C61.352,23.472 61.352,23.472 58.63,26.265 C52.223,32.835 52.223,32.835 44.536,40.719 C36.848,48.604 36.848,48.604 30.442,55.174 C27.72,57.966 27.72,57.966 25.798,59.937 C24.356,61.416 24.356,61.416 24.043,61.736 C14.081,72.208 28.439,88.012 40.032,79.293 C40.211,79.116 40.111,79.215 40.334,78.995 C40.768,78.568 40.768,78.568 41.419,77.927 C42.587,76.777 43.889,75.495 45.291,74.115 C49.297,70.172 53.305,66.228 57.048,62.548 C57.07,62.526 57.07,62.526 57.091,62.505 C67.55,52.222 73.748,46.147 74.275,45.678 C75.101,44.944 76.365,45.019 77.099,45.844 C77.833,46.67 77.758,47.934 76.933,48.668 C76.49,49.061 69.994,55.428 59.896,65.357 C59.874,65.379 59.874,65.379 59.853,65.4 C56.11,69.08 52.103,73.023 48.097,76.966 C46.695,78.346 45.393,79.627 44.225,80.777 C43.575,81.418 43.575,81.418 43.141,81.845 C42.824,82.157 42.824,82.157 42.757,82.223 L42.633,82.336 C27.848,94.632 7.359,73.273 21.172,58.952 C21.492,58.623 21.492,58.623 22.934,57.145 C24.856,55.174 24.856,55.174 27.578,52.381 C33.985,45.811 33.985,45.811 41.672,37.927 C49.36,30.042 49.36,30.042 55.766,23.472 C58.488,20.68 58.488,20.68 60.41,18.709 C61.852,17.23 61.852,17.23 62.172,16.902 L62.251,16.82 L62.34,16.748 C65.066,14.594 66.851,14.243 70.197,14.067 z" fill="#000000"/>
  </g>
</svg>
