<svg height="100" viewBox="0 0 100 100" width="100" xmlns="http://www.w3.org/2000/svg"><path d="m59.187 77.563h9.187v9.187h-9.187z" fill="#0074bf" opacity=".502"/><path d="m50 77.563h9.187v9.187h-9.187zm-9.187 0h9.187v9.187h-9.187z" fill="#0074bf" opacity=".702"/><path d="m31.626 77.563h9.187v9.187h-9.187z" fill="#0074bf" opacity=".502"/><path d="m68.376 68.376h9.187v9.187h-9.187z" fill="#0082bf" opacity=".702"/><path d="m59.187 68.376h9.187v9.187h-9.187z" fill="#0082bf" opacity=".8"/><path d="m50 68.376h9.187v9.187h-9.187zm-9.187 0h9.187v9.187h-9.187z" fill="#0082bf"/><path d="m31.626 68.376h9.187v9.187h-9.187z" fill="#0082bf" opacity=".8"/><path d="m22.437 68.376h9.187v9.187h-9.187z" fill="#0082bf" opacity=".702"/><g fill="#008fbf"><path d="m77.563 59.187h9.187v9.187h-9.187z" opacity=".502"/><path d="m68.376 59.187h9.187v9.187h-9.187z" opacity=".8"/><path d="m59.187 59.187h9.187v9.187h-9.187zm-9.187 0h9.187v9.187h-9.187zm-9.187 0h9.187v9.187h-9.187z"/><path d="m31.626 59.187h9.187v9.187h-9.187z"/><path d="m22.437 59.187h9.187v9.187h-9.187z" opacity=".8"/><path d="m13.25 59.187h9.187v9.187h-9.187z" opacity=".502"/></g><path d="m77.563 50h9.187v9.187h-9.187z" fill="#009dbf" opacity=".702"/><path d="m68.376 50h9.187v9.187h-9.187zm-9.189 0h9.187v9.187h-9.187zm-9.187 0h9.187v9.187h-9.187zm-9.187 0h9.187v9.187h-9.187z" fill="#009dbf"/><path d="m31.626 50h9.187v9.187h-9.187zm-9.189 0h9.187v9.187h-9.187z" fill="#009dbf"/><path d="m13.25 50h9.187v9.187h-9.187z" fill="#009dbf" opacity=".702"/><path d="m77.563 40.813h9.187v9.187h-9.187z" fill="#00abbf" opacity=".702"/><path d="m68.376 40.813h9.187v9.187h-9.187zm-9.189 0h9.187v9.187h-9.187zm-9.187 0h9.187v9.187h-9.187zm-9.187 0h9.187v9.187h-9.187z" fill="#00abbf"/><path d="m31.626 40.813h9.187v9.187h-9.187zm-9.189 0h9.187v9.187h-9.187z" fill="#00abbf"/><path d="m13.25 40.813h9.187v9.187h-9.187z" fill="#00abbf" opacity=".702"/><path d="m77.563 31.626h9.187v9.187h-9.187z" fill="#00b9bf" opacity=".502"/><path d="m68.376 31.626h9.187v9.187h-9.187z" fill="#00b9bf" opacity=".8"/><path d="m59.187 31.626h9.187v9.187h-9.187zm-9.187 0h9.187v9.187h-9.187zm-9.187 0h9.187v9.187h-9.187z" fill="#00b9bf"/><path d="m31.626 31.626h9.187v9.187h-9.187z" fill="#00b9bf"/><path d="m22.437 31.626h9.187v9.187h-9.187z" fill="#00b9bf" opacity=".8"/><path d="m13.25 31.626h9.187v9.187h-9.187z" fill="#00b9bf" opacity=".502"/><path d="m68.376 22.437h9.187v9.187h-9.187z" fill="#00c6bf" opacity=".702"/><path d="m59.187 22.437h9.187v9.187h-9.187z" fill="#00c6bf" opacity=".8"/><path d="m50 22.437h9.187v9.187h-9.187zm-9.187 0h9.187v9.187h-9.187z" fill="#00c6bf"/><path d="m31.626 22.437h9.187v9.187h-9.187z" fill="#00c6bf" opacity=".8"/><path d="m22.437 22.437h9.187v9.187h-9.187z" fill="#00c6bf" opacity=".702"/><path d="m59.187 13.25h9.187v9.187h-9.187z" fill="#00d4bf" opacity=".502"/><path d="m50 13.25h9.187v9.187h-9.187zm-9.187 0h9.187v9.187h-9.187z" fill="#00d4bf" opacity=".702"/><path d="m31.626 13.25h9.187v9.187h-9.187z" fill="#00d4bf" opacity=".502"/><path d="m37.44 47.101 2.56-5.729c.934-1.469.81-3.268-.211-4.289-.034-.034-.069-.067-.105-.099s-.073-.064-.11-.094c-.075-.06-.153-.116-.235-.168-.174-.107-.36-.194-.553-.261-.194-.067-.394-.113-.598-.137-.203-.024-.409-.025-.613-.004s-.405.063-.599.128c-.219.067-.433.155-.636.261-.204.106-.397.23-.579.37-.182.142-.351.298-.506.469-.153.171-.292.355-.413.55-.12.195-3.505 8.177-4.809 11.852s-.783 10.415 4.246 15.455c5.333 5.333 13.055 6.551 17.981 2.855.051-.025.103-.054.152-.082.05-.028.099-.059.147-.091.049-.03.096-.063.142-.098.047-.033.092-.068.136-.105l15.178-12.674c.737-.61 1.828-1.865.849-3.298-.956-1.397-2.766-.446-3.505.026l-8.735 6.352c-.04.033-.088.059-.139.073-.051.015-.104.02-.157.014-.052-.006-.104-.023-.149-.049-.047-.026-.087-.061-.119-.104-.222-.273-.261-.995.087-1.281l13.39-11.364c1.157-1.041 1.318-2.556.381-3.594-.914-1.017-2.367-.986-3.533.065l-12.056 9.424c-.056.047-.121.081-.191.101s-.144.026-.216.016c-.073-.01-.141-.033-.204-.071-.062-.037-.118-.086-.159-.145-.238-.267-.33-.722-.062-.99l13.653-13.249c.257-.239.464-.526.609-.844.144-.319.227-.664.239-1.013.012-.35-.044-.7-.167-1.027-.123-.329-.308-.629-.546-.886-.119-.126-.251-.239-.392-.337-.143-.099-.294-.183-.453-.252-.16-.067-.325-.119-.494-.154-.17-.034-.343-.052-.516-.05-.176-.003-.353.012-.526.045-.348.064-.679.195-.976.388-.149.095-.287.206-.415.328l-13.951 13.105c-.334.334-.986 0-1.066-.39-.007-.034-.01-.07-.008-.106.001-.035.007-.071.018-.104.01-.034.024-.067.043-.097.018-.03.04-.059.066-.083l10.678-12.159c.523-.486.825-1.164.837-1.877.013-.713-.264-1.401-.767-1.905-.504-.505-1.191-.785-1.904-.774-.712.011-1.391.31-1.879.831l-16.193 17.903c-.58.58-1.435.61-1.843.272-.062-.049-.114-.11-.152-.179-.039-.069-.064-.145-.073-.223-.01-.08-.004-.16.017-.236s.056-.148.104-.211z" fill="#fff"/></svg>