<?xml version="1.0" encoding="UTF-8"?>
<!DOCTYPE svg PUBLIC "-//W3C//DTD SVG 1.1//EN" "http://www.w3.org/Graphics/SVG/1.1/DTD/svg11.dtd">
<svg version="1.1" xmlns="http://www.w3.org/2000/svg" xmlns:xlink="http://www.w3.org/1999/xlink" x="0" y="0" width="100" height="100" viewBox="0, 0, 100, 100">
  <g id="Layer_1">
    <path d="M50,17.73 C49.993,17.73 49.98,17.73 49.974,17.73 C49.967,17.73 49.967,17.73 49.96,17.73 C49.947,17.73 49.934,17.73 49.921,17.73 C32.133,17.77 17.73,32.205 17.73,50 C17.73,67.795 32.133,82.224 49.921,82.27 C49.934,82.27 49.947,82.27 49.96,82.27 C49.967,82.27 49.967,82.27 49.974,82.27 C49.987,82.27 49.993,82.27 50,82.27 C67.821,82.27 82.27,67.821 82.27,50 C82.27,32.179 67.821,17.73 50,17.73 z M51.291,37.039 C54.709,36.947 58.041,36.493 61.248,35.716 C62.216,39.522 62.816,43.902 62.908,48.709 L51.291,48.709 L51.291,37.039 z M51.291,34.458 L51.291,20.516 C54.768,21.477 58.298,26.12 60.544,33.233 C57.56,33.951 54.472,34.372 51.291,34.458 z M48.709,20.483 L48.709,34.458 C45.502,34.366 42.387,33.944 39.384,33.206 C41.649,26.054 45.206,21.398 48.709,20.483 z M48.709,37.039 L48.709,48.709 L37.013,48.709 C37.105,43.895 37.711,39.509 38.673,35.702 C41.906,36.493 45.258,36.947 48.709,37.039 z M34.412,48.709 L20.345,48.709 C20.628,42.071 23.104,35.992 27.062,31.178 C29.933,32.759 32.983,34.056 36.177,35.024 C35.136,39.14 34.51,43.783 34.412,48.709 z M34.412,51.291 C34.504,56.217 35.129,60.853 36.177,64.976 C32.983,65.944 29.933,67.241 27.062,68.829 C23.104,64.008 20.628,57.929 20.345,51.291 L34.412,51.291 L34.412,51.291 z M37.013,51.291 L48.709,51.291 L48.709,62.948 C45.258,63.04 41.906,63.501 38.673,64.291 C37.704,60.484 37.105,56.098 37.013,51.291 z M48.709,65.523 L48.709,79.511 C45.206,78.595 41.643,73.932 39.377,66.767 C42.387,66.043 45.502,65.615 48.709,65.523 z M51.291,79.484 L51.291,65.523 C54.472,65.615 57.56,66.036 60.544,66.754 C58.298,73.873 54.775,78.523 51.291,79.484 z M51.291,62.948 L51.291,51.291 L62.908,51.291 C62.816,56.092 62.216,60.471 61.248,64.271 C58.041,63.488 54.715,63.04 51.291,62.948 z M65.503,51.291 L79.655,51.291 C79.372,57.929 76.903,64.008 72.945,68.822 C70.047,67.228 66.971,65.924 63.751,64.95 C64.785,60.833 65.411,56.204 65.503,51.291 z M65.503,48.709 C65.411,43.79 64.785,39.153 63.744,35.037 C66.965,34.063 70.04,32.759 72.931,31.165 C76.896,35.979 79.366,42.064 79.655,48.703 L65.503,48.709 L65.503,48.709 z M71.153,29.196 C68.585,30.559 65.872,31.692 63.046,32.548 C61.538,27.694 59.418,23.73 56.915,21.128 C62.407,22.452 67.314,25.29 71.153,29.196 z M42.986,21.155 C40.497,23.749 38.383,27.694 36.881,32.528 C34.076,31.672 31.389,30.552 28.847,29.196 C32.66,25.317 37.527,22.485 42.986,21.155 z M28.834,70.791 C31.382,69.434 34.069,68.315 36.875,67.459 C38.376,72.293 40.49,76.244 42.98,78.845 C37.527,77.515 32.653,74.677 28.834,70.791 z M56.908,78.865 C59.418,76.264 61.538,72.299 63.046,67.432 C65.878,68.295 68.591,69.421 71.16,70.791 C67.32,74.703 62.414,77.548 56.908,78.865 z" fill="#000000"/>
  </g>
</svg>
