<?xml version="1.0" encoding="UTF-8"?>
<!DOCTYPE svg PUBLIC "-//W3C//DTD SVG 1.1//EN" "http://www.w3.org/Graphics/SVG/1.1/DTD/svg11.dtd">
<svg version="1.1" xmlns="http://www.w3.org/2000/svg" xmlns:xlink="http://www.w3.org/1999/xlink" x="0" y="0" width="100%" height="100%" viewBox="0, 0, 100, 100">
  <g id="Layer_1">
    <g id="Select">
      <path d="M86.921,28 C90.838,28 94,31.179 94,35.085 L94,64.915 C94,68.821 90.838,72 86.921,72 L11.079,72 C7.162,72 4,68.821 4,64.915 L4,35.085 C4,31.179 7.162,28 11.079,28 L86.921,28 z M86.921,32 L11.079,32 C9.411,32 8.045,33.374 8.045,35.085 L8.045,64.915 C8.045,66.626 9.411,68 11.079,68 L86.921,68 C88.589,68 89.955,66.626 89.955,64.915 L89.955,35.085 C89.955,33.374 88.589,32 86.921,32 z" fill="#000000"/>
      <path d="M81.156,45.438 L68.093,58.501 L55.031,45.438 L81.156,45.438 z" fill="#000000"/>
    </g>
  </g>
</svg>
