<?xml version="1.0" encoding="UTF-8"?>
<!DOCTYPE svg PUBLIC "-//W3C//DTD SVG 1.1//EN" "http://www.w3.org/Graphics/SVG/1.1/DTD/svg11.dtd">
<svg version="1.1" xmlns="http://www.w3.org/2000/svg" xmlns:xlink="http://www.w3.org/1999/xlink" x="0" y="0" width="100" height="100" viewBox="0, 0, 100, 100">
  <g id="Layer_1">
    <g id="Date">
      <path d="M81.16,19.867 C84.942,19.867 88,22.953 88,26.751 L88,79.115 C88,82.914 84.942,86 81.16,86 L18.19,86 C14.408,86 11.35,82.914 11.35,79.115 L11.35,26.751 C11.35,22.953 14.408,19.867 18.19,19.867 L81.16,19.867 z M81.16,23.867 L18.19,23.867 C16.626,23.867 15.35,25.154 15.35,26.751 L15.35,79.115 C15.35,80.713 16.626,82 18.19,82 L81.16,82 C82.724,82 84,80.713 84,79.115 L84,26.751 C84,25.154 82.724,23.867 81.16,23.867 z" fill="#000000"/>
      <path d="M86.067,36.5 L86.067,40.5 L13.467,40.5 L13.467,36.5 L86.067,36.5 z" fill="#000000"/>
      <path d="M29.3,12.167 C30.957,12.167 32.3,13.51 32.3,15.167 L32.3,27.5 C32.3,29.157 30.957,30.5 29.3,30.5 C27.643,30.5 26.3,29.157 26.3,27.5 L26.3,15.167 C26.3,13.51 27.643,12.167 29.3,12.167 z" fill="#000000"/>
      <path d="M69.9,12.167 C71.557,12.167 72.9,13.51 72.9,15.167 L72.9,27.5 C72.9,29.157 71.557,30.5 69.9,30.5 C68.243,30.5 66.9,29.157 66.9,27.5 L66.9,15.167 C66.9,13.51 68.243,12.167 69.9,12.167 z" fill="#000000"/>
    </g>
  </g>
</svg>
