<?xml version="1.0" encoding="UTF-8"?>
<!DOCTYPE svg  PUBLIC '-//W3C//DTD SVG 1.1//EN'  'http://www.w3.org/Graphics/SVG/1.1/DTD/svg11.dtd'>
<svg version="1.1" viewBox="0 0 100 100" xmlns="http://www.w3.org/2000/svg">
<path d="m59.187 77.563h9.187v9.187h-9.187z" fill="#0074BF" opacity=".502"/>
<path d="m50 77.563h9.187v9.187h-9.187zm-9.187 0h9.187v9.187h-9.187z" fill="#0074BF" opacity=".702"/>
<path d="m31.626 77.563h9.187v9.187h-9.187z" fill="#0074BF" opacity=".502"/>
<path d="m68.376 68.376h9.187v9.187h-9.187z" fill="#0082BF" opacity=".702"/>
<path d="m59.187 68.376h9.187v9.187h-9.187z" fill="#0082BF" opacity=".8"/>
<path d="m50 68.376h9.187v9.187h-9.187zm-9.187 0h9.187v9.187h-9.187z" fill="#0082BF"/>
<path d="m31.626 68.376h9.187v9.187h-9.187z" fill="#0082BF" opacity=".8"/>
<path d="m22.437 68.376h9.187v9.187h-9.187z" fill="#0082BF" opacity=".702"/>
<g fill="#008FBF">
<path d="m77.563 59.187h9.187v9.187h-9.187z" opacity=".502"/>
<path d="m68.376 59.187h9.187v9.187h-9.187z" opacity=".8"/>
<path d="m59.187 59.187h9.187v9.187h-9.187zm-9.187 0h9.187v9.187h-9.187zm-9.187 0h9.187v9.187h-9.187z"/>
<path d="m31.626 59.187h9.187v9.187h-9.187z"/>
<path d="m22.437 59.187h9.187v9.187h-9.187z" opacity=".8"/>
<path d="m13.25 59.187h9.187v9.187h-9.187z" opacity=".502"/>
</g>
<path d="m77.563 50h9.187v9.187h-9.187z" fill="#009DBF" opacity=".702"/>
<path d="m68.376 50h9.187v9.187h-9.187zm-9.189 0h9.187v9.187h-9.187zm-9.187 0h9.187v9.187h-9.187zm-9.187 0h9.187v9.187h-9.187z" fill="#009DBF"/>
<path d="m31.626 50h9.187v9.187h-9.187zm-9.189 0h9.187v9.187h-9.187z" fill="#009DBF"/>
<path d="m13.25 50h9.187v9.187h-9.187z" fill="#009DBF" opacity=".702"/>
<path d="m77.563 40.813h9.187v9.187h-9.187z" fill="#00ABBF" opacity=".702"/>
<path d="m68.376 40.813h9.187v9.187h-9.187zm-9.189 0h9.187v9.187h-9.187zm-9.187 0h9.187v9.187h-9.187zm-9.187 0h9.187v9.187h-9.187z" fill="#00ABBF"/>
<path d="m31.626 40.813h9.187v9.187h-9.187zm-9.189 0h9.187v9.187h-9.187z" fill="#00ABBF"/>
<path d="m13.25 40.813h9.187v9.187h-9.187z" fill="#00ABBF" opacity=".702"/>
<path d="m77.563 31.626h9.187v9.187h-9.187z" fill="#00B9BF" opacity=".502"/>
<path d="m68.376 31.626h9.187v9.187h-9.187z" fill="#00B9BF" opacity=".8"/>
<path d="m59.187 31.626h9.187v9.187h-9.187zm-9.187 0h9.187v9.187h-9.187zm-9.187 0h9.187v9.187h-9.187z" fill="#00B9BF"/>
<path d="m31.626 31.626h9.187v9.187h-9.187z" fill="#00B9BF"/>
<path d="m22.437 31.626h9.187v9.187h-9.187z" fill="#00B9BF" opacity=".8"/>
<path d="m13.25 31.626h9.187v9.187h-9.187z" fill="#00B9BF" opacity=".502"/>
<path d="m68.376 22.437h9.187v9.187h-9.187z" fill="#00C6BF" opacity=".702"/>
<path d="m59.187 22.437h9.187v9.187h-9.187z" fill="#00C6BF" opacity=".8"/>
<path d="m50 22.437h9.187v9.187h-9.187zm-9.187 0h9.187v9.187h-9.187z" fill="#00C6BF"/>
<path d="m31.626 22.437h9.187v9.187h-9.187z" fill="#00C6BF" opacity=".8"/>
<path d="m22.437 22.437h9.187v9.187h-9.187z" fill="#00C6BF" opacity=".702"/>
<path d="m59.187 13.25h9.187v9.187h-9.187z" fill="#00D4BF" opacity=".502"/>
<path d="m50 13.25h9.187v9.187h-9.187zm-9.187 0h9.187v9.187h-9.187z" fill="#00D4BF" opacity=".702"/>
<path d="m31.626 13.25h9.187v9.187h-9.187z" fill="#00D4BF" opacity=".502"/>
<path d="m37.44 47.101 2.56-5.729c0.934-1.469 0.81-3.268-0.211-4.289-0.034-0.034-0.069-0.067-0.105-0.099s-0.073-0.064-0.11-0.094c-0.075-0.06-0.153-0.116-0.235-0.168-0.174-0.107-0.36-0.194-0.553-0.261-0.194-0.067-0.394-0.113-0.598-0.137-0.203-0.024-0.409-0.025-0.613-4e-3s-0.405 0.063-0.599 0.128c-0.219 0.067-0.433 0.155-0.636 0.261-0.204 0.106-0.397 0.23-0.579 0.37-0.182 0.142-0.351 0.298-0.506 0.469-0.153 0.171-0.292 0.355-0.413 0.55-0.12 0.195-3.505 8.177-4.809 11.852s-0.783 10.415 4.246 15.455c5.333 5.333 13.055 6.551 17.981 2.855 0.051-0.025 0.103-0.054 0.152-0.082 0.05-0.028 0.099-0.059 0.147-0.091 0.049-0.03 0.096-0.063 0.142-0.098 0.047-0.033 0.092-0.068 0.136-0.105l15.178-12.674c0.737-0.61 1.828-1.865 0.849-3.298-0.956-1.397-2.766-0.446-3.505 0.026l-8.735 6.352c-0.04 0.033-0.088 0.059-0.139 0.073-0.051 0.015-0.104 0.02-0.157 0.014-0.052-6e-3 -0.104-0.023-0.149-0.049-0.047-0.026-0.087-0.061-0.119-0.104-0.222-0.273-0.261-0.995 0.087-1.281l13.39-11.364c1.157-1.041 1.318-2.556 0.381-3.594-0.914-1.017-2.367-0.986-3.533 0.065l-12.056 9.424c-0.056 0.047-0.121 0.081-0.191 0.101s-0.144 0.026-0.216 0.016c-0.073-0.01-0.141-0.033-0.204-0.071-0.062-0.037-0.118-0.086-0.159-0.145-0.238-0.267-0.33-0.722-0.062-0.99l13.653-13.249c0.257-0.239 0.464-0.526 0.609-0.844 0.144-0.319 0.227-0.664 0.239-1.013 0.012-0.35-0.044-0.7-0.167-1.027-0.123-0.329-0.308-0.629-0.546-0.886-0.119-0.126-0.251-0.239-0.392-0.337-0.143-0.099-0.294-0.183-0.453-0.252-0.16-0.067-0.325-0.119-0.494-0.154-0.17-0.034-0.343-0.052-0.516-0.05-0.176-3e-3 -0.353 0.012-0.526 0.045-0.348 0.064-0.679 0.195-0.976 0.388-0.149 0.095-0.287 0.206-0.415 0.328l-13.951 13.105c-0.334 0.334-0.986 0-1.066-0.39-7e-3 -0.034-0.01-0.07-8e-3 -0.106 1e-3 -0.035 7e-3 -0.071 0.018-0.104 0.01-0.034 0.024-0.067 0.043-0.097 0.018-0.03 0.04-0.059 0.066-0.083l10.678-12.159c0.523-0.486 0.825-1.164 0.837-1.877 0.013-0.713-0.264-1.401-0.767-1.905-0.504-0.505-1.191-0.785-1.904-0.774-0.712 0.011-1.391 0.31-1.879 0.831l-16.193 17.903c-0.58 0.58-1.435 0.61-1.843 0.272-0.062-0.049-0.114-0.11-0.152-0.179-0.039-0.069-0.064-0.145-0.073-0.223-0.01-0.08-4e-3 -0.16 0.017-0.236s0.056-0.148 0.104-0.211z" fill="#fff"/>
</svg>
