<?xml version="1.0" encoding="UTF-8"?>
<!DOCTYPE svg PUBLIC "-//W3C//DTD SVG 1.1//EN" "http://www.w3.org/Graphics/SVG/1.1/DTD/svg11.dtd">
<svg version="1.1" xmlns="http://www.w3.org/2000/svg" xmlns:xlink="http://www.w3.org/1999/xlink" x="0" y="0" width="100" height="100" viewBox="0, 0, 100, 100">
  <g id="Layer_1">
    <path d="M84,21.667 C87.866,21.667 91,24.801 91,28.667 L91,71.334 C91,75.2 87.866,78.334 84,78.334 L16,78.334 C12.134,78.334 9,75.2 9,71.334 L9,28.667 C9,24.801 12.134,21.667 16,21.667 L84,21.667 z M84,25.667 L16,25.667 C14.343,25.667 13,27.01 13,28.667 L13,71.334 C13,72.991 14.343,74.334 16,74.334 L84,74.334 C85.657,74.334 87,72.991 87,71.334 L87,28.667 C87,27.01 85.657,25.667 84,25.667 z" fill="#000000"/>
    <path d="M86.487,23.563 L88.962,26.705 L55.071,53.405 L55.248,53.248 C52.774,55.721 46.892,55.721 44.419,53.248 L44.588,53.399 L11.279,26.899 L13.769,23.769 L47.078,50.269 L47.167,50.339 L47.248,50.42 C48.159,51.331 51.508,51.331 52.419,50.42 L52.503,50.336 L52.596,50.263 L86.487,23.563 z" fill="#000000"/>
  </g>
</svg>
