<?xml version="1.0" encoding="UTF-8"?>
<!DOCTYPE svg PUBLIC "-//W3C//DTD SVG 1.1//EN" "http://www.w3.org/Graphics/SVG/1.1/DTD/svg11.dtd">
<svg version="1.1" xmlns="http://www.w3.org/2000/svg" xmlns:xlink="http://www.w3.org/1999/xlink" x="0" y="0" width="100" height="100" viewBox="0, 0, 100, 100">
  <g id="Layer_1">
    <g id="Dynamic_Recipient">
      <path d="M77.748,20.739 C81.282,20.739 84.148,23.604 84.147,27.138 L84.147,66.143 C84.148,69.677 81.282,72.542 77.748,72.542 L15.584,72.542 C12.05,72.542 9.185,69.677 9.185,66.143 L9.185,27.138 C9.185,23.604 12.05,20.739 15.584,20.739 L77.748,20.739 z M77.748,24.395 L15.584,24.395 C14.069,24.396 12.841,25.623 12.841,27.138 L12.841,66.143 C12.841,67.658 14.069,68.886 15.584,68.886 L77.748,68.886 C79.263,68.886 80.491,67.658 80.491,66.143 L80.491,27.138 C80.491,25.623 79.263,24.396 77.748,24.395 z" fill="#000000"/>
      <path d="M80.021,22.472 L82.284,25.344 L51.302,49.753 L51.463,49.609 C49.202,51.87 43.825,51.87 41.564,49.609 L41.719,49.747 L11.268,25.521 L13.545,22.66 L43.995,46.886 L44.076,46.95 L44.15,47.024 C44.983,47.857 48.045,47.857 48.878,47.024 L48.954,46.947 L49.039,46.88 L80.021,22.472 z" fill="#000000"/>
      <path d="M87.158,28.199 C89.599,29.063 90.576,31.484 90.815,33.857 L90.815,72.862 C90.815,76.396 87.95,79.261 84.416,79.261 L22.252,79.261 C19.807,79.171 17.57,77.924 16.602,75.623 L76.322,75.623 L76.322,75.604 L84.416,75.604 C85.931,75.605 87.159,74.377 87.159,72.862 L87.159,33.857 L87.158,33.856 L87.158,28.199 z" fill="#000000"/>
    </g>
  </g>
</svg>
