<?xml version="1.0" encoding="UTF-8"?>
<!DOCTYPE svg PUBLIC "-//W3C//DTD SVG 1.1//EN" "http://www.w3.org/Graphics/SVG/1.1/DTD/svg11.dtd">
<svg version="1.1" xmlns="http://www.w3.org/2000/svg" xmlns:xlink="http://www.w3.org/1999/xlink" x="0" y="0" width="100" height="100" viewBox="0, 0, 100, 100">
  <g id="Layer_1">
    <g id="Spam">
      <path d="M49.141,16.259 C48.901,16.393 48.274,16.886 47.74,17.34 C42.567,21.727 34.899,24.181 28.218,23.607 C27.191,23.513 26.005,23.407 25.565,23.367 C24.872,23.313 24.698,23.34 24.298,23.62 C23.298,24.287 23.365,23.367 23.365,37.595 C23.365,51.076 23.405,52.343 23.978,54.917 C25.858,63.345 32.899,72.345 43.833,80.279 C47.06,82.626 49.354,84 50.034,84 C51.22,84 57.594,79.56 62.102,75.599 C63.888,74.025 66.982,70.892 68.382,69.265 C71.942,65.079 74.583,60.398 75.77,56.198 C76.65,53.037 76.636,53.358 76.636,38.262 C76.636,25.301 76.623,24.567 76.396,24.221 C76.263,24.007 75.97,23.728 75.729,23.581 C75.263,23.288 75.476,23.288 71.863,23.608 C67.395,24.008 62.182,22.994 57.834,20.874 C55.928,19.954 53.38,18.3 52.061,17.127 C51.594,16.726 51.034,16.3 50.834,16.193 C50.301,15.913 49.647,15.939 49.141,16.259 z M51.221,21.367 C55.474,24.501 60.475,26.514 65.836,27.275 C66.903,27.421 68.343,27.502 70.143,27.502 L72.85,27.515 L72.796,39.783 C72.756,53.557 72.796,52.931 71.743,56.104 C70.716,59.197 68.796,62.572 66.209,65.798 C63.662,68.985 59.196,73.212 55.209,76.213 C53.156,77.759 50.248,79.733 50.034,79.733 C49.541,79.733 43.954,75.626 41.1,73.173 C33.646,66.745 29.099,60.158 27.606,53.597 C27.325,52.357 27.312,52.09 27.272,39.916 L27.219,27.501 L29.859,27.501 C34.513,27.514 38.313,26.754 42.541,24.981 C44.754,24.047 47.741,22.3 49.421,20.94 C49.701,20.713 49.968,20.527 49.994,20.527 C50.034,20.527 50.581,20.913 51.221,21.367 z" fill="#000000"/>
      <path d="M40.428,55.965 L47.185,49.208 L40.479,42.502 L43.302,39.678 L50.009,46.385 L56.715,39.678 L59.573,42.536 L52.866,49.242 L59.573,55.948 L56.749,58.772 L50.042,52.066 L43.286,58.823 z" fill="#000000"/>
    </g>
  </g>
</svg>
