<?xml version="1.0" encoding="UTF-8"?>
<!DOCTYPE svg PUBLIC "-//W3C//DTD SVG 1.1//EN" "http://www.w3.org/Graphics/SVG/1.1/DTD/svg11.dtd">
<svg version="1.1" xmlns="http://www.w3.org/2000/svg" xmlns:xlink="http://www.w3.org/1999/xlink" x="0" y="0" width="100%" height="100%" viewBox="0, 0, 100, 100">
  <g id="Layer_1">
    <g id="Multi-select">
      <path d="M88.222,11 C91.986,11 95,14.181 95,18.06 L95,81.94 C95,85.819 91.986,89 88.222,89 L11.778,89 C8.014,89 5,85.819 5,81.94 L5,18.06 C5,14.181 8.014,11 11.778,11 L88.222,11 z M88.222,15.034 L11.778,15.034 C10.265,15.035 9,16.369 9,18.06 L9,81.94 C9,83.631 10.265,84.966 11.778,84.966 L88.222,84.966 C89.736,84.966 91,83.631 91,81.94 L91,18.06 C91,16.369 89.736,15.035 88.222,15.034 z" fill="#000000"/>
      <path d="M20.334,33.5 L80.334,33.5" fill-opacity="0" stroke="#000000" stroke-width="4"/>
      <path d="M20.334,50.5 L80.334,50.5" fill-opacity="0" stroke="#000000" stroke-width="4"/>
      <path d="M20.334,68 L80.334,68" fill-opacity="0" stroke="#000000" stroke-width="4"/>
    </g>
  </g>
</svg>
