<?xml version="1.0" encoding="UTF-8"?>
<!DOCTYPE svg PUBLIC "-//W3C//DTD SVG 1.1//EN" "http://www.w3.org/Graphics/SVG/1.1/DTD/svg11.dtd">
<svg version="1.1" xmlns="http://www.w3.org/2000/svg" xmlns:xlink="http://www.w3.org/1999/xlink" x="0" y="0" width="100" height="100" viewBox="0, 0, 100, 100">
  <g id="Layer_1">
    <g id="HTML">
      <path d="M59.217,22.759 L56.688,22.065 C56.362,21.957 56.042,21.991 55.73,22.167 C55.417,22.344 55.206,22.609 55.097,22.963 L39.886,75.609 C39.778,75.963 39.812,76.296 39.988,76.608 C40.165,76.921 40.43,77.132 40.784,77.241 L43.312,77.934 C43.638,78.044 43.958,78.009 44.27,77.832 C44.583,77.655 44.794,77.391 44.902,77.038 L60.114,24.39 C60.222,24.037 60.188,23.703 60.011,23.39 C59.835,23.078 59.57,22.867 59.217,22.759 z" fill="#000000"/>
      <path d="M36.421,33.036 C36.421,32.682 36.285,32.369 36.013,32.098 L33.974,30.059 C33.702,29.787 33.389,29.651 33.036,29.651 C32.683,29.651 32.37,29.787 32.098,30.059 L13.095,49.062 C12.823,49.334 12.687,49.646 12.687,50 C12.687,50.353 12.823,50.666 13.095,50.938 L32.098,69.941 C32.37,70.213 32.682,70.348 33.036,70.348 C33.39,70.348 33.702,70.213 33.974,69.941 L36.013,67.903 C36.285,67.631 36.421,67.318 36.421,66.964 C36.421,66.611 36.285,66.299 36.013,66.027 L19.987,50 L36.013,33.974 C36.286,33.702 36.421,33.389 36.421,33.036 z" fill="#000000"/>
      <path d="M86.905,49.061 L67.902,30.058 C67.63,29.787 67.317,29.65 66.964,29.65 C66.61,29.65 66.299,29.787 66.026,30.058 L63.988,32.097 C63.716,32.369 63.58,32.681 63.58,33.035 C63.58,33.389 63.716,33.701 63.988,33.973 L80.014,50 L63.988,66.027 C63.716,66.299 63.58,66.612 63.58,66.964 C63.58,67.318 63.716,67.631 63.988,67.903 L66.026,69.941 C66.299,70.213 66.611,70.348 66.964,70.348 C67.317,70.348 67.63,70.213 67.902,69.941 L86.905,50.938 C87.177,50.666 87.313,50.353 87.313,49.999 C87.313,49.646 87.177,49.333 86.905,49.061 z" fill="#000000"/>
    </g>
  </g>
</svg>
