<?xml version="1.0" encoding="UTF-8"?>
<!DOCTYPE svg PUBLIC "-//W3C//DTD SVG 1.1//EN" "http://www.w3.org/Graphics/SVG/1.1/DTD/svg11.dtd">
<svg version="1.1" xmlns="http://www.w3.org/2000/svg" xmlns:xlink="http://www.w3.org/1999/xlink" viewBox="0 0 100 100">
  <g id="Layer_1">
    <g>
      <path d="M17,27.75 L83,27.75 C85.761,27.75 88,29.989 88,32.75 L88,67.25 C88,70.011 85.761,72.25 83,72.25 L17,72.25 C14.239,72.25 12,70.011 12,67.25 L12,32.75 C12,29.989 14.239,27.75 17,27.75 z" fill-opacity="0" stroke="#000000" stroke-width="4"/>
      <path d="M54.963,35.375 L74.543,35.375 C77.213,35.375 79.378,37.504 79.378,40.131 L79.378,59.869 C79.378,62.496 77.213,64.625 74.543,64.625 L54.963,64.625 C52.293,64.625 50.128,62.496 50.128,59.869 L50.128,40.131 C50.128,37.504 52.293,35.375 54.963,35.375 z" fill-opacity="0" stroke="#000000" stroke-width="3"/>
      <path d="M58.896,52.875 L70.61,52.875 C72.208,52.875 73.503,53.73 73.503,54.786 L73.503,62.714 C73.503,63.77 72.208,64.625 70.61,64.625 L58.896,64.625 C57.298,64.625 56.003,63.77 56.003,62.714 L56.003,54.786 C56.003,53.73 57.298,52.875 58.896,52.875 z" fill-opacity="0" stroke="#000000" stroke-width="3"/>
      <path d="M60.151,35.375 L69.355,35.375 C70.611,35.375 71.628,36.012 71.628,36.798 L71.628,42.702 C71.628,43.488 70.611,44.125 69.355,44.125 L60.151,44.125 C58.896,44.125 57.878,43.488 57.878,42.702 L57.878,36.798 C57.878,36.012 58.896,35.375 60.151,35.375 z" fill-opacity="0" stroke="#000000" stroke-width="3"/>
    </g>
  </g>
</svg>
