<?xml version="1.0" encoding="UTF-8"?>
<!DOCTYPE svg PUBLIC "-//W3C//DTD SVG 1.1//EN" "http://www.w3.org/Graphics/SVG/1.1/DTD/svg11.dtd">
<svg version="1.1" xmlns="http://www.w3.org/2000/svg" xmlns:xlink="http://www.w3.org/1999/xlink" x="0" y="0" width="100" height="100" viewBox="0, 0, 100, 100">
  <g id="Layer_1">
    <g id="Password">
      <path d="M25.76,43.152 L75.24,43.152 C78.448,43.152 81.05,45.307 81.05,47.967 L81.05,78.3 C81.05,80.959 78.448,83.115 75.24,83.115 L25.76,83.115 C22.552,83.115 19.95,80.959 19.95,78.3 L19.95,47.967 C19.95,45.307 22.552,43.152 25.76,43.152 z" fill-opacity="0" stroke="#000000" stroke-width="4"/>
      <path d="M50.5,17.885 C63.698,18.406 70.793,31.194 71.276,43.152 L29.724,43.152 C29.926,30.952 37.518,18.704 50.5,17.885 z" fill-opacity="0" stroke="#000000" stroke-width="4"/>
      <path d="M46.22,62.98 L45.211,72.054 C45.161,72.506 45.306,72.959 45.609,73.298 C45.912,73.637 46.346,73.83 46.801,73.83 L53.199,73.83 C53.654,73.83 54.088,73.637 54.391,73.298 C54.694,72.959 54.839,72.506 54.789,72.054 L53.78,62.98 C55.419,61.788 56.398,59.903 56.398,57.835 C56.398,54.306 53.529,51.436 50,51.436 C46.471,51.436 43.602,54.306 43.602,57.835 C43.602,59.903 44.581,61.788 46.22,62.98 z M50,54.636 C51.764,54.636 53.199,56.071 53.199,57.835 C53.199,59.061 52.502,60.159 51.381,60.703 C50.77,60.999 50.412,61.646 50.487,62.319 L51.412,70.631 L48.588,70.631 L49.513,62.319 C49.588,61.646 49.23,60.999 48.619,60.703 C47.498,60.159 46.801,59.061 46.801,57.835 C46.801,56.071 48.236,54.636 50,54.636 z" fill="#000000"/>
      <path d="M50.5,25.594 C59.096,25.956 63.717,34.842 64.031,43.152 L36.969,43.152 C37.1,34.674 42.045,26.163 50.5,25.594 z" fill-opacity="0" stroke="#000000" stroke-width="4"/>
    </g>
  </g>
</svg>
