<?xml version="1.0" encoding="UTF-8"?>
<!DOCTYPE svg PUBLIC "-//W3C//DTD SVG 1.1//EN" "http://www.w3.org/Graphics/SVG/1.1/DTD/svg11.dtd">
<svg version="1.1" xmlns="http://www.w3.org/2000/svg" xmlns:xlink="http://www.w3.org/1999/xlink" x="0" y="0" width="100" height="100" viewBox="0, 0, 100, 100">
  <g id="Layer_1">
    <path d="M65.871,30.777 C76.043,34.334 84.529,41.307 92.592,48.226 L94.296,49.768 L92.533,51.243 C75.009,66.032 53.051,78.528 30.279,67.25 L33.251,64.204 C39.022,66.852 45.195,67.774 51.49,67.606 C65.371,66.673 77.746,58.189 88.165,49.651 C80.726,42.828 72.363,37.105 62.722,34.004 L65.871,30.777 z" fill="#000000"/>
    <path d="M49.415,27.903 C52.393,27.915 51.053,27.911 53.434,27.917 C58.103,28.448 55.35,28.044 61.652,29.373 L58.271,32.837 C54.989,32.116 56.677,32.43 53.205,31.912 C37.355,31.383 23.665,40.186 11.834,49.88 C17.243,54.646 22.988,59.123 29.446,62.376 L26.511,65.383 C19.501,61.638 13.337,56.541 7.408,51.305 L5.704,49.763 L7.466,48.288 C18.002,39.692 29.629,31.152 43.3,28.574 C45.314,28.124 47.361,27.99 49.415,27.903 z" fill="#000000"/>
    <path d="M56.833,40.424 C59.937,42.511 60.803,45.444 60.984,49.038 C60.984,55.515 55.734,60.766 49.257,60.766 C45.857,60.65 42.822,59.87 40.833,56.924 L56.833,40.424 z" fill="#000000"/>
    <path d="M75.634,21.151 C76.441,21.192 76.048,21.181 76.813,21.186 L77.48,21.617 C78.271,22.389 78.286,23.655 77.515,24.446 L25.015,78.246 C24.243,79.036 22.977,79.052 22.186,78.28 C21.396,77.509 21.38,76.243 22.152,75.452 L74.652,21.652 C74.992,21.404 75.211,21.207 75.634,21.151 z" fill="#000000"/>
  </g>
</svg>
