<?xml version="1.0" encoding="UTF-8"?>
<!DOCTYPE svg PUBLIC "-//W3C//DTD SVG 1.1//EN" "http://www.w3.org/Graphics/SVG/1.1/DTD/svg11.dtd">
<svg version="1.1" xmlns="http://www.w3.org/2000/svg" xmlns:xlink="http://www.w3.org/1999/xlink" x="0" y="0" width="100%" height="100%" viewBox="0, 0, 100, 100">
  <g id="Layer_1">
    <path d="M87.921,28.5 C91.838,28.5 95,31.679 95,35.585 L95,65.415 C95,69.321 91.838,72.5 87.921,72.5 L12.079,72.5 C8.162,72.5 5,69.321 5,65.415 L5,35.585 C5,31.679 8.162,28.5 12.079,28.5 L87.921,28.5 z M87.921,32.5 L12.079,32.5 C10.411,32.5 9.045,33.874 9.045,35.585 L9.045,65.415 C9.045,67.126 10.411,68.5 12.079,68.5 L87.921,68.5 C89.589,68.5 90.955,67.126 90.955,65.415 L90.955,35.585 C90.955,33.874 89.589,32.5 87.921,32.5 z" fill="#000000"/>
    <path d="M57.567,16 C61.923,16.016 65.658,18.075 68.152,21.535 C70.517,17.897 74.483,16.201 78.736,16 L79.494,16 L79.494,20 L78.736,20 C74.009,20 70.225,23.519 70.225,27.796 L70.225,72.204 C70.225,76.481 74.009,80 78.736,80 L79.494,80 L79.494,84 L78.736,84 C74.38,83.983 70.646,81.925 68.152,78.465 C65.786,82.103 61.82,83.799 57.567,84 L56.809,84 L56.809,80 L57.567,80 C62.295,80 66.079,76.481 66.079,72.204 L66.079,27.796 C66.079,23.519 62.295,20 57.567,20 L56.809,20 L56.809,16 L57.567,16 z" fill="#000000"/>
  </g>
</svg>
