<?xml version="1.0" encoding="UTF-8"?>
<!DOCTYPE svg PUBLIC "-//W3C//DTD SVG 1.1//EN" "http://www.w3.org/Graphics/SVG/1.1/DTD/svg11.dtd">
<svg version="1.1" xmlns="http://www.w3.org/2000/svg" xmlns:xlink="http://www.w3.org/1999/xlink" x="0" y="0" width="100%" height="100%" viewBox="0, 0, 100, 100">
  <g id="Layer_1">
    <g id="Radios">
      <path d="M28.5,33.5 L88.5,33.5" fill-opacity="0" stroke="#000000" stroke-width="4"/>
      <path d="M28.5,50.5 L88.5,50.5" fill-opacity="0" stroke="#000000" stroke-width="4"/>
      <path d="M28.5,68 L88.5,68" fill-opacity="0" stroke="#000000" stroke-width="4"/>
      <path d="M17.167,25.586 C21.033,25.586 24.167,28.72 24.167,32.586 C24.167,36.452 21.033,39.586 17.167,39.586 L17.167,39.586 C13.301,39.586 10.167,36.452 10.167,32.586 C10.167,28.72 13.301,25.586 17.167,25.586 z M17.167,28.056 C14.665,28.056 12.637,30.084 12.637,32.586 C12.637,35.087 14.665,37.115 17.167,37.115 L17.167,37.115 C19.668,37.115 21.696,35.087 21.696,32.586 C21.696,30.084 19.668,28.056 17.167,28.056 z M17.167,29.703 C18.759,29.703 20.049,30.994 20.049,32.586 C20.049,34.178 18.759,35.468 17.167,35.468 C15.575,35.468 14.284,34.178 14.284,32.586 C14.284,30.994 15.575,29.703 17.167,29.703 z" fill="#000000"/>
      <path d="M17.167,43.25 C21.033,43.25 24.167,46.384 24.167,50.25 C24.167,54.116 21.033,57.25 17.167,57.25 L17.167,57.25 C13.301,57.25 10.167,54.116 10.167,50.25 C10.167,46.384 13.301,43.25 17.167,43.25 z M17.167,45.721 C14.665,45.721 12.637,47.749 12.637,50.25 C12.637,52.752 14.665,54.779 17.167,54.779 L17.167,54.779 C19.668,54.779 21.696,52.752 21.696,50.25 C21.696,47.749 19.668,45.721 17.167,45.721 z M17.167,47.368 C18.759,47.368 20.049,48.658 20.049,50.25 C20.049,51.842 18.759,53.132 17.167,53.132 C15.575,53.132 14.284,51.842 14.284,50.25 C14.284,48.658 15.575,47.368 17.167,47.368 z" fill="#000000"/>
      <path d="M17.167,60 C21.033,60 24.167,63.134 24.167,67 C24.167,70.866 21.033,74 17.167,74 L17.167,74 C13.301,74 10.167,70.866 10.167,67 C10.167,63.134 13.301,60 17.167,60 z M17.167,62.471 C14.665,62.471 12.637,64.499 12.637,67 C12.637,69.502 14.665,71.529 17.167,71.529 L17.167,71.529 C19.668,71.529 21.696,69.502 21.696,67 C21.696,64.499 19.668,62.471 17.167,62.471 z M17.167,64.118 C18.759,64.118 20.049,65.408 20.049,67 C20.049,68.592 18.759,69.882 17.167,69.882 C15.575,69.882 14.284,68.592 14.284,67 C14.284,65.408 15.575,64.118 17.167,64.118 z" fill="#000000"/>
    </g>
  </g>
</svg>
