<?xml version="1.0" encoding="UTF-8"?>
<!DOCTYPE svg PUBLIC "-//W3C//DTD SVG 1.1//EN" "http://www.w3.org/Graphics/SVG/1.1/DTD/svg11.dtd">
<svg version="1.1" xmlns="http://www.w3.org/2000/svg" xmlns:xlink="http://www.w3.org/1999/xlink" x="0" y="0" width="100%" height="100%" viewBox="0, 0, 100, 100">
  <g id="Layer_1">
    <g>
      <path d="M39.469,71.184 L39.469,75.184 L27.469,75.184 L27.469,71.184 L39.469,71.184 z" fill="#000000"/>
      <path d="M9.417,70.457 C9.82,70.965 10.21,71.184 10.538,71.184 L19.469,71.184 L19.469,75.184 L10.538,75.184 C8.887,75.184 7.398,74.347 6.285,72.945 L9.417,70.457 z" fill="#000000"/>
      <path d="M8.221,52.049 L8.221,64.049 L4.221,64.049 L4.221,52.049 L8.221,52.049 z" fill="#000000"/>
      <path d="M8.221,32.049 L8.221,44.049 L4.221,44.049 L4.221,32.049 L8.221,32.049 z" fill="#000000"/>
      <path d="M76.801,18.645 C79.496,18.645 81.647,20.815 82.596,23.897 L78.773,25.074 C78.287,23.496 77.444,22.645 76.801,22.645 L70.538,22.645 L70.538,18.645 L76.801,18.645 z" fill="#000000"/>
      <path d="M10.534,18.645 L10.537,22.645 C9.945,22.645 9.171,23.372 8.666,24.774 L4.903,23.417 C5.922,20.589 7.99,18.647 10.534,18.645 z" fill="#000000"/>
      <path d="M22.538,18.645 L22.538,22.645 L10.538,22.645 L10.538,18.645 L22.538,18.645 z" fill="#000000"/>
      <path d="M42.538,18.645 L42.538,22.645 L30.538,22.645 L30.538,18.645 L42.538,18.645 z" fill="#000000"/>
      <path d="M62.538,18.645 L62.538,22.645 L50.538,22.645 L50.538,18.645 L62.538,18.645 z" fill="#000000"/>
      <g id="File">
        <path d="M90.742,54.013 C89.843,54.812 63.356,80.899 63.356,80.899 C53.262,89.294 38.569,74.702 48.364,64.547 C48.364,64.547 81.147,30.925 81.147,30.925 C88.743,24.728 99.838,36.122 93.541,43.518 C93.541,43.518 65.475,71.704 65.475,71.704 C59.359,77.301 51.163,69.005 56.16,63.708 C56.16,63.708 76.55,43.518 76.55,43.518" fill-opacity="0" stroke="#000000" stroke-width="3" stroke-linecap="round"/>
      </g>
    </g>
  </g>
</svg>
