<?xml version="1.0" encoding="UTF-8"?>
<!DOCTYPE svg PUBLIC "-//W3C//DTD SVG 1.1//EN" "http://www.w3.org/Graphics/SVG/1.1/DTD/svg11.dtd">
<svg version="1.1" xmlns="http://www.w3.org/2000/svg" xmlns:xlink="http://www.w3.org/1999/xlink" x="0" y="0" width="100" height="100" viewBox="0, 0, 100, 100">
  <g id="Layer_1">
    <path d="M70.334,22.667 C74.2,22.667 77.334,25.801 77.334,29.667 L77.334,70.334 C77.334,74.2 74.2,77.334 70.334,77.334 L29.667,77.334 C25.801,77.334 22.667,74.2 22.667,70.334 L22.667,29.667 C22.667,25.801 25.801,22.667 29.667,22.667 L70.334,22.667 z M70.334,26.667 L29.667,26.667 C28.01,26.667 26.667,28.01 26.667,29.667 L26.667,70.334 C26.667,71.991 28.01,73.334 29.667,73.334 L70.334,73.334 C71.991,73.334 73.334,71.991 73.334,70.334 L73.334,29.667 C73.334,28.01 71.991,26.667 70.334,26.667 z" fill="#000000"/>
    <path d="M67.662,34.754 L70.505,37.569 L44.504,63.819 L43.09,65.246 L41.669,63.826 L31.669,53.826 L34.497,50.998 L43.076,59.576 L67.662,34.754 z" fill="#000000"/>
  </g>
</svg>
