<?xml version="1.0" encoding="UTF-8"?>
<!DOCTYPE svg PUBLIC "-//W3C//DTD SVG 1.1//EN" "http://www.w3.org/Graphics/SVG/1.1/DTD/svg11.dtd">
<svg version="1.1" xmlns="http://www.w3.org/2000/svg" xmlns:xlink="http://www.w3.org/1999/xlink" x="0" y="0" width="100" height="100" viewBox="0, 0, 100, 100">
  <g id="Layer_1">
    <path d="M88.222,11 C91.986,11 95,14.181 95,18.06 L95,81.94 C95,85.819 91.986,89 88.222,89 L11.778,89 C8.014,89 5,85.819 5,81.94 L5,18.06 C5,14.181 8.014,11 11.778,11 L88.222,11 z M88.222,15.034 L11.778,15.034 C10.265,15.035 9,16.369 9,18.06 L9,81.94 C9,83.631 10.265,84.966 11.778,84.966 L88.222,84.966 C89.736,84.966 91,83.631 91,81.94 L91,18.06 C91,16.369 89.736,15.035 88.222,15.034 z" fill="#000000"/>
    <path d="M18.459,21.833 C20.819,21.9 21.54,22.522 23.083,23.912 C24.229,22.49 25.856,22.001 27.708,21.833 L29.083,21.833 L29.083,24.31 L27.707,24.31 C25.935,24.31 24.498,25.604 24.497,27.2 L24.497,46.466 C24.498,48.062 25.935,49.356 27.708,49.356 L29.083,49.356 L29.083,51.833 L27.707,51.833 C25.348,51.766 24.627,51.144 23.083,49.755 C21.938,51.176 20.31,51.665 18.459,51.833 L17.083,51.833 L17.083,49.356 L18.459,49.356 C20.232,49.356 21.669,48.062 21.669,46.466 L21.669,27.2 C21.669,25.604 20.232,24.31 18.459,24.31 L17.083,24.31 L17.083,21.833 L18.459,21.833 z" fill="#000000"/>
  </g>
</svg>
