<?xml version="1.0" encoding="UTF-8"?>
<!DOCTYPE svg PUBLIC "-//W3C//DTD SVG 1.1//EN" "http://www.w3.org/Graphics/SVG/1.1/DTD/svg11.dtd">
<svg version="1.1" xmlns="http://www.w3.org/2000/svg" xmlns:xlink="http://www.w3.org/1999/xlink" x="0" y="0" width="300" height="300" viewBox="0, 0, 300, 300">
  <g id="Background">
    <rect x="0" y="0" width="300" height="300" fill="#000000" fill-opacity="0"/>
  </g>
  <g id="Layer_1">
    <path d="M124.779,67.93 C134.475,57.888 147.98,51.539 162.87,51.539 C182.724,51.539 199.923,62.62 209.157,79.011 C217.122,75.433 226.01,73.471 235.36,73.471 C271.143,73.471 300,102.674 300,138.688 C300,174.702 271.027,203.905 235.36,203.905 C230.973,203.905 226.703,203.444 222.663,202.636 C214.583,217.064 199.115,226.876 181.339,226.876 C173.952,226.876 166.91,225.144 160.677,222.143 C152.482,241.42 133.321,255.04 111.043,255.04 C87.841,255.04 67.988,240.381 60.369,219.719 C57.022,220.412 53.559,220.758 50.096,220.758 C22.393,220.758 0,198.134 0,170.085 C0,151.385 10.042,134.994 25.048,126.222 C21.932,119.18 20.2,111.331 20.2,103.02 C20.085,71.047 46.287,44.96 78.376,44.96 C97.307,44.96 114.159,53.963 124.779,67.93" fill="#00A1E0"/>
  </g>
</svg>
