<?xml version="1.0" encoding="UTF-8"?>
<!DOCTYPE svg PUBLIC "-//W3C//DTD SVG 1.1//EN" "http://www.w3.org/Graphics/SVG/1.1/DTD/svg11.dtd">
<svg version="1.1" xmlns="http://www.w3.org/2000/svg" xmlns:xlink="http://www.w3.org/1999/xlink" x="0" y="0" width="300" height="300" viewBox="0, 0, 300, 300">
  <g id="Background">
    <rect x="0" y="0" width="300" height="300" fill="#FFFFFF"/>
  </g>
  <g id="Layer_1">
    <path d="M274.995,287.064 C271.105,290.044 255.38,300 240.36,300 C205.314,300 186.117,276.221 186.117,236.994 C186.117,214.88 192.791,184.84 192.791,165.225 C192.791,153.961 190.288,146.03 182.776,146.03 C165.25,146.03 149.811,199.862 149.811,269.119 C149.811,280.803 141.885,299.576 100.988,299.576 C94.731,299.576 91.808,294.573 91.393,285.812 C82.213,293.738 70.528,297.916 58.429,297.916 C17.538,297.916 3.345,265.787 3.345,225.732 C3.345,191.097 7.518,131.017 14.195,117.244 C20.876,103.054 42.573,87.204 55.921,87.204 C63.02,87.204 71.78,92.209 71.78,104.728 C71.78,118.918 61.765,151.879 61.765,196.937 C61.765,242.002 66.771,255.355 76.783,255.355 C86.8,255.355 89.304,242.419 94.731,234.91 C95.561,226.149 95.981,217.382 96.396,208.204 C96.813,136.857 98.065,129.345 100.986,119.331 C104.746,98.886 136.458,85.115 150.221,85.115 C159.819,85.115 164.829,90.544 164.829,100.557 C164.829,109.74 158.567,122.254 156.066,140.197 C166.083,117.661 192.369,88.873 216.572,88.873 C243.694,88.873 250.787,109.32 250.787,134.768 C250.787,162.307 243.694,189.424 243.694,219.468 C243.694,242.419 246.915,256.548 254.543,255.768 C272.002,253.982 268.637,237.717 280.415,236.034 C304.87,232.54 300.606,267.443 274.995,287.064 z M49.662,75.105 C37.143,75.105 24.205,70.1 24.205,39.642 C24.205,12.516 50.079,-0 65.097,-0 C79.287,-0 91.388,6.679 91.388,23.368 C91.391,57.998 66.771,75.105 49.662,75.105 z" fill="#FF5622"/>
  </g>
</svg>
