<?xml version="1.0" encoding="UTF-8"?>
<!DOCTYPE svg PUBLIC "-//W3C//DTD SVG 1.1//EN" "http://www.w3.org/Graphics/SVG/1.1/DTD/svg11.dtd">
<svg version="1.1" xmlns="http://www.w3.org/2000/svg" xmlns:xlink="http://www.w3.org/1999/xlink" x="0" y="0" width="300" height="300" viewBox="0, 0, 300, 300">
  <g id="Background">
    <rect x="0" y="0" width="300" height="300" fill="#000000" fill-opacity="0"/>
  </g>
  <g id="Layer_1">
    <path d="M149.482,0.001 L262.155,0.001 C272.218,-0.086 281.894,3.873 289.01,10.989 C296.127,18.105 300.086,27.781 299.999,37.844 L299.999,150.514 C299.978,233.064 233.061,299.979 150.508,300 L149.657,300 C109.983,300.044 71.918,284.32 43.842,256.289 C15.768,228.254 -0.005,190.206 0,150.532 C0,67.694 66.816,0.879 149.491,0.029 z" fill="#25C16F"/>
    <path d="M149.482,66.816 C111.544,66.816 80.789,97.569 80.789,135.506 L80.789,182.211 C81.073,194.708 91.137,204.772 103.635,205.055 L123.069,205.055 L123.069,151.456 L96.824,151.456 L96.824,136.458 C98.422,108.207 121.794,86.121 150.092,86.121 C178.389,86.121 201.844,108.3 203.36,136.458 L203.36,151.456 L176.772,151.456 L176.772,205.055 L194.331,205.055 L194.331,205.906 C194.148,217.501 184.792,226.857 173.196,227.04 L152.217,227.04 C150.517,227.04 148.641,227.89 148.641,229.6 C148.733,231.448 150.277,233.093 152.217,233.176 L173.353,233.176 C188.375,233.081 200.529,220.927 200.624,205.906 L200.624,204.205 C210.949,201.848 218.25,192.634 218.183,182.045 L218.183,136.365 C219.135,97.663 188.453,66.816 149.482,66.816 z" fill="#FFFFFF"/>
  </g>
</svg>
