<svg xmlns="http://www.w3.org/2000/svg" width="15.5" height="11.5" fill="none" style="max-height:500px" viewBox="0 6.8 15.5 11.5"><g clip-path="url(#a)"><g clip-path="url(#b)"><path fill="#111" fill-rule="evenodd" d="M39.2 5.4q1.5-.2 1.6-1.7Q40.7 2 39.2 2q-1.5.2-1.6 1.7.1 1.5 1.6 1.7M22 7.2a5.3 5.3 0 0 0-5.2 5.4c0 3 2.3 5.4 5.2 5.4 2.8 0 5.2-2.4 5.2-5.4S24.8 7.2 22 7.2m0 8.2a3 3 0 0 1-2.7-2.8c0-1.6 1.2-2.8 2.7-2.8s2.7 1.2 2.7 2.8-1.2 2.8-2.7 2.8M11 7.2h.4q1.8.2 3 1.6 1 1.3 1.1 3.1v5.9h-2.4v-6a2 2 0 0 0-2-2h-.3c-1 0-1.8 1-1.8 2.1v5.9H6.5v-6a2 2 0 0 0-2.2-2c-1 0-1.9 1-1.9 2.1v5.9H0v-6c0-2.5 2-4.6 4.5-4.6q1.9 0 3.3 1.5Q9 7.2 11 7.2m20-5h-2.5v15.6H31zm2.2 0h2.5v15.6h-2.5zm7.2 5.3H38v10.3h2.4zm10.2 1.2q1.4 1.6 1.4 3.7v1.1h-7.5a2.7 2.7 0 0 0 5 .7l.1-.1 2 1v.2a5 5 0 0 1-8.1 1q-1.5-1.5-1.6-3.8 0-2.2 1.5-3.7A5 5 0 0 1 47 7.2h.1q2 0 3.5 1.5m-1.1 2.7A3 3 0 0 0 47 9.5q-1.8.1-2.5 2z" clip-rule="evenodd" style="fill:#111;fill:color(display-p3 .0667 .0667 .0667);fill-opacity:1"/></g><path fill="#111" fill-opacity=".6" d="M60.5 17.6q-3.2 0-3.4-4.2c0-2.7 1.5-4.2 3.4-4.2 1.4 0 2 .9 2.3 1.5V6.6h2v10.9H63v-1.3h-.1c-.3.6-1 1.4-2.3 1.4m.5-1.5q1.9-.2 2-2.7-.1-2.5-2-2.6-2 .1-2 2.6c0 1.5.7 2.7 2 2.7m9.2 1.6c-2.5 0-4-1.7-4-4.2 0-2.6 1.5-4.3 3.9-4.3 2 0 3.7 1.3 3.7 4.1v.6h-5.7q.2 2.2 2.1 2.3 1.3 0 1.7-1.1l1.8.2q-.5 2.3-3.5 2.4m-2-5H72q-.1-1.9-1.9-2a2 2 0 0 0-2 2m14-3.4-2.9 8.2h-2.1l-3-8.2h2.1l2 6.1 1.9-6z" style="fill:#111;fill:color(display-p3 .0667 .0667 .0667);fill-opacity:.6"/></g><defs><clipPath id="a"><path fill="#fff" d="M0 0h83v23H0z" style="fill:#fff;fill-opacity:1"/></clipPath><clipPath id="b"><path fill="#fff" d="M0 0h52v16H0z" style="fill:#fff;fill-opacity:1" transform="translate(0 2)"/></clipPath></defs></svg>
