<svg height="800" viewBox="0 0 800 800" width="800" xmlns="http://www.w3.org/2000/svg"><path d="m0 0h800v800h-800z" fill="none"/><path d="m316.925 444.525-65.65-156.4-67.35 156.4zm168.075 162.775h-176.725v-34.125l11.45-.575c8.404.581 16.808-1.148 24.3-5 2.25-1.431 3.616-3.909 3.625-6.575-1.398-12.194-4.944-24.043-10.475-35l-20.3-48.275h-133.825l-23.05 53.725c-4.654 9.026-7.611 18.831-8.725 28.925 0 .9 0 2.975 3.85 6.025 9.259 4.497 19.491 6.619 29.775 6.175l11.2.825v33.85h-146.1v-32.75l10-1.75c8.855-.583 17.435-3.311 25-7.95 13.016-15.193 23.026-32.72 29.5-51.65l139.375-325.9h26.125l137.8 329.35c5.544 16.91 14.467 32.517 26.225 45.875 8.551 6.507 19.005 10.021 29.75 10l11.35.675z"/><path d="m646.025 539v-99.625c-18.972 7.078-37.549 15.173-55.65 24.25-12.536 6.292-23.544 15.252-32.25 26.25-6.336 8.717-9.734 19.224-9.7 30-.427 12.504 3.968 24.694 12.275 34.05 6.957 8.469 17.291 13.443 28.25 13.6 21.553-3.264 41.527-13.246 57.075-28.525zm-83.325 73.725c-20.193.525-39.649-7.598-53.475-22.325-14.175-15.567-21.656-36.087-20.825-57.125-.303-13.854 3.292-27.514 10.375-39.425 11.376-17.001 26.751-30.951 44.775-40.625 28.993-15.708 59.238-28.987 90.425-39.7v-1.85c1.954-15.913-1.413-32.026-9.575-45.825-6.921-7.349-16.815-11.141-26.875-10.3-7.382-.528-14.684 1.799-20.4 6.5-4.251 3.16-6.807 8.104-6.925 13.4l.575 16.15c.585 10.587-3.006 20.981-10 28.95-7.012 6.924-16.495 10.766-26.349 10.677s-19.265-4.103-26.151-11.152c-6.735-7.869-10.229-18.003-9.775-28.35.853-21.749 11.774-41.864 29.55-54.425 22.537-16.621 50.165-24.861 78.125-23.3 21.65-.745 43.16 3.749 62.7 13.1 13.778 7.267 24.525 19.193 30.325 33.65 5.217 17.839 7.281 36.451 6.1 55v88.75c-.446 14.587-.02 29.188 1.275 43.725.184 1.727.64 3.415 1.35 5 2.125-1.95 7.1-5.625 21.6-20.15l20.475-20.7v49.175l-2.5 3.2c-23.95 32.075-47.075 47.675-70.75 47.675-12.037.325-23.58-4.79-31.425-13.925-4.38-5.388-7.444-11.722-8.95-18.5-11.187 9.196-23.177 17.371-35.825 24.425-11.859 5.498-24.779 8.331-37.85 8.3z"/><path d="m75 725 650-650" fill="none" stroke="#f00" stroke-linecap="round" stroke-width="50"/></svg>