<svg xmlns="http://www.w3.org/2000/svg"
     viewBox="0 0 640 512"><!--!Font Awesome Pro 6.5.2 by @fontawesome - https://fontawesome.com License - https://fontawesome.com/license (Commercial License) Copyright 2024 Fonticons, Inc.-->
    <path d="M5.1 9.2C13.3-1.2 28.4-3.1 38.8 5.1L154 95.4C187.3 38.4 249.2 0 320 0C426 0 512 86 512 192c0 38.7-23 90.8-53 142.4L630.8 469.1c10.4 8.2 12.3 23.3 4.1 33.7s-23.3 12.3-33.7 4.1L9.2 42.9C-1.2 34.7-3.1 19.6 5.1 9.2zm123 187.7L406.2 416c-23.6 33.5-46.3 62.9-62.5 83.2c-12.3 15.3-35.1 15.3-47.4 0c-50.3-63-164-214-168.2-302.3zm129.7-20.2l91.8 71.9c10.6-5.5 19.6-14 25.8-24.7c11.4-19.8 11.4-44.2 0-64s-32.6-32-55.4-32s-44 12.2-55.4 32c-3.1 5.3-5.3 11-6.7 16.8z" />
</svg>
