<?xml version="1.0" encoding="UTF-8"?>
<!DOCTYPE svg PUBLIC "-//W3C//DTD SVG 1.1//EN" "http://www.w3.org/Graphics/SVG/1.1/DTD/svg11.dtd">
<svg version="1.1" xmlns="http://www.w3.org/2000/svg" xmlns:xlink="http://www.w3.org/1999/xlink" x="0" y="0" width="300" height="300" viewBox="0, 0, 300, 300">
  <g id="Background">
    <rect x="0" y="0" width="300" height="300" fill="#000000" fill-opacity="0"/>
  </g>
  <g id="Layer_1">
    <path d="M104.92,111.758 C113.657,105.078 136.386,51.244 139.613,54.651 C131.965,45.95 233.582,149.816 233.582,149.816 L290.556,210.181 L124.273,233.988 L14.166,211.657 C16.429,209.552 18.001,207.379 20.261,205.11 C52.784,172.455 75.275,134.43 104.92,111.758 z" fill="#FFFFFF"/>
    <path d="M10.731,212.457 C13.025,210.31 100.904,106.562 102.269,102.472 C103.633,98.381 132.262,56.799 138.396,53.393 C144.533,49.983 205.201,111.335 205.201,111.335 L246.374,155.473 C246.374,155.473 259.046,168.692 268.589,178.917 C275.249,186.054 285.799,196.252 300,209.556 L246.175,213.434 C236.169,194.033 210.271,160.603 204.515,152.232 C197.016,141.325 178.61,109.97 179.974,113.376 C181.338,116.785 178.61,142.653 178.61,142.653 C178.61,142.653 163.615,106.562 162.932,96.335 C162.25,86.11 138.734,58.161 138.734,58.161 C138.052,61.23 137.71,79.975 137.71,79.975 C137.71,79.975 145.891,94.291 146.573,97.699 C147.255,101.107 144.529,107.924 150.661,116.785 C156.798,125.648 160.206,140.643 160.206,140.643 C160.206,140.643 142.482,131.782 133.619,123.601 C124.758,115.42 109.761,111.332 109.761,111.332 C109.761,111.332 137.71,148.142 146.573,152.914 C152.607,156.164 175.678,190.41 189.808,208.689 C136.451,208.409 165.249,199.193 135.326,169.274 C130.555,164.503 129.873,178.137 125.783,177.455 C121.692,176.775 115.558,154.958 110.787,144.053 C106.015,133.146 97.404,221.906 85.099,231.221 L46.208,228.143 L10.731,212.457 z" fill="#333F4D"/>
    <path d="M12.567,210.379 C40.839,221.675 84.045,227.844 126.885,226.22 C222.509,222.597 212.029,211.954 299.999,209.543 L240.917,221.564 C185.463,229.838 77.195,272.21 -0,224.243 L12.567,210.379 z" fill="#B99B70"/>
  </g>
</svg>
