<svg height="500" viewBox="0 0 500 500" width="500" xmlns="http://www.w3.org/2000/svg"><path d="m0 0h500v500h-500z" fill="none"/><path d="m250 4c8.456 0 15.375 6.919 15.375 15.375v215.25h215.25c8.456 0 15.375 6.919 15.375 15.375s-6.919 15.375-15.375 15.375h-215.25v215.25c0 8.456-6.919 15.375-15.375 15.375s-15.375-6.919-15.375-15.375v-215.25h-215.25c-8.456 0-15.375-6.919-15.375-15.375s6.919-15.375 15.375-15.375h215.25v-215.25c0-8.456 6.919-15.375 15.375-15.375zm84.562 92.25h38.438v-38.438-7.687c0-8.456 6.919-15.375 15.375-15.375s15.375 6.919 15.375 15.375v7.687 38.438h38.438 7.687c8.456 0 15.375 6.919 15.375 15.375s-6.919 15.375-15.375 15.375h-7.687-38.438v38.438 7.687c0 8.456-6.919 15.375-15.375 15.375s-15.375-6.919-15.375-15.375v-7.687-38.438h-38.438-7.687c-8.456 0-15.375-6.919-15.375-15.375s6.919-15.375 15.375-15.375zm-279.536 235.526c5.958-5.958 15.759-5.958 21.717 0l34.882 34.882 34.882-34.882c5.958-5.958 15.759-5.958 21.717 0s5.958 15.759 0 21.717l-34.882 34.882 34.882 34.882c5.958 5.958 5.958 15.759 0 21.717s-15.759 5.958-21.717 0l-34.882-34.882-34.882 34.882c-5.958 5.958-15.759 5.958-21.717 0s-5.958-15.759 0-21.717l34.882-34.882-34.882-34.882c-5.958-5.958-5.958-15.759 0-21.717zm-4.901-235.526h123c8.456 0 15.375 6.919 15.375 15.375s-6.919 15.375-15.375 15.375h-123c-8.456 0-15.375-6.919-15.375-15.375s6.919-15.375 15.375-15.375zm276.75 246h123c8.456 0 15.375 6.919 15.375 15.375s-6.919 15.375-15.375 15.375h-123c-8.456 0-15.375-6.919-15.375-15.375s6.919-15.375 15.375-15.375zm0 61.5h123c8.456 0 15.375 6.919 15.375 15.375s-6.919 15.375-15.375 15.375h-123c-8.456 0-15.375-6.919-15.375-15.375s6.919-15.375 15.375-15.375z"/></svg>