<svg height="500" viewBox="0 0 500 500" width="500" xmlns="http://www.w3.org/2000/svg"><path d="m0 0h500v500h-500z" fill="none"/><path d="m250 29.584c7.577 0 13.776 6.199 13.776 13.776v192.864h192.864c7.577 0 13.776 6.199 13.776 13.776s-6.199 13.776-13.776 13.776h-192.864v192.864c0 7.577-6.199 13.776-13.776 13.776s-13.776-6.199-13.776-13.776v-192.864h-192.864c-7.577 0-13.776-6.199-13.776-13.776s6.199-13.776 13.776-13.776h192.864v-192.864c0-7.577 6.199-13.776 13.776-13.776zm75.768 82.656h34.44v-34.44-6.888c0-7.577 6.199-13.776 13.776-13.776s13.776 6.199 13.776 13.776v6.888 34.44h34.44 6.888c7.577 0 13.776 6.199 13.776 13.776s-6.199 13.776-13.776 13.776h-6.888-34.44v34.44 6.888c0 7.577-6.199 13.776-13.776 13.776s-13.776-6.199-13.776-13.776v-6.888-34.44h-34.44-6.888c-7.577 0-13.776-6.199-13.776-13.776s6.199-13.776 13.776-13.776zm-250.465 211.031c5.339-5.338 14.12-5.338 19.459 0l31.254 31.255 31.254-31.255c5.339-5.338 14.12-5.338 19.459 0 5.338 5.339 5.338 14.12 0 19.459l-31.255 31.254 31.255 31.254c5.338 5.339 5.338 14.12 0 19.459-5.339 5.338-14.12 5.338-19.459 0l-31.254-31.255-31.254 31.255c-5.339 5.338-14.12 5.338-19.459 0-5.338-5.339-5.338-14.12 0-19.459l31.255-31.254-31.255-31.254c-5.338-5.339-5.338-14.12 0-19.459zm-4.391-211.031h110.208c7.577 0 13.776 6.199 13.776 13.776s-6.199 13.776-13.776 13.776h-110.208c-7.577 0-13.776-6.199-13.776-13.776s6.199-13.776 13.776-13.776zm247.968 220.416h110.208c7.577 0 13.776 6.199 13.776 13.776s-6.199 13.776-13.776 13.776h-110.208c-7.577 0-13.776-6.199-13.776-13.776s6.199-13.776 13.776-13.776zm0 55.104h110.208c7.577 0 13.776 6.199 13.776 13.776s-6.199 13.776-13.776 13.776h-110.208c-7.577 0-13.776-6.199-13.776-13.776s6.199-13.776 13.776-13.776z"/></svg>