<svg height="500" viewBox="0 0 500 500" width="500" xmlns="http://www.w3.org/2000/svg"><path d="m0 0h500v500h-500z" fill="none"/><path d="m184.745 228.223c36.04 0 65.255-29.215 65.255-65.254 0-36.04-29.215-65.255-65.255-65.255-36.039 0-65.254 29.215-65.254 65.255 0 36.039 29.215 65.254 65.254 65.254zm-130.509 174.012h242.054c7.001 7.681 15.022 14.886 24.13 21.412-1.155.204-2.379.34-3.602.34h-264.145c-11.148 0-20.188-9.041-20.188-20.189 0-66.953 54.243-121.196 121.197-121.196h62.127c11.964 0 23.519 1.767 34.463 4.962.408 7.477 1.291 15.566 2.787 23.994-11.488-4.69-24.131-7.205-37.318-7.205h-62.059c-54.379 0-98.562 43.707-99.446 97.882zm43.503-239.266c0-48.053 38.954-87.007 87.006-87.007 48.053 0 87.006 38.954 87.006 87.007 0 48.052-38.953 87.006-87.006 87.006-48.052 0-87.006-38.954-87.006-87.006zm195.832 117.865c.884 36.026 15.362 88.026 65.187 115.555v-141.656zm152.193 0-65.255-26.101v141.656c49.893-27.529 64.303-79.597 65.187-115.555zm-70.013-51.455 81.568 32.627c6.118 2.515 10.196 8.496 10.196 15.158 0 43.027-17.605 114.739-91.628 145.599-4.011 1.699-8.565 1.699-12.575 0-73.955-30.86-91.561-102.572-91.561-145.599 0-6.662 4.079-12.643 10.265-15.158l81.568-32.627c3.874-1.564 8.224-1.564 12.099 0z"/></svg>