<svg height="500" viewBox="0 0 500 500" width="500" xmlns="http://www.w3.org/2000/svg"><path d="m0 0h500v500h-500z" fill="none"/><path d="m120.714 94.857c-14.302 0-25.857 11.555-25.857 25.857v258.572c0 14.302 11.555 25.857 25.857 25.857h258.572c14.302 0 25.857-11.555 25.857-25.857v-258.572c0-14.302-11.555-25.857-25.857-25.857zm-51.714 25.857c0-28.523 23.191-51.714 51.714-51.714h258.572c28.523 0 51.714 23.191 51.714 51.714v258.572c0 28.523-23.191 51.714-51.714 51.714h-258.572c-28.523 0-51.714-23.191-51.714-51.714zm267.702 86.703-103.428 103.428c-5.01 5.01-13.252 5.01-18.262 0l-51.714-51.714c-5.01-5.01-5.01-13.252 0-18.262s13.252-5.01 18.261 0l42.584 42.584 94.298-94.298c5.009-5.01 13.251-5.01 18.261 0s5.01 13.252 0 18.262z"/></svg>