<svg height="500" viewBox="0 0 500 500" width="500" xmlns="http://www.w3.org/2000/svg"><path d="m0 0h500v500h-500z" fill="none"/><path d="m164.18 93.538c4.905-5.851 4.044-14.543-1.721-19.362-5.766-4.82-14.544-4.045-19.363 1.721l-59.293 71.083-30.637-30.637c-5.335-5.335-14.113-5.335-19.449 0-5.335 5.336-5.335 14.114 0 19.449l41.308 41.308c2.754 2.753 6.454 4.216 10.327 4.044 3.872-.172 7.487-1.979 9.982-4.905l68.846-82.615zm0 137.691c4.905-5.851 4.044-14.543-1.721-19.362-5.766-4.82-14.544-4.045-19.363 1.721l-59.293 71.083-30.637-30.636c-5.335-5.336-14.113-5.336-19.449 0-5.335 5.335-5.335 14.113 0 19.448l41.308 41.308c2.754 2.754 6.454 4.217 10.327 4.044 3.872-.172 7.487-1.979 9.982-4.905l68.846-82.614zm30.722-105.161c0 7.573 6.196 13.769 13.769 13.769h247.844c7.573 0 13.769-6.196 13.769-13.769s-6.196-13.769-13.769-13.769h-247.844c-7.573 0-13.769 6.196-13.769 13.769zm0 137.691c0 7.573 6.196 13.769 13.769 13.769h247.844c7.573 0 13.769-6.196 13.769-13.769s-6.196-13.769-13.769-13.769h-247.844c-7.573 0-13.769 6.196-13.769 13.769zm-27.538 137.691c0 7.573 6.196 13.769 13.769 13.769h275.382c7.573 0 13.769-6.196 13.769-13.769s-6.196-13.769-13.769-13.769h-275.382c-7.573 0-13.769 6.196-13.769 13.769zm-55.077 0c0-15.209-12.329-27.538-27.538-27.538s-27.538 12.329-27.538 27.538 12.329 27.538 27.538 27.538 27.538-12.329 27.538-27.538z"/></svg>