<svg height="500" viewBox="0 0 500 500" width="500" xmlns="http://www.w3.org/2000/svg"><path d="m0 0h500v500h-500z" fill="none"/><path d="m420.857 197.429c7.229 0 13.143-5.915 13.143-13.143v-105.143c0-7.229-5.914-13.143-13.143-13.143-7.228 0-13.143 5.914-13.143 13.143v76.064c-32.2-53.475-90.768-89.207-157.714-89.207-101.611 0-184 82.389-184 184s82.389 184 184 184c65.632 0 123.214-34.336 155.825-86.086 5.421-8.543-1.15-19.057-11.254-19.057-4.928 0-9.364 2.629-12.075 6.736-28.092 43.371-76.967 72.121-132.496 72.121-87.071 0-157.714-70.643-157.714-157.714s70.643-157.714 157.714-157.714c58.404 0 109.332 31.707 136.604 78.857h-70.89c-7.228 0-13.143 5.914-13.143 13.143 0 7.228 5.915 13.143 13.143 13.143z"/></svg>