<svg height="500" viewBox="0 0 500 500" width="500" xmlns="http://www.w3.org/2000/svg"><path d="m0 0h500v500h-500z" fill="none"/><path d="m155.062 33c7.46 0 13.563 6.103 13.563 13.563v40.687h162.75v-40.687c0-7.46 6.103-13.563 13.563-13.563 7.459 0 13.562 6.103 13.562 13.563v40.687h27.125c29.922 0 54.25 24.328 54.25 54.25v27.125 27.125 217c0 29.922-24.328 54.25-54.25 54.25h-271.25c-29.922 0-54.25-24.328-54.25-54.25v-217-27.125-27.125c0-29.922 24.328-54.25 54.25-54.25h27.125v-40.687c0-7.46 6.103-13.563 13.562-13.563zm257.688 162.75h-325.5v217c0 15.004 12.121 27.125 27.125 27.125h271.25c15.004 0 27.125-12.121 27.125-27.125zm-27.125-81.375h-271.25c-15.004 0-27.125 12.121-27.125 27.125v27.125h325.5v-27.125c0-15.004-12.121-27.125-27.125-27.125z"/></svg>