<svg height="500" viewBox="0 0 500 500" width="500" xmlns="http://www.w3.org/2000/svg"><path d="m0 0h500v500h-500z" fill="none"/><path d="m107.143 421.429c-15.804 0-28.572-12.768-28.572-28.572v-285.714c0-15.804 12.768-28.572 28.572-28.572h285.714c15.804 0 28.572 12.768 28.572 28.572v285.714c0 15.804-12.768 28.572-28.572 28.572zm-57.143-28.572c0 31.518 25.625 57.143 57.143 57.143h285.714c31.518 0 57.143-25.625 57.143-57.143v-285.714c0-31.518-25.625-57.143-57.143-57.143h-285.714c-31.518 0-57.143 25.625-57.143 57.143zm200-57.143c8.571 0 16.696-3.571 22.5-9.821l85.268-91.786c4.196-4.553 6.518-10.536 6.518-16.696 0-13.572-10.982-24.554-24.554-24.554h-179.464c-13.572 0-24.554 10.982-24.554 24.554 0 6.16 2.322 12.143 6.518 16.696l85.268 91.786c5.804 6.25 13.929 9.821 22.5 9.821zm-1.518-29.196-79.018-85.089h161.072l-78.929 85.089c-.357.446-.982.625-1.518.625-.535 0-1.16-.268-1.518-.625z"/></svg>