<svg height="500" viewBox="0 0 500 500" width="500" xmlns="http://www.w3.org/2000/svg"><path d="m0 0h500v500h-500z" fill="none"/><path d="m82.5 110.417c-15.441 0-27.917 12.475-27.917 27.916v34.809l170.641 125.101c14.743 10.818 34.809 10.818 49.552 0l170.641-125.101v-34.809c0-15.441-12.476-27.916-27.917-27.916zm-27.917 97.359v153.891c0 15.441 12.476 27.916 27.917 27.916h335c15.441 0 27.917-12.475 27.917-27.916v-153.891l-154.153 112.975c-24.601 17.972-58.014 17.972-82.528 0zm-27.916-69.443c0-30.795 25.037-55.833 55.833-55.833h335c30.796 0 55.833 25.038 55.833 55.833v223.334c0 30.795-25.037 55.833-55.833 55.833h-335c-30.796 0-55.833-25.038-55.833-55.833z"/></svg>