<svg height="500" viewBox="0 0 500 500" width="500" xmlns="http://www.w3.org/2000/svg"><path d="m0 0h500v500h-500z" fill="none"/><path d="m154.571 106.857h262.429c13.196 0 23.857 10.661 23.857 23.857v78.58l-42.794-42.794c-9.319-9.319-24.453-9.319-33.772 0l-102.362 102.437-54.723-54.723c-9.319-9.319-24.453-9.319-33.773 0l-42.719 42.794v-126.294c0-13.196 10.661-23.857 23.857-23.857zm310.143 23.857c0-26.317-21.397-47.714-47.714-47.714h-262.429c-26.317 0-47.714 21.397-47.714 47.714v155.072 11.928c0 26.318 21.397 47.715 47.714 47.715h59.643 202.786c26.317 0 47.714-21.397 47.714-47.715v-59.643zm-83.5 52.635 59.643 59.643v54.722c0 13.196-10.661 23.857-23.857 23.857h-174.008l27.361-27.361zm-136.135 102.437-35.785 35.785h-54.723c-13.196 0-23.857-10.661-23.857-23.857v-7.008l59.643-59.643zm-185.936-143.143c0-6.561-5.368-11.929-11.929-11.929-6.56 0-11.928 5.368-11.928 11.929v178.928c0 52.71 42.719 95.429 95.428 95.429h250.5c6.561 0 11.929-5.368 11.929-11.929 0-6.56-5.368-11.928-11.929-11.928h-250.5c-39.513 0-71.571-32.058-71.571-71.572zm172.964 35.786c9.882 0 17.893-8.011 17.893-17.893s-8.011-17.893-17.893-17.893-17.893 8.011-17.893 17.893 8.011 17.893 17.893 17.893z"/></svg>