<svg height="500" viewBox="0 0 500 500" width="500" xmlns="http://www.w3.org/2000/svg"><path d="m0 0h500v500h-500z" fill="none"/><path d="m380.843 92.184c-24.515-24.514-64.277-24.514-88.791 0l-161.743 161.744c-39.425 39.425-39.425 103.28 0 142.705s103.28 39.425 142.705 0l128.047-128.047c5.223-5.223 13.815-5.223 19.038 0s5.223 13.815 0 19.038l-128.047 128.047c-49.955 49.955-130.911 49.955-180.782 0s-49.955-130.827 0-180.782l161.744-161.743c35.044-35.045 91.823-35.045 126.867 0 35.045 35.044 35.045 91.823 0 126.867l-154.835 154.836c-23.757 23.756-62.844 21.566-83.905-4.633-17.943-22.409-16.174-54.757 4.128-75.059l127.963-127.879c5.223-5.223 13.815-5.223 19.038 0s5.223 13.816 0 19.039l-127.878 127.878c-10.615 10.615-11.541 27.463-2.19 39.172 10.951 13.647 31.337 14.827 43.721 2.443l154.92-154.835c24.514-24.514 24.514-64.276 0-88.791z"/></svg>