<svg height="500" viewBox="0 0 500 500" width="500" xmlns="http://www.w3.org/2000/svg"><path d="m0 0h500v500h-500z" fill="none"/><path d="m231.864 41.892c5.631-2.567 11.842-3.892 18.053-3.892s12.422 1.325 18.053 3.892l180.035 80.742c8.447 3.81 13.912 12.174 13.912 21.449s-5.465 17.639-13.912 21.448l-180.035 80.577c-5.714 2.567-11.842 3.892-18.053 3.892s-12.422-1.325-18.053-3.892l-180.034-80.66c-8.447-3.809-13.913-12.173-13.913-21.448s5.466-17.639 13.913-21.448zm18.053 22.608c-2.484 0-4.969.497-7.287 1.573l-173.824 77.927 173.906 77.927c2.319.993 4.721 1.573 7.288 1.573s4.969-.497 7.288-1.573l173.906-77.927-173.906-77.927c-2.402-1.076-4.886-1.573-7.371-1.573zm-198.087 270.052 38.011-17.06 32.379 14.492-53.414 24.016 173.906 77.927c2.319.993 4.721 1.573 7.288 1.573s4.969-.497 7.288-1.573l173.906-77.927-53.414-23.933 32.379-14.492 38.011 17.059c8.447 3.81 13.913 12.174 13.913 21.449s-5.466 17.639-13.913 21.448l-180.2 80.577c-5.714 2.567-11.842 3.892-18.053 3.892s-12.422-1.325-18.053-3.892l-180.034-80.66c-8.447-3.809-13.913-12.173-13.913-21.448s5.466-17.639 13.913-21.448zm38.011-123.06 32.379 14.492-53.414 24.016 173.906 77.927c2.319.993 4.721 1.573 7.288 1.573s4.969-.497 7.288-1.573l173.906-77.927-53.414-23.933 32.379-14.492 38.011 17.059c8.447 3.81 13.913 12.174 13.913 21.449s-5.466 17.639-13.913 21.448l-180.2 80.577c-5.714 2.567-11.842 3.892-18.053 3.892s-12.422-1.325-18.053-3.892l-180.034-80.66c-8.447-3.809-13.913-12.173-13.913-21.448s5.466-17.639 13.913-21.448z"/></svg>