<svg height="500" viewBox="0 0 500 500" width="500" xmlns="http://www.w3.org/2000/svg"><path d="m0 0h500v500h-500z" fill="none"/><path d="m23.087 55.088c-5.324-4.166-13.116-3.241-17.359 2.083-4.243 5.323-3.24 13.115 2.083 17.359l469.073 370.32c5.323 4.243 13.115 3.317 17.358-2.006 4.244-5.323 3.318-13.115-2.006-17.359zm447.162 204.37c2.546-6.095 2.546-12.884 0-18.979-11.496-27.542-35.644-67.66-71.75-101.143-36.26-33.792-86.177-62.183-148.514-62.183-39.501 0-74.064 11.418-103.304 28.391l21.062 16.587c24.071-12.421 51.536-20.29 82.242-20.29 54.314 0 98.521 24.688 131.773 55.548 33.251 30.86 55.47 67.892 65.731 92.58-7.097 17.05-19.981 40.118-38.189 62.877l19.365 15.276c19.75-24.688 33.714-49.685 41.584-68.664zm-398.943-87.642c-19.751 24.688-33.715 49.684-41.584 68.663-2.546 6.095-2.546 12.884 0 18.979 11.495 27.543 35.643 67.661 71.749 101.144 36.261 33.792 86.177 62.183 148.514 62.183 39.501 0 74.064-11.418 103.304-28.391l-21.062-16.587c-24.071 12.421-51.536 20.29-82.242 20.29-54.313 0-98.52-24.688-131.772-55.548s-55.471-67.892-65.732-92.58c7.098-17.05 19.982-40.118 38.189-62.877zm178.679 176.905c12.884 0 25.228-2.469 36.569-7.021l-23.839-18.824c-4.166.694-8.409 1.08-12.73 1.08-39.346 0-71.595-30.706-73.91-69.512l-23.839-18.825c-.694 4.629-1.003 9.412-1.003 14.273 0 54.545 44.207 98.752 98.752 98.752zm98.752-98.752c0-54.545-44.207-98.752-98.752-98.752-12.884 0-25.228 2.469-36.569 7.02l23.839 18.825c4.167-.694 8.41-1.08 12.73-1.08 39.347 0 71.595 30.706 73.91 69.512l23.839 18.825c.695-4.629 1.003-9.413 1.003-14.273z"/></svg>