<svg height="500" viewBox="0 0 500 500" width="500" xmlns="http://www.w3.org/2000/svg"><path d="m0 0h500v500h-500z" fill="none"/><path d="m309.467 71.6c-5.874-1.958-12.166 1.189-14.124 7.062l-111.872 335.614c-1.957 5.874 1.189 12.166 7.062 14.124 5.874 1.958 12.166-1.189 14.124-7.062l111.872-335.614c1.957-5.874-1.189-12.166-7.062-14.124zm-162.983 81.526c-4.125-4.614-11.187-5.034-15.802-.909l-100.684 89.498c-2.378 2.097-3.776 5.104-3.776 8.32s1.398 6.223 3.776 8.39l100.684 89.497c4.615 4.126 11.677 3.706 15.802-.908 4.125-4.615 3.706-11.677-.909-15.802l-91.315-81.177 91.245-81.107c4.615-4.125 5.034-11.187.909-15.802zm207.032 0c-4.125 4.615-3.706 11.677.909 15.802l91.245 81.107-91.245 81.107c-4.615 4.125-5.034 11.187-.909 15.802 4.125 4.614 11.187 5.034 15.802.909l100.684-89.498c2.378-2.097 3.776-5.174 3.776-8.39s-1.398-6.223-3.776-8.39l-100.684-89.498c-4.615-4.125-11.677-3.705-15.802.909z"/></svg>