<svg height="500" viewBox="0 0 500 500" width="500" xmlns="http://www.w3.org/2000/svg"><path d="m0 0h500v500h-500z" fill="none"/><path d="m129.786 52h21.214c7.779 0 14.143 6.364 14.143 14.143 0 7.778-6.364 14.143-14.143 14.143h-21.214c-27.314 0-49.5 22.186-49.5 49.5v21.214c0 7.779-6.365 14.143-14.143 14.143-7.779 0-14.143-6.364-14.143-14.143v-21.214c0-42.959 34.827-77.786 77.786-77.786zm-63.643 141.429c7.778 0 14.143 6.364 14.143 14.142v84.858c0 7.778-6.365 14.142-14.143 14.142-7.779 0-14.143-6.364-14.143-14.142v-84.858c0-7.778 6.364-14.142 14.143-14.142zm367.714 0c7.779 0 14.143 6.364 14.143 14.142v84.858c0 7.778-6.364 14.142-14.143 14.142-7.778 0-14.143-6.364-14.143-14.142v-84.858c0-7.778 6.365-14.142 14.143-14.142zm0-28.286c-7.778 0-14.143-6.364-14.143-14.143v-21.214c0-27.314-22.186-49.5-49.5-49.5h-21.214c-7.779 0-14.143-6.365-14.143-14.143 0-7.779 6.364-14.143 14.143-14.143h21.214c42.959 0 77.786 34.827 77.786 77.786v21.214c0 7.779-6.364 14.143-14.143 14.143zm14.143 183.857v21.214c0 42.959-34.827 77.786-77.786 77.786h-21.214c-7.779 0-14.143-6.364-14.143-14.143 0-7.778 6.364-14.143 14.143-14.143h21.214c27.314 0 49.5-22.186 49.5-49.5v-21.214c0-7.779 6.365-14.143 14.143-14.143 7.779 0 14.143 6.364 14.143 14.143zm-367.714 0v21.214c0 27.314 22.186 49.5 49.5 49.5h21.214c7.779 0 14.143 6.365 14.143 14.143 0 7.779-6.364 14.143-14.143 14.143h-21.214c-42.959 0-77.786-34.827-77.786-77.786v-21.214c0-7.779 6.364-14.143 14.143-14.143 7.778 0 14.143 6.364 14.143 14.143zm127.285 99c-7.778 0-14.142-6.364-14.142-14.143 0-7.778 6.364-14.143 14.142-14.143h84.858c7.778 0 14.142 6.365 14.142 14.143 0 7.779-6.364 14.143-14.142 14.143zm-14.142-381.857c0-7.779 6.364-14.143 14.142-14.143h84.858c7.778 0 14.142 6.364 14.142 14.143 0 7.778-6.364 14.143-14.142 14.143h-84.858c-7.778 0-14.142-6.365-14.142-14.143z"/></svg>