<svg height="500" viewBox="0 0 500 500" width="500" xmlns="http://www.w3.org/2000/svg"><path d="m0 0h500v500h-500z" fill="none"/><path d="m107.143 78.571c-15.804 0-28.572 12.768-28.572 28.572v285.714c0 15.804 12.768 28.572 28.572 28.572h285.714c15.804 0 28.572-12.768 28.572-28.572v-285.714c0-15.804-12.768-28.572-28.572-28.572zm-57.143 28.572c0-31.518 25.625-57.143 57.143-57.143h285.714c31.518 0 57.143 25.625 57.143 57.143v285.714c0 31.518-25.625 57.143-57.143 57.143h-285.714c-31.518 0-57.143-25.625-57.143-57.143zm92.857 57.143c0-11.835 9.594-21.429 21.429-21.429 11.834 0 21.428 9.594 21.428 21.429 0 11.834-9.594 21.428-21.428 21.428-11.835 0-21.429-9.594-21.429-21.428zm78.572 0c0-7.857 6.428-14.286 14.285-14.286h114.286c7.857 0 14.286 6.429 14.286 14.286s-6.429 14.285-14.286 14.285h-114.286c-7.857 0-14.285-6.428-14.285-14.285zm0 85.714c0-7.857 6.428-14.286 14.285-14.286h114.286c7.857 0 14.286 6.429 14.286 14.286s-6.429 14.286-14.286 14.286h-114.286c-7.857 0-14.285-6.429-14.285-14.286zm0 85.714c0-7.857 6.428-14.285 14.285-14.285h114.286c7.857 0 14.286 6.428 14.286 14.285s-6.429 14.286-14.286 14.286h-114.286c-7.857 0-14.285-6.429-14.285-14.286zm-57.143-64.285c-11.835 0-21.429-9.594-21.429-21.429s9.594-21.429 21.429-21.429c11.834 0 21.428 9.594 21.428 21.429s-9.594 21.429-21.428 21.429zm-21.429 64.285c0-11.834 9.594-21.428 21.429-21.428 11.834 0 21.428 9.594 21.428 21.428 0 11.835-9.594 21.429-21.428 21.429-11.835 0-21.429-9.594-21.429-21.429z"/></svg>