<svg xmlns="http://www.w3.org/2000/svg" viewBox="0 0 640 512"><!--! Font Awesome Pro 6.4.0 by @fontawesome - https://fontawesome.com License - https://fontawesome.com/license (Commercial License) Copyright 2023 Fonticons, Inc. --><path d="M0 128C0 92.7 28.7 64 64 64c170.7 0 341.4 0 512 0c35.3 0 64 28.7 64 64c0 46.3 0 92.5 0 138.8c-9.1-12.9-19.9-24.5-32-34.5c0-34.8 0-69.5 0-104.3c0-17.7-14.3-32-32-32c-170.7 0-341.4 0-512 0c-17.7 0-32 14.3-32 32c0 85.4 0 170.7 0 256c0 17.7 14.3 32 32 32c87.6 0 175.1 0 262.6 0c3.2 11.2 7.4 21.9 12.6 32c-91.7 0-183.5 0-275.2 0c-35.3 0-64-28.7-64-64c0-85.4 0-170.7 0-256zm96 48c0-8.8 7.2-16 16-16s16 7.2 16 16c0 53.3 0 106.7 0 160c0 8.8-7.2 16-16 16s-16-7.2-16-16c0-53.3 0-106.7 0-160zM352 368c0-79.5 64.5-144 144-144s144 64.5 144 144s-64.5 144-144 144s-144-64.5-144-144zm32 0c0 61.9 50.1 112 112 112s112-50.1 112-112s-50.1-112-112-112s-112 50.1-112 112zm48-38.4c0-23 18.6-41.6 41.6-41.6c13.5 0 27 0 40.5 0c25.4 0 45.9 20.6 45.9 45.9c0 17.1-9.5 32.7-24.5 40.6c-7.9 4.2-15.8 8.3-23.7 12.5c-1.4 7.4-7.9 12.9-15.7 12.9c-8.8 0-16-7.2-16-16c0-2.3 0-4.5 0-6.8c0-5.9 3.3-11.4 8.6-14.2c10.7-5.6 21.3-11.2 32-16.8c4.6-2.4 7.4-7.2 7.4-12.3c0-7.7-6.2-13.9-13.9-13.9c-13.5 0-27 0-40.5 0c-5.3 0-9.6 4.3-9.6 9.6c0 2.1 0 4.3 0 6.4c0 8.8-7.2 16-16 16s-16-7.2-16-16l0-6.4zM480 432c0-8.8 7.2-16 16-16s16 7.2 16 16s-7.2 16-16 16s-16-7.2-16-16z"/></svg>