<svg height="500" viewBox="0 0 500 500" width="500" xmlns="http://www.w3.org/2000/svg"><path d="m0 0h500v500h-500z" fill="none"/><path d="m437.733 132.667c12.98 0 23.467 10.486 23.467 23.466v187.734c0 12.98-10.487 23.466-23.467 23.466h-375.466c-12.98 0-23.467-10.486-23.467-23.466v-187.734c0-12.98 10.487-23.466 23.467-23.466zm-375.466-23.467c-25.887 0-46.934 21.047-46.934 46.933v187.734c0 25.886 21.047 46.933 46.934 46.933h375.466c25.887 0 46.934-21.047 46.934-46.933v-187.734c0-25.886-21.047-46.933-46.934-46.933zm23.466 82.133c0 6.454 5.28 11.734 11.734 11.734h11.733v93.866h-11.733c-6.454 0-11.734 5.28-11.734 11.734 0 6.453 5.28 11.733 11.734 11.733h46.933c6.453 0 11.733-5.28 11.733-11.733 0-6.454-5.28-11.734-11.733-11.734h-11.733v-105.6c0-6.453-5.28-11.733-11.734-11.733h-23.466c-6.454 0-11.734 5.28-11.734 11.733zm123.714 20.094c6.893-8.287 19.213-9.24 27.28-2.127 7.92 6.967 8.726 18.993 1.833 26.913l-56.173 64.754c-3.007 3.446-3.74 8.36-1.834 12.54 1.907 4.18 6.087 6.893 10.707 6.893h70.4c6.453 0 11.733-5.28 11.733-11.733 0-6.454-5.28-11.734-11.733-11.734h-44.66l39.307-45.393c15.326-17.747 13.493-44.513-4.107-59.987-18.04-15.766-45.467-13.566-60.793 4.767l-9.094 10.927c-4.18 4.986-3.446 12.393 1.467 16.5 4.913 4.106 12.393 3.446 16.5-1.467l9.093-10.927z"/></svg>