<svg height="500" viewBox="0 0 500 500" width="500" xmlns="http://www.w3.org/2000/svg"><path d="m0 0h500v500h-500z" fill="none"/><path d="m200.75 188.438c0-61.178 49.635-110.813 110.812-110.813 61.178 0 110.813 49.635 110.813 110.813 0 61.177-49.635 110.812-110.813 110.812-8.541 0-16.929-1-24.932-2.77-4.156-.924-8.465.308-11.466 3.309l-24.087 24.086h-38.015c-6.771 0-12.312 5.541-12.312 12.313v36.937h-36.938c-6.771 0-12.312 5.541-12.312 12.313v36.937h-73.875v-62.64l125.28-125.28c3.232-3.232 4.386-8.08 3.001-12.466-3.386-10.619-5.156-21.855-5.156-33.628zm110.812-135.438c-74.798 0-135.437 60.639-135.437 135.438 0 11.619 1.462 22.932 4.232 33.782l-123.74 123.741c-2.309 2.308-3.617 5.463-3.617 8.695v80.032c0 6.771 5.541 12.312 12.312 12.312h98.5c6.772 0 12.313-5.541 12.313-12.312v-36.938h36.937c6.772 0 12.313-5.541 12.313-12.312v-36.938h30.781c3.232 0 6.387-1.308 8.696-3.617l23.086-23.086c7.695 1.385 15.544 2.078 23.624 2.078 74.799 0 135.438-60.639 135.438-135.437 0-74.799-60.639-135.438-135.438-135.438zm24.626 129.281c10.2 0 18.468-8.268 18.468-18.469 0-10.2-8.268-18.468-18.468-18.468-10.201 0-18.469 8.268-18.469 18.468 0 10.201 8.268 18.469 18.469 18.469z"/></svg>