<svg height="500" viewBox="0 0 500 500" width="500" xmlns="http://www.w3.org/2000/svg"><path d="m0 0h500v500h-500z" fill="none"/><path d="m346.838 265.481c-13.262-5.661-28.626-1.941-37.763 9.218l-26.847 32.83c-37.197-21.59-68.248-52.641-89.838-89.838l32.749-26.766c11.159-9.137 14.96-24.501 9.219-37.763l-38.814-90.566c-6.065-14.232-21.348-22.156-36.47-18.922l-90.566 19.407c-14.878 3.154-25.552 16.335-25.552 31.618 0 191.402 148.383 348.114 336.388 361.375 3.639.243 7.359.485 11.079.647h.08c4.933.162 9.785.323 14.798.323 15.283 0 28.464-10.674 31.618-25.552l19.407-90.566c3.234-15.122-4.69-30.405-18.922-36.47l-90.566-38.814zm58.14 165.606c-185.661-.161-336.146-150.647-336.146-336.388 0-3.073 2.102-5.661 5.094-6.308l90.566-19.407c2.992-.647 6.065.971 7.278 3.801l38.814 90.566c1.132 2.669.404 5.741-1.86 7.52l-32.83 26.847c-9.784 8.005-12.372 21.994-5.984 32.992 23.855 41.159 58.14 75.445 99.219 99.218 10.997 6.388 24.986 3.801 32.992-5.984l26.846-32.83c1.86-2.264 4.933-2.992 7.52-1.86l90.566 38.814c2.831 1.213 4.448 4.286 3.801 7.278l-19.407 90.566c-.647 2.992-3.315 5.095-6.307 5.095-.081 0-.162 0-.243 0z"/></svg>