<svg height="500" viewBox="0 0 500 500" width="500" xmlns="http://www.w3.org/2000/svg"><path d="m0 0h500v500h-500z" fill="none"/><path d="m52 108.571c0-15.621 12.664-28.285 28.286-28.285 15.621 0 28.285 12.664 28.285 28.285 0 15.622-12.664 28.286-28.285 28.286-15.622 0-28.286-12.664-28.286-28.286zm84.857 0c0-31.243-25.328-56.571-56.571-56.571-31.244 0-56.572 25.328-56.572 56.571 0 31.244 25.328 56.572 56.572 56.572 31.243 0 56.571-25.328 56.571-56.572zm56.572 0c0 7.779 6.364 14.143 14.142 14.143h254.572c7.778 0 14.143-6.364 14.143-14.143 0-7.778-6.365-14.142-14.143-14.142h-254.572c-7.778 0-14.142 6.364-14.142 14.142zm0 141.429c0 7.779 6.364 14.143 14.142 14.143h254.572c7.778 0 14.143-6.364 14.143-14.143s-6.365-14.143-14.143-14.143h-254.572c-7.778 0-14.142 6.364-14.142 14.143zm0 141.429c0 7.778 6.364 14.142 14.142 14.142h254.572c7.778 0 14.143-6.364 14.143-14.142 0-7.779-6.365-14.143-14.143-14.143h-254.572c-7.778 0-14.142 6.364-14.142 14.143zm-113.143-113.143c-15.622 0-28.286-12.664-28.286-28.286s12.664-28.286 28.286-28.286c15.621 0 28.285 12.664 28.285 28.286s-12.664 28.286-28.285 28.286zm0-84.857c-31.244 0-56.572 25.327-56.572 56.571s25.328 56.571 56.572 56.571c31.243 0 56.571-25.327 56.571-56.571s-25.328-56.571-56.571-56.571zm14.143-84.858c0-7.81-6.332-14.142-14.143-14.142s-14.143 6.332-14.143 14.142c0 7.811 6.332 14.143 14.143 14.143s14.143-6.332 14.143-14.143zm-42.429 282.858c0-15.622 12.664-28.286 28.286-28.286 15.621 0 28.285 12.664 28.285 28.286 0 15.621-12.664 28.285-28.285 28.285-15.622 0-28.286-12.664-28.286-28.285zm84.857 0c0-31.244-25.328-56.572-56.571-56.572-31.244 0-56.572 25.328-56.572 56.572 0 31.243 25.328 56.571 56.572 56.571 31.243 0 56.571-25.328 56.571-56.571z"/></svg>