<svg height="500" viewBox="0 0 500 500" width="500" xmlns="http://www.w3.org/2000/svg"><path d="m0 0h500v500h-500z" fill="none"/><path d="m200.426 179.688 49.527-102.037 49.526 102.037c3.71 7.663 10.97 12.986 19.439 14.277l110.83 16.374-80.501 79.694c-5.969 5.888-8.711 14.358-7.259 22.666l18.955 112.523-98.81-52.833c-7.583-4.033-16.697-4.033-24.36 0l-98.892 52.833 18.956-112.523c1.371-8.308-1.291-16.697-7.26-22.666l-80.419-79.694 110.829-16.374c8.469-1.21 15.729-6.614 19.439-14.277zm160.033 274.492c6.534 3.468 14.439 2.984 20.408-1.372 5.969-4.355 9.034-11.696 7.824-18.955l-21.214-125.429 89.696-88.889c5.243-5.163 7.017-12.826 4.759-19.763-2.259-6.936-8.308-12.018-15.568-13.147l-123.654-18.23-55.334-113.975c-3.227-6.695-10.002-10.889-17.423-10.889s-14.197 4.194-17.423 10.889l-55.334 113.975-123.574 18.31c-7.26 1.049-13.309 6.131-15.568 13.148-2.258 7.018-.403 14.6 4.759 19.762l89.616 88.809-21.134 125.429c-1.21 7.259 1.775 14.6 7.824 18.955 6.05 4.356 13.955 4.84 20.408 1.372l110.506-59.045 110.507 59.045z"/></svg>