<svg height="500" viewBox="0 0 500 500" width="500" xmlns="http://www.w3.org/2000/svg"><path d="m0 0h500v500h-500z" fill="none"/><path d="m250 50c7.857 0 14.286 6.429 14.286 14.286v159.732l135.178-86.072c6.697-4.196 15.447-2.232 19.732 4.375 4.286 6.608 2.233 15.447-4.375 19.733l-138.214 87.946 138.214 87.946c6.697 4.197 8.661 13.036 4.375 19.733-4.285 6.696-13.035 8.66-19.732 4.375l-135.178-86.072v159.732c0 7.857-6.429 14.286-14.286 14.286s-14.286-6.429-14.286-14.286v-159.732l-135.178 86.072c-6.697 4.196-15.447 2.232-19.732-4.375-4.286-6.608-2.233-15.447 4.375-19.733l138.214-87.946-138.214-87.946c-6.697-4.197-8.661-13.036-4.375-19.733 4.285-6.696 13.035-8.66 19.732-4.375l135.178 86.072v-159.732c0-7.857 6.429-14.286 14.286-14.286z"/></svg>