<svg height="500" viewBox="0 0 500 500" width="500" xmlns="http://www.w3.org/2000/svg"><path d="m0 0h500v500h-500z" fill="none"/><path d="m136.429 159.143c0-25.057 20.371-45.429 45.428-45.429s45.429 20.372 45.429 45.429v2.413c0 18.598-1.704 37.124-5.111 55.366l-89.296 24.347c-24.701 6.743-41.879 29.174-41.879 54.798v65.73c0 26.05 21.153 47.203 47.203 47.203 17.036 0 32.794-9.228 41.099-24.063l19.236-34.142c14.835-26.335 26.405-54.302 34.426-83.404l5.111-18.243c1.278-4.614 2.484-9.227 3.549-13.912l89.083-24.276-34.072 68.143c-1.774 3.549-1.561 7.737.497 11.073 2.059 3.336 5.75 5.395 9.654 5.395h113.571c6.247 0 11.357-5.111 11.357-11.358 0-6.246-5.11-11.357-11.357-11.357h-95.187l37.195-74.389c1.987-3.975 1.49-8.802-1.349-12.28s-7.453-4.969-11.783-3.762l-102.924 27.896c2.413-16.113 3.691-32.439 3.691-48.765v-2.413c0-37.621-30.522-68.143-68.143-68.143-37.62 0-68.143 30.522-68.143 68.143v34.071c0 6.247 5.111 11.357 11.357 11.357 6.247 0 11.358-5.11 11.358-11.357zm2.413 104.06 77.654-21.153-.283.994-5.111 18.242c-7.595 27.328-18.456 53.663-32.368 78.364l-19.236 34.143c-4.33 7.737-12.493 12.493-21.366 12.493-13.486 0-24.489-10.932-24.489-24.489v-65.73c0-15.332 10.293-28.818 25.128-32.864zm-104.628 77.654c-6.246 0-11.357 5.111-11.357 11.357 0 6.247 5.111 11.357 11.357 11.357h22.715c6.246 0 11.357-5.11 11.357-11.357 0-6.246-5.111-11.357-11.357-11.357zm227.143 0c-6.246 0-11.357 5.111-11.357 11.357 0 6.247 5.111 11.357 11.357 11.357h204.429c6.246 0 11.357-5.11 11.357-11.357 0-6.246-5.111-11.357-11.357-11.357z"/></svg>