<svg height="500" viewBox="0 0 500 500" width="500" xmlns="http://www.w3.org/2000/svg"><path d="m0 0h500v500h-500z" fill="none"/><path d="m166.57422 65.859375c-22.89656.127341-41.05769.588669-56.98242 3.513672-15.924732 2.925003-30.245743 8.974937-41.152347 19.880859-12.471232 12.471914-18.431814 29.153144-20.986328 48.154294-2.554514 19.00116-2.443359 41.44671-2.443359 70.90821v124.99414c0 29.461-.111152 51.90707 2.443359 70.9082s8.515368 35.68197 20.986328 48.1543v.002c12.471936 12.47194 29.154897 18.43167 48.156247 20.98633 19.00136 2.55466 41.44721 2.44336 70.90821 2.44336h124.99218c29.461 0 51.90707.11131 70.90821-2.44336 19.00113-2.55467 35.68247-8.51451 48.15429-20.98633h.002c12.47155-12.47223 18.42971-29.15502 20.98437-48.15625 2.55467-19.00123 2.44531-41.4472 2.44531-70.9082v-124.99419c0-29.4615.10936-51.90695-2.44531-70.90821-2.55467-19.00125-8.5145-35.68247-20.98633-48.154294-10.90638-10.906339-25.22765-16.955856-41.15238-19.880859s-34.08441-3.386331-56.98047-3.513672l-.19336 35.000005c22.41394.12465 39.17754.7952 50.85156 2.93945 11.67403 2.14424 17.62591 5.10246 22.72657 10.20312 5.83317 5.83318 9.02529 13.03407 11.04687 28.07032 2.02158 15.03624 2.13281 36.78264 2.13281 66.24414v124.99414c0 29.461-.11122 51.20787-2.13281 66.24414-2.02158 15.03626-5.21342 22.23654-11.04687 28.07031-5.83318 5.83318-13.0342 9.02725-28.07032 11.04883-15.03611 2.02158-36.78314 2.13086-66.24414 2.13086h-124.99218c-29.461 0-51.20775-.10927-66.24414-2.13086-15.03472-2.02136-22.2376-5.21506-28.070317-11.04688l-.002-.002c-5.831747-5.83328-9.023613-13.03558-11.044875-28.07026-2.021489-15.03637-2.132812-36.78314-2.132812-66.24414v-124.99414c0-29.4615.111326-51.2078 2.132812-66.24414 2.021486-15.03635 5.214108-22.23723 11.046875-28.07032 5.101158-5.10042 11.053357-8.05903 22.726567-10.20312 11.67402-2.14425 28.43712-2.8148 50.85156-2.93945z"/><path d="m308.55273 212.13477a17.5 17.5 0 0 0 -7.99609 4.25781l-77.33984 72.18359-23.77344-22.1875a17.5 17.5 0 0 0 -24.73438.85352 17.5 17.5 0 0 0 .85352 24.73437l35.71289 33.33203a17.50175 17.50175 0 0 0 23.88086 0l89.28125-83.33007a17.5 17.5 0 0 0 .85352-24.73438 17.5 17.5 0 0 0 -16.73829-5.10937z"/><path d="m197.91992 24.195312c-26.71545 0-48.74804 22.032598-48.74805 48.748047v20.832032c.00001 26.715449 22.0326 48.748049 48.74805 48.748049h104.16016c26.715 0 48.74804-22.03192 48.74804-48.748049v-20.832032c0-26.716125-22.03304-48.748046-48.74804-48.748047zm0 35h104.16016c7.799 0 13.74804 5.948173 13.74804 13.748047v20.832032c0 7.799869-5.94904 13.748049-13.74804 13.748049h-104.16016c-7.80055 0-13.74804-5.9475-13.74805-13.748049v-20.832032c0-7.80055 5.9475-13.748046 13.74805-13.748047z"/></svg>