<svg height="500" viewBox="0 0 500 500" width="500" xmlns="http://www.w3.org/2000/svg"><path d="m0 0h500v500h-500z" fill="none"/><path d="m94.857 94.857c-14.302 0-25.857 11.555-25.857 25.857v51.715h362v-51.715c0-14.302-11.555-25.857-25.857-25.857zm-25.857 103.429v90.5h168.071v-90.5zm193.929 0v90.5h168.071v-90.5zm-25.858 116.357h-168.071v64.643c0 14.302 11.555 25.857 25.857 25.857h142.214zm25.858 90.5h142.214c14.302 0 25.857-11.555 25.857-25.857v-64.643h-168.071zm-219.786-284.429c0-28.523 23.19-51.714 51.714-51.714h310.286c28.524 0 51.714 23.191 51.714 51.714v258.572c0 28.523-23.19 51.714-51.714 51.714h-310.286c-28.524 0-51.714-23.191-51.714-51.714z"/></svg>