<svg height="500" viewBox="0 0 500 500" width="500" xmlns="http://www.w3.org/2000/svg"><path d="m0 0h500v500h-500z" fill="none"/><path d="m439.507 97.861 8.519 8.519c8.948 8.948 8.948 23.48 0 32.357l-19.114 19.185-40.804-40.804 18.899-19.185c8.948-9.02 23.48-9.092 32.5-.072zm-169.373 138.663 101.867-103.156 40.732 40.733-102.439 102.511c-3.15 3.15-7.159 5.298-11.526 6.228l-44.025 9.235 9.234-44.169c.931-4.295 3.007-8.232 6.157-11.382zm120.623-154.698-136.945 138.591c-6.156 6.228-10.452 14.174-12.241 22.764l-12.886 61.35c-.787 3.794.358 7.731 3.078 10.451 2.721 2.721 6.658 3.938 10.452 3.079l61.206-12.814c8.734-1.862 16.68-6.157 22.979-12.456l137.876-137.804c17.896-17.896 17.896-46.889 0-64.785l-8.519-8.591c-17.968-17.968-47.104-17.896-65 .215zm-322.64 75.094c-25.27 0-45.815 20.545-45.815 45.815v183.261c0 25.27 20.545 45.815 45.815 45.815h320.707c25.27 0 45.815-20.545 45.815-45.815v-125.992c0-6.299-5.154-11.454-11.454-11.454s-11.454 5.155-11.454 11.454v125.992c0 12.671-10.237 22.908-22.907 22.908h-320.707c-12.671 0-22.907-10.237-22.907-22.908v-183.261c0-12.671 10.236-22.907 22.907-22.907h171.807c6.3 0 11.454-5.155 11.454-11.454 0-6.3-5.154-11.454-11.454-11.454zm45.815 154.626c9.489 0 17.181-7.692 17.181-17.18 0-9.489-7.692-17.181-17.181-17.181-9.488 0-17.18 7.692-17.18 17.181 0 9.488 7.692 17.18 17.18 17.18zm85.904-17.18c0-9.489-7.692-17.181-17.181-17.181-9.488 0-17.18 7.692-17.18 17.181 0 9.488 7.692 17.18 17.18 17.18 9.489 0 17.181-7.692 17.181-17.18z"/></svg>