<svg height="500" viewBox="0 0 500 500" width="500" xmlns="http://www.w3.org/2000/svg"><path d="m0 0h500v500h-500z" fill="none"/><path d="m62 132.5c-12.998 0-23.5 10.502-23.5 23.5v188c0 12.998 10.502 23.5 23.5 23.5h376c12.998 0 23.5-10.502 23.5-23.5v-188c0-12.998-10.502-23.5-23.5-23.5zm-47 23.5c0-25.923 21.077-47 47-47h376c25.923 0 47 21.077 47 47v188c0 25.923-21.077 47-47 47h-376c-25.923 0-47-21.077-47-47zm94 35.25v117.5c0 6.462-5.287 11.75-11.75 11.75s-11.75-5.288-11.75-11.75v-117.5c0-6.463 5.287-11.75 11.75-11.75s11.75 5.287 11.75 11.75z"/></svg>