<svg height="500" viewBox="0 0 500 500" width="500" xmlns="http://www.w3.org/2000/svg"><path d="m0 0h500v500h-500z" fill="none"/><path d="m250 412.75c12.134 0 29.353-10.462 44.974-41.632 7.193-14.386 13.224-31.751 17.51-51.368h-124.968c4.286 19.617 10.317 36.982 17.51 51.368 15.621 31.17 32.84 41.632 44.974 41.632zm-66.626-116.25h133.252c2.034-14.677 3.124-30.298 3.124-46.5s-1.09-31.823-3.124-46.5h-133.252c-2.034 14.677-3.124 30.298-3.124 46.5s1.09 31.823 3.124 46.5zm4.142-116.25h124.968c-4.286-19.617-10.317-36.982-17.51-51.368-15.621-31.169-32.84-41.632-44.974-41.632s-29.353 10.463-44.974 41.632c-7.193 14.386-13.224 31.751-17.51 51.368zm152.578 23.25c1.889 14.895 2.906 30.443 2.906 46.5s-1.017 31.605-2.906 46.5h65.972c4.359-14.749 6.757-30.37 6.757-46.5s-2.325-31.751-6.757-46.5zm57.035-23.25c-18.818-39.598-53.112-70.404-95.107-84.499 15.258 20.561 27.319 49.987 34.294 84.499h60.886zm-233.299 0c6.975-34.584 19.036-63.938 34.293-84.499-42.068 14.095-76.434 44.901-95.179 84.499h60.813zm-69.75 23.25c-4.36 14.749-6.757 30.37-6.757 46.5s2.325 31.751 6.757 46.5h65.826c-1.889-14.895-2.906-30.443-2.906-46.5s1.017-31.605 2.906-46.5h-65.899zm207.869 200.749c41.996-14.168 76.289-44.901 95.107-84.499h-60.813c-6.975 34.584-19.036 63.938-34.294 84.499zm-103.898 0c-15.258-20.561-27.246-49.987-34.294-84.499h-60.813c18.818 39.598 53.111 70.404 95.107 84.499zm51.949 31.751c-102.725 0-186-83.275-186-186s83.275-186 186-186 186 83.275 186 186-83.275 186-186 186z"/></svg>