<svg height="90" viewBox="0 0 90 90" width="90" xmlns="http://www.w3.org/2000/svg"><path d="m0 0h90v90h-90z" fill="none"/><path d="m73.399 80.7-7.95 8.328c-1.137 1.435-2.841 1.149-4.26 0l-28.116-29.006v26.996c0 1.722-1.137 2.871-3.125 2.871h-11.359c-1.704 0-2.84-1.149-2.84-2.871v-84.146c0-1.725 1.136-2.872 2.84-2.872h11.359c1.988 0 3.125 1.149 3.125 2.872v27.57h38.337c1.704 0 2.839 1.148 2.839 2.871v11.775c0 1.724-1.135 2.871-2.839 2.871h-26.126l28.115 28.721c1.135 1.149 1.135 2.584 0 4.02z" fill="#36a635"/></svg>