<?xml version="1.0" encoding="UTF-8"?>
<!DOCTYPE svg PUBLIC "-//W3C//DTD SVG 1.1//EN" "http://www.w3.org/Graphics/SVG/1.1/DTD/svg11.dtd">
<svg version="1.1" xmlns="http://www.w3.org/2000/svg" xmlns:xlink="http://www.w3.org/1999/xlink" width="300" height="300" viewBox="0 0 300 150">
    <g id="surface1">
        <path style="stroke:none;fill-rule:nonzero;fill:rgb(21.176471%,65.098039%,20.784314%);fill-opacity:1;" d="M 70.933594 97.808594 L 61.289062 107.796875 C 59.910156 109.519531 57.84375 109.175781 56.121094 107.796875 L 22.015625 73.003906 L 22.015625 105.386719 C 22.015625 107.453125 20.636719 108.832031 18.226562 108.832031 L 4.445312 108.832031 C 2.378906 108.832031 1 107.453125 1 105.386719 L 1 4.445312 C 1 2.378906 2.378906 1 4.445312 1 L 18.226562 1 C 20.636719 1 22.015625 2.378906 22.015625 4.445312 L 22.015625 37.519531 L 68.523438 37.519531 C 70.589844 37.519531 71.96875 38.894531 71.96875 40.964844 L 71.96875 55.085938 C 71.96875 57.15625 70.589844 58.53125 68.523438 58.53125 L 36.828125 58.53125 L 70.933594 92.984375 C 72.3125 94.363281 72.3125 96.085938 70.933594 97.808594 Z M 70.933594 97.808594 "/>
        <path style="stroke:none;fill-rule:nonzero;fill:rgb(21.176471%,65.098039%,20.784314%);fill-opacity:1;" d="M 147.417969 73.003906 C 147.417969 74.378906 147.070312 76.101562 147.070312 77.480469 C 146.726562 79.546875 145.347656 80.582031 143.28125 80.582031 L 97.117188 80.582031 C 99.53125 86.78125 105.386719 90.917969 113.308594 90.917969 C 118.476562 90.917969 122.957031 88.851562 126.058594 85.40625 C 127.433594 83.683594 128.8125 83.335938 130.878906 84.371094 L 141.558594 90.917969 C 143.28125 92.292969 143.972656 94.015625 142.59375 95.738281 C 136.046875 104.695312 125.367188 110.210938 112.964844 110.210938 C 91.605469 110.210938 76.101562 94.363281 76.101562 73.347656 C 76.101562 51.988281 90.917969 35.796875 111.585938 35.796875 C 132.945312 35.796875 147.417969 51.644531 147.417969 73.003906 Z M 126.746094 65.421875 C 124.679688 58.878906 119.167969 55.085938 111.933594 55.085938 C 104.007812 55.085938 98.496094 58.878906 96.773438 65.421875 Z M 126.746094 65.421875 "/>
        <path style="stroke:none;fill-rule:nonzero;fill:rgb(21.176471%,65.098039%,20.784314%);fill-opacity:1;" d="M 217.007812 64.046875 L 217.007812 105.386719 C 217.007812 107.453125 215.972656 108.832031 213.5625 108.832031 L 200.125 108.832031 C 198.058594 108.832031 196.679688 107.453125 196.679688 105.386719 L 196.679688 101.253906 C 191.167969 107.453125 184.96875 110.210938 177.042969 110.210938 C 161.542969 110.210938 151.207031 101.597656 151.207031 88.160156 C 151.207031 74.035156 161.542969 65.078125 176.699219 65.078125 L 196.679688 65.078125 L 196.679688 63.355469 C 196.679688 58.53125 191.859375 55.085938 184.96875 55.085938 C 180.488281 55.085938 176.011719 56.808594 173.945312 59.222656 C 172.566406 60.601562 171.875 61.632812 169.808594 61.632812 L 156.71875 61.632812 C 154.304688 61.632812 152.929688 60.253906 153.273438 58.1875 C 156.027344 44.753906 167.398438 35.796875 184.625 35.796875 C 204.261719 35.796875 217.007812 47.164062 217.007812 64.046875 Z M 196.679688 82.304688 L 196.679688 79.890625 L 179.800781 79.890625 C 174.289062 79.890625 171.875 82.992188 171.875 86.78125 C 171.875 90.574219 174.976562 93.671875 182.210938 93.671875 C 190.824219 93.671875 196.679688 88.851562 196.679688 82.304688 Z M 196.679688 82.304688 "/>
        <path style="stroke:none;fill-rule:nonzero;fill:rgb(21.176471%,65.098039%,20.784314%);fill-opacity:1;" d="M 299 73.347656 C 299 94.015625 284.53125 110.210938 265.238281 110.210938 C 257.316406 110.210938 250.425781 107.453125 246.289062 102.285156 L 246.289062 135.359375 C 246.289062 137.425781 244.914062 138.804688 242.5 138.804688 L 228.71875 138.804688 C 226.652344 138.804688 225.273438 137.425781 225.273438 135.359375 L 225.273438 40.964844 C 225.273438 38.894531 226.652344 37.519531 228.71875 37.519531 L 242.15625 37.519531 C 244.566406 37.519531 245.601562 38.894531 245.601562 40.964844 L 245.601562 45.097656 C 250.078125 39.242188 256.96875 35.796875 264.894531 35.796875 C 284.1875 35.796875 299 52.332031 299 73.347656 Z M 277.984375 73.347656 C 277.984375 63.699219 271.4375 56.464844 262.136719 56.464844 C 252.148438 56.464844 245.257812 63.699219 245.257812 73.347656 C 245.257812 82.648438 252.148438 89.882812 262.136719 89.882812 C 271.4375 89.882812 277.984375 82.648438 277.984375 73.347656 Z M 277.984375 73.347656 "/>
    </g>
</svg>
