<svg viewBox="0 0 120 120" width="13" xmlns="http://www.w3.org/2000/svg"><path d="m0 0h120v120h-120z" fill="none"/><path d="m46.195 63.066c-1.46 0-2.64-1.377-2.64-3.066 0-1.699 1.18-3.066 2.64-3.066h34.89c1.46 0 2.64 1.377 2.64 3.066 0 1.699-1.18 3.066-2.64 3.066zm7.15 50.782c1.74 0 3.15 1.377 3.15 3.076s-1.41 3.076-3.15 3.076h-39.44c-2.02 0-3.85-.801-5.18-2.1-1.378-1.339-2.152-3.16-2.15-5.058v-105.684c0-1.972.82-3.76 2.15-5.058 1.371-1.346 3.236-2.102 5.18-2.1h90.02c2.02 0 3.85.811 5.18 2.1 1.378 1.339 2.151 3.16 2.15 5.058v48.965c0 1.699-1.41 3.076-3.15 3.076s-3.15-1.377-3.15-3.076v-48.965c0-.273-.12-.527-.31-.703-.19-.185-.44-.303-.72-.303h-90.02c-.28 0-.54.118-.73.293-.18.196-.3.44-.3.713v105.674c0 .273.12.527.3.703.19.186.45.303.73.303h39.44zm51.93-41.25c-.51-.479-1.1-.703-1.78-.694-.68.01-1.26.264-1.74.762l-3.91 3.975 10.97 10.341 3.95-4.013c.47-.469.67-1.074.66-1.739-.01-.654-.25-1.25-.73-1.699zm-20.49 38.74c-1.45.449-2.89.918-4.33 1.377-1.45.469-2.89.947-4.33 1.416-3.41 1.094-5.32 1.699-5.72 1.807-.39.117-.16-1.446.7-4.698l2.71-10.205 20.55-20.879 10.96 10.303zm-38.59-26.426c-1.46 0-2.65-1.396-2.65-3.115s1.19-3.115 2.65-3.115h17.19c1.46 0 2.65 1.396 2.65 3.115s-1.19 3.115-2.65 3.115zm0-43.642c-1.46 0-2.64-1.377-2.64-3.067 0-1.699 1.18-3.066 2.64-3.066h34.89c1.46 0 2.64 1.377 2.64 3.066 0 1.699-1.18 3.067-2.64 3.067zm-15.14 36.328c2.054 0 3.72 1.626 3.72 3.632 0 2.007-1.666 3.633-3.72 3.633-2.055 0-3.72-1.626-3.72-3.633 0-2.006 1.665-3.632 3.72-3.632zm0-21.504c2.054 0 3.72 1.626 3.72 3.633 0 2.006-1.666 3.632-3.72 3.632-2.055 0-3.72-1.626-3.72-3.632 0-2.007 1.665-3.633 3.72-3.633zm0-21.504c2.054 0 3.72 1.626 3.72 3.633 0 2.006-1.666 3.632-3.72 3.632-2.055 0-3.72-1.626-3.72-3.632 0-2.007 1.665-3.633 3.72-3.633z" fill="#89bb67"/></svg>