<svg height="120" viewBox="0 0 120 120" width="120" xmlns="http://www.w3.org/2000/svg"><path d="m0 0h120v120h-120z" fill="none"/><path d="m109.892 10.077-96.909 37.179 29.366 14.034 44.97-28.878-28.162 46.242 13.704 28.38 37.012-96.957zm-107.53 33.38 112.317-43.088c.919-.447 1.985-.49 2.937-.117 1.907.725 2.866 2.852 2.144 4.756l-43.022 112.632c-.531 1.368-1.822 2.293-3.291 2.357-1.469.063-2.836-.747-3.483-2.064l-22.192-45.901-45.684-21.836c-1.325-.635-2.145-1.995-2.085-3.46s.987-2.754 2.359-3.279z" fill="#67a9e6"/></svg>