<svg viewBox="0 0 120 120" width="13" xmlns="http://www.w3.org/2000/svg"><path d="m0 0h120v120h-120z" fill="none"/><path d="m57.255 83.701 3.438-17.9 3.486 5.39c7.509-3.09 11.728-8.18 12.353-16.01 6.172 11.04 2.432 20.95-5.4 26.74l3.554 5.48zm12.773-52.87c-5.078-2.49-10.761-3.45-16.298-2.9-5.498.54-10.84 2.59-15.254 6.1-5.107 4.05-8.984 10.11-10.478 18.14l-.469 2.51-2.441.44c-2.393.43-4.531 1.02-6.406 1.77-1.817.72-3.438 1.61-4.854 2.66-1.132.84-2.109 1.78-2.939 2.8-2.568 3.15-3.76 7.1-3.73 11.1.042 4.142 1.335 8.17 3.701 11.53.888 1.25 1.914 2.4 3.086 3.4 1.213 1.032 2.573 1.868 4.033 2.48 1.494.63 3.144 1.08 4.97 1.34h70.848c3.448-.85 6.494-2 9.082-3.48 2.568-1.47 4.668-3.26 6.24-5.41 2.442-3.33 3.643-8.04 3.692-12.87.058-5.07-1.153-10.16-3.506-13.86-.674-1.07-1.416-2.03-2.197-2.89-3.526-3.89-7.998-5.59-12.647-5.62-2.431-.02-4.941.41-7.392 1.22-5.068-7.23-8.73-14.37-17.041-18.46zm19.805 10.26c1.562-.25 3.125-.38 4.677-.36 6.563.05 12.891 2.45 17.871 7.95 1.045 1.15 2.031 2.45 2.959 3.9 3.125 4.92 4.726 11.49 4.658 17.92-.068 6.31-1.729 12.59-5.127 17.21-2.217 3.01-5.058 5.47-8.467 7.42-3.281 1.88-7.109 3.31-11.406 4.33l-.8.1h-71.366l-.449-.04c-2.607-.34-4.971-.97-7.119-1.88-2.217-.94-4.18-2.15-5.908-3.63-1.641-1.4-3.076-2.99-4.297-4.72-3.262-4.6-5.019-10.22-5.058-15.82-.039-5.66 1.679-11.29 5.39-15.85 1.201-1.48 2.617-2.84 4.238-4.04 1.885-1.4 4.043-2.58 6.485-3.55 1.679-.67 3.476-1.23 5.371-1.68 2.148-8.74 6.728-15.47 12.616-20.14 5.508-4.37 12.139-6.92 18.965-7.59 6.797-.67 13.789.51 20.068 3.6 6.845 3.37 12.822 8.98 16.699 16.87zm-27.265 3.61-3.438 17.9-3.486-5.39c-7.51 3.09-11.728 8.18-12.353 16.01-6.172-11.04-2.432-20.95 5.4-26.74l-3.555-5.48z" fill="#f3b898"/></svg>