<svg xmlns="http://www.w3.org/2000/svg" style="width: 15px;" xml:space="preserve" viewBox="0 0 122.88 79.12"><path fill="#ffc6a7" d="m58.63 63.26 3.52-17.9 3.57 5.39c7.69-3.09 12.01-8.18 12.65-16.01 6.32 11.04 2.49 20.95-5.53 26.74l3.64 5.48-17.85-3.7zm13.08-52.87c-5.2-2.49-11.02-3.45-16.69-2.9-5.63.54-11.1 2.59-15.62 6.1-5.23 4.05-9.2 10.11-10.73 18.14l-.48 2.51-2.5.44c-2.45.43-4.64 1.02-6.56 1.77-1.86.72-3.52 1.61-4.97 2.66-1.16.84-2.16 1.78-3.01 2.8-2.63 3.15-3.85 7.1-3.82 11.1a20.07 20.07 0 0 0 3.79 11.53c.91 1.25 1.96 2.4 3.16 3.4a15.86 15.86 0 0 0 4.13 2.48c1.53.63 3.22 1.08 5.09 1.34h72.55c3.53-.85 6.65-2 9.3-3.48 2.63-1.47 4.78-3.26 6.39-5.41 2.5-3.33 3.73-8.04 3.78-12.87.06-5.07-1.18-10.16-3.59-13.86-.69-1.07-1.45-2.03-2.25-2.89-3.61-3.89-8.19-5.59-12.95-5.62-2.49-.02-5.06.41-7.57 1.22-5.19-7.23-8.94-14.37-17.45-18.46zm20.28 10.26c1.6-.25 3.2-.38 4.79-.36 6.72.05 13.2 2.45 18.3 7.95 1.07 1.15 2.08 2.45 3.03 3.9 3.2 4.92 4.84 11.49 4.77 17.92-.07 6.31-1.77 12.59-5.25 17.21-2.27 3.01-5.18 5.47-8.67 7.42-3.36 1.88-7.28 3.31-11.68 4.33l-.82.1H23.38l-.46-.04c-2.67-.34-5.09-.97-7.29-1.88-2.27-.94-4.28-2.15-6.05-3.63-1.68-1.4-3.15-2.99-4.4-4.72C1.84 64.25.04 58.63 0 53.03c-.04-5.66 1.72-11.29 5.52-15.85 1.23-1.48 2.68-2.84 4.34-4.04 1.93-1.4 4.14-2.58 6.64-3.55 1.72-.67 3.56-1.23 5.5-1.68 2.2-8.74 6.89-15.47 12.92-20.14C40.56 3.4 47.35.85 54.34.18c6.96-.67 14.12.51 20.55 3.6 7.01 3.37 13.13 8.98 17.1 16.87zm-27.92 3.61-3.52 17.9-3.57-5.39c-7.69 3.09-12.01 8.18-12.65 16.01-6.32-11.04-2.49-20.95 5.53-26.74l-3.64-5.48 17.85 3.7z"/></svg>