<?xml version="1.0" encoding="UTF-8"?>
<!DOCTYPE svg PUBLIC "-//W3C//DTD SVG 1.1//EN" "http://www.w3.org/Graphics/SVG/1.1/DTD/svg11.dtd">
<svg version="1.1" xmlns="http://www.w3.org/2000/svg" xmlns:xlink="http://www.w3.org/1999/xlink" x="0" y="0" width="512" height="512" viewBox="0, 0, 512, 512">
  <g id="Background">
    <rect x="0" y="0" width="512" height="512" fill="#000000" fill-opacity="0"/>
  </g>
  <g id="Layer_1">
    <path d="M88.143,21 L155.286,21 L155.286,130.107 C155.286,144.06 166.511,155.286 180.464,155.286 C194.417,155.286 205.643,144.06 205.643,130.107 L205.643,21 L423.857,21 C442.426,21 457.429,36.002 457.429,54.571 C457.429,73.141 442.426,88.143 423.857,88.143 C464.667,118.777 491,167.56 491,222.429 L21,222.429 C21,167.56 47.333,118.777 88.143,88.143 C69.574,88.143 54.571,73.141 54.571,54.571 C54.571,36.002 69.574,21 88.143,21 z M47.752,356.714 L464.248,356.714 C436.656,421.129 394.587,461.415 372.136,479.565 C362.379,487.433 350,491 337.411,491 L174.589,491 C162,491 149.725,487.538 139.864,479.565 C117.413,461.415 75.344,421.129 47.752,356.714 z" fill="#000000"/>
    <path d="M155.286,21 L155.286,130.107 C155.286,144.06 166.511,155.286 180.464,155.286 C194.417,155.286 205.643,144.06 205.643,130.107 L205.643,21 L155.286,21 z M491,222.429 L21,222.429 C21,275.304 32.016,319.996 47.752,356.714 L464.248,356.714 C479.984,319.996 491,275.304 491,222.429 z" fill="#FFC800" opacity="0.8"/>
  </g>
</svg>
