<?xml version="1.0" encoding="UTF-8"?>
<!DOCTYPE svg PUBLIC "-//W3C//DTD SVG 1.1//EN" "http://www.w3.org/Graphics/SVG/1.1/DTD/svg11.dtd">
<svg version="1.1" xmlns="http://www.w3.org/2000/svg" xmlns:xlink="http://www.w3.org/1999/xlink" x="0" y="0" width="300" height="300" viewBox="0, 0, 300, 300">
  <g id="Background">
    <rect x="0" y="0" width="300" height="300" fill="#000000" fill-opacity="0"/>
  </g>
  <g id="Layer_1">
    <path d="M150,103.125 L93.75,103.125 L93.75,159.375 L150,159.375 L150,103.125 z M168.75,196.875 L168.75,215.625 L75,215.625 L75,196.875 L168.75,196.875 z M168.75,84.375 L168.75,178.125 L75,178.125 L75,84.375 L168.75,84.375 z M262.5,196.875 L262.5,215.625 L187.5,215.625 L187.5,196.875 L262.5,196.875 z M262.5,159.375 L262.5,178.125 L187.5,178.125 L187.5,159.375 L262.5,159.375 z M262.5,121.875 L262.5,140.625 L187.5,140.625 L187.5,121.875 L262.5,121.875 z M262.5,84.375 L262.5,103.125 L187.5,103.125 L187.5,84.375 L262.5,84.375 z M37.5,225 L37.5,84.375 L18.75,84.375 L18.75,225 C18.75,230.127 22.998,234.375 28.125,234.375 C33.252,234.375 37.5,230.127 37.5,225 z M281.25,225 L281.25,65.625 L56.25,65.625 L56.25,225 C56.25,228.223 55.664,231.445 54.639,234.375 L271.875,234.375 C277.002,234.375 281.25,230.127 281.25,225 z M300,46.875 L300,225 C300,240.527 287.402,253.125 271.875,253.125 L28.125,253.125 C12.598,253.125 0,240.527 0,225 L0,65.625 L37.5,65.625 L37.5,46.875 L300,46.875 z" fill="#000000"/>
  </g>
</svg>
