<svg height="15" viewBox="0 0 15 15" width="15" xmlns="http://www.w3.org/2000/svg"><g fill="none"><path d="m0 0h15v15h-15z"/><path d="m2.944 5.22c-.093-.002-.161-.008-.222-.02-.452-.09-.805-.443-.895-.894-.021-.11-.021-.243-.021-.507 0-.265 0-.397.021-.507.09-.452.443-.805.895-.895.11-.022.243-.022.507-.022h8.542c.264 0 .397 0 .507.022.452.09.805.443.895.895.021.11.021.242.021.507 0 .264 0 .397-.021.507-.09.451-.443.804-.895.894-.061.012-.129.018-.222.02m-5.695 2.849h2.278m-5.695-2.847h9.112v4.67c0 .956 0 1.435-.187 1.8-.163.322-.425.583-.746.747-.366.186-.844.186-1.801.186h-3.644c-.957 0-1.435 0-1.801-.186-.321-.164-.583-.425-.746-.747-.187-.365-.187-.844-.187-1.8z" stroke="currentColor" stroke-linecap="round" stroke-linejoin="round" stroke-width="1.25"/></g></svg>