<svg height="15" viewBox="0 0 15 15" width="15" xmlns="http://www.w3.org/2000/svg"><path d="m0 0h15v15h-15z" fill="none"/><path d="m2.583 5.039c-.101-.002-.174-.008-.24-.021-.488-.097-.869-.478-.966-.965-.022-.119-.022-.262-.022-.547 0-.286 0-.429.022-.548.097-.487.478-.868.966-.966.119-.023.263-.023.547-.023h9.22c.284 0 .428 0 .547.023.488.098.869.479.966.966.022.119.022.262.022.548 0 .285 0 .428-.022.547-.097.487-.478.868-.966.965-.066.013-.139.019-.24.021m-6.146 3.075h2.458m-6.146-3.073h9.834v5.041c0 1.031 0 1.548-.202 1.942-.176.348-.458.63-.805.807-.395.2-.911.2-1.944.2h-3.932c-1.033 0-1.549 0-1.944-.2-.347-.177-.629-.459-.805-.807-.202-.394-.202-.911-.202-1.942z" fill="none" stroke="currentColor" stroke-linecap="round" stroke-linejoin="round" stroke-width="1.25"/></svg>