<svg height="15" viewBox="0 0 15 15" width="15" xmlns="http://www.w3.org/2000/svg"><g fill="none"><path d="m0 0h15v15h-15z"/><path d="m6.562 1.252c-.421.006-.675.03-.88.134-.234.12-.426.311-.546.547-.104.205-.128.458-.134.879m7.186-1.56c.421.006.675.03.88.134.234.12.426.311.546.547.104.205.129.458.134.879m0 5.626c-.005.421-.03.675-.134.88-.12.234-.312.426-.546.546-.205.104-.459.129-.88.134m1.562-4.998v1.25m-5-5h1.25m-6.75 12.5h4.75c.7 0 1.05 0 1.318-.136.234-.12.426-.312.546-.546.136-.268.136-.618.136-1.318v-4.75c0-.7 0-1.05-.136-1.318-.12-.234-.312-.426-.546-.546-.268-.136-.618-.136-1.318-.136h-4.75c-.7 0-1.05 0-1.317.136-.236.12-.427.312-.547.546-.136.268-.136.618-.136 1.318v4.75c0 .7 0 1.05.136 1.318.12.234.311.426.547.546.267.136.617.136 1.317.136z" stroke="currentColor" stroke-linecap="round" stroke-linejoin="round" stroke-width="1.25"/></g></svg>