<svg height="15" viewBox="0 0 15 15" width="15" xmlns="http://www.w3.org/2000/svg"><g fill="none"><path d="m0 0h15v15h-15z"/><path d="m6.875 2.5h-2.625c-1.05 0-1.575 0-1.976.205-.353.179-.64.466-.82.819-.204.401-.204.926-.204 1.976v5.25c0 1.05 0 1.575.204 1.976.18.353.467.64.82.82.401.204.926.204 1.976.204h5.25c1.05 0 1.575 0 1.976-.204.353-.18.64-.467.82-.82.204-.401.204-.926.204-1.976v-2.625m-7.5 1.875h1.047c.305 0 .458 0 .602-.034.128-.031.249-.082.361-.15.126-.077.235-.185.451-.402l5.977-5.976c.517-.518.517-1.358 0-1.875-.518-.518-1.358-.518-1.876 0l-5.976 5.976c-.216.217-.325.325-.402.451-.068.112-.119.234-.149.361-.035.144-.035.297-.035.603z" stroke="#000" stroke-linecap="round" stroke-linejoin="round" stroke-width="1.25"/></g></svg>