<?xml version="1.0" encoding="UTF-8"?>
<!DOCTYPE svg PUBLIC "-//W3C//DTD SVG 1.1//EN" "http://www.w3.org/Graphics/SVG/1.1/DTD/svg11.dtd">
<svg version="1.1" xmlns="http://www.w3.org/2000/svg" xmlns:xlink="http://www.w3.org/1999/xlink" x="0" y="0" width="800" height="800" viewBox="0, 0, 800, 800">
  <g id="Background">
    <rect x="0" y="0" width="800" height="800" fill="#000000" fill-opacity="0"/>
  </g>
  <g id="Layer_1">
    <path d="M400,523.661 C458.91,523.661 506.667,571.417 506.667,630.328 C506.667,689.238 458.91,736.994 400,736.994 C341.09,736.994 293.333,689.238 293.333,630.328 C293.333,571.417 341.09,523.661 400,523.661 z" fill="#000000"/>
    <path d="M169.672,293.333 C228.583,293.333 276.339,341.09 276.339,400 C276.339,458.91 228.583,506.667 169.672,506.667 C110.762,506.667 63.006,458.91 63.006,400 C63.006,341.09 110.762,293.333 169.672,293.333 z" fill="#000000"/>
    <path d="M630.327,293.333 C689.238,293.333 736.994,341.09 736.994,400 C736.994,458.91 689.238,506.667 630.328,506.667 C571.417,506.667 523.661,458.91 523.661,400 C523.661,341.09 571.417,293.333 630.328,293.333 z" fill="#000000"/>
    <path d="M400,63.006 C458.91,63.006 506.667,110.762 506.667,169.672 C506.667,228.583 458.91,276.339 400,276.339 C341.09,276.339 293.333,228.583 293.333,169.672 C293.333,110.762 341.09,63.006 400,63.006 z" fill="#000000"/>
  </g>
</svg>
