<?xml version="1.0" encoding="UTF-8"?>
<!DOCTYPE svg PUBLIC "-//W3C//DTD SVG 1.1//EN" "http://www.w3.org/Graphics/SVG/1.1/DTD/svg11.dtd">
<svg version="1.1" xmlns="http://www.w3.org/2000/svg" xmlns:xlink="http://www.w3.org/1999/xlink" x="0" y="0" width="300" height="300" viewBox="0, 0, 300, 300">
  <g id="Background">
    <rect x="0" y="0" width="300" height="300" fill="#000000" fill-opacity="0"/>
  </g>
  <g id="logo">
    <path d="M205.624,244.392 C180.599,244.392 157.023,234.699 139.241,217.102 L87.268,165.129 C81.216,159.078 77.895,151.029 77.926,142.474 C77.958,133.919 81.32,125.891 87.402,119.881 C99.837,107.591 120.02,107.653 132.382,120.015 L179.979,167.612 C185.555,173.188 194.648,173.209 200.244,167.664 C202.986,164.954 204.496,161.343 204.506,157.485 C204.517,153.636 203.027,150.005 200.296,147.284 L148.396,95.384 C133.892,81.036 114.63,73.132 94.209,73.194 C73.375,73.246 53.926,81.429 39.444,96.233 C24.94,111.057 17.181,130.702 17.595,151.547 C18.412,193.04 52.861,226.806 94.385,226.806 C101.813,226.806 109.147,225.75 116.192,223.671 C120.847,222.295 125.74,224.954 127.106,229.609 C128.482,234.264 125.823,239.157 121.168,240.533 C112.509,243.088 103.499,244.392 94.385,244.392 C43.354,244.392 1.023,202.899 0.019,151.898 C-0.488,126.295 9.05,102.16 26.875,83.943 C44.688,65.736 68.585,55.67 94.168,55.619 C119.151,55.556 142.934,65.25 160.779,82.908 L212.731,134.86 C218.782,140.922 222.113,148.971 222.093,157.536 C222.072,166.102 218.7,174.14 212.617,180.16 C200.162,192.481 179.948,192.43 167.554,180.036 L119.958,132.44 C114.403,126.884 105.351,126.864 99.765,132.378 C97.033,135.078 95.523,138.678 95.513,142.526 C95.502,146.364 96.992,149.984 99.702,152.695 L151.623,204.626 C166.075,218.923 185.265,226.816 205.624,226.816 C247.934,226.816 282.393,192.398 282.434,150.088 C282.455,129.584 274.469,110.281 259.945,95.736 C245.42,81.191 226.127,73.184 205.624,73.184 C199.086,73.184 192.599,74.001 186.33,75.626 C185.42,75.863 184.51,76.112 183.61,76.381 C178.955,77.767 174.061,75.119 172.675,70.474 C171.289,65.819 173.937,60.925 178.582,59.539 C179.689,59.208 180.806,58.898 181.924,58.608 C189.62,56.622 197.596,55.608 205.613,55.608 C230.813,55.608 254.524,65.446 272.369,83.312 C290.214,101.177 300.031,124.898 300,150.098 C299.948,202.092 257.596,244.381 205.613,244.381 z" fill="#006EB9"/>
  </g>
</svg>
