<?xml version="1.0" encoding="UTF-8"?>
<svg version="1.1" xmlns="http://www.w3.org/2000/svg" xmlns:xlink="http://www.w3.org/1999/xlink" x="0" y="0" width="300" height="300" viewBox="0, 0, 300, 300">
  <g id="Layer_1">
    <path d="M174.694,114.375 C147.544,104.3 132.744,96.55 132.744,84.262 C132.744,73.875 141.281,67.95 156.506,67.95 C184.344,67.95 212.944,78.675 232.631,88.338 L243.756,19.663 C228.144,12.188 196.206,0 152.056,0 C120.831,0 94.856,8.175 76.294,23.4 C56.994,39.338 46.956,62.4 46.956,90.225 C46.956,140.712 77.794,162.225 127.906,180.462 C160.219,191.962 170.969,200.137 170.969,212.75 C170.969,225 160.469,232.062 141.544,232.062 C118.106,232.062 79.481,220.55 54.169,205.7 L42.919,275.138 C64.681,287.375 104.806,300 146.419,300 C179.431,300 206.956,292.2 225.519,277.337 C246.319,261.025 257.081,236.887 257.081,205.688 C257.081,154.087 225.531,132.55 174.656,114.375 L174.694,114.375 z" fill="#635BFF"/>
  </g>
</svg>
