<?xml version="1.0" encoding="UTF-8"?>
<!DOCTYPE svg PUBLIC "-//W3C//DTD SVG 1.1//EN" "http://www.w3.org/Graphics/SVG/1.1/DTD/svg11.dtd">
<svg version="1.1" xmlns="http://www.w3.org/2000/svg" xmlns:xlink="http://www.w3.org/1999/xlink" x="0" y="0" width="300" height="300" viewBox="0, 0, 300, 300">
  <g id="Background">
    <rect x="0" y="0" width="300" height="300" fill="#000000" fill-opacity="0"/>
  </g>
  <g id="Layer_1">
    <g>
      <path d="M45.908,180.375 C44.467,182.105 41.584,177.205 41.584,177.205 C36.108,167.117 34.667,153.57 32.649,142.329 C29.479,125.035 27.461,107.453 26.885,89.871 L26.596,91.889 C26.596,91.024 26.885,90.448 26.885,89.871 C18.526,110.624 16.22,154.435 16.22,154.435 C16.22,154.435 16.797,182.969 25.155,185.852 C25.732,186.14 26.308,185.852 26.885,185.852 C33.226,184.699 39.279,181.528 45.908,180.375 C45.908,180.375 45.908,180.375 45.908,180.375 C45.908,180.375 45.908,180.375 45.908,180.375 z" fill="#84C340"/>
      <path d="M26.885,89.871 C26.885,90.448 26.596,91.024 26.596,91.889 L26.885,89.871 z M30.055,184.987 C28.326,183.546 26.885,180.952 26.02,178.934 C24.867,176.052 23.714,172.881 23.138,169.999 C21.697,163.946 20.255,157.893 19.679,151.841 C19.102,144.923 19.102,138.294 19.391,131.376 C19.391,129.359 19.679,127.341 19.679,125.323 C20.832,113.218 22.849,101.689 26.885,90.16 C18.526,110.912 15.644,132.529 15.644,154.723 C15.644,154.723 15.644,155.011 15.644,155.299 C15.932,161.352 17.373,180.663 23.426,186.14 C25.444,187.581 27.173,186.14 30.055,184.987 z" fill="#1E8B46"/>
      <path d="M277.932,233.121 C275.338,229.374 270.438,221.592 270.438,221.592 L262.656,209.198 C262.656,209.198 251.703,204.586 246.227,201.704 C250.839,208.91 254.874,219.286 262.079,224.186 C267.844,227.933 273.609,231.968 279.373,235.715 C279.085,234.85 278.508,233.986 277.932,233.121 C277.356,232.256 278.508,233.986 277.932,233.121 z" fill="#1E8B46"/>
      <path d="M187.14,276.932 C150.823,263.962 137.853,213.522 130.647,180.375 C120.559,133.682 117.389,84.107 122.288,36.261 C105.859,36.261 89.43,36.261 72.713,36.261 C66.372,89.583 68.966,146.941 81.648,198.822 C87.125,221.304 94.618,247.533 112.2,263.385 C122.288,272.608 137.565,275.202 150.535,277.508 C168.982,280.679 186.852,280.391 205.298,278.085 C199.246,279.526 192.905,278.949 187.14,276.932 C130.359,256.756 192.905,278.949 187.14,276.932 z" fill="#84C340"/>
      <path d="M163.793,289.326 C159.182,285.867 155.147,278.949 149.67,277.797 C161.776,265.691 170.134,250.127 177.34,234.562 C181.087,226.492 184.546,218.421 187.716,210.351 C189.158,206.892 192.616,202.857 190.31,199.975 C188.581,197.957 185.987,196.804 184.258,194.498 C177.628,212.08 170.134,229.951 159.758,245.515 C152.264,256.468 139.87,271.167 124.594,269.15 C114.794,268.285 107.012,257.909 102.112,250.703 C94.33,239.462 89.43,226.204 85.395,213.233 C76.172,182.969 72.425,150.976 70.984,119.559 C69.543,92.177 69.543,63.931 72.713,36.261 C84.242,36.261 95.771,36.261 107.589,36.261 C109.606,36.261 111.624,36.261 113.642,36.261 C115.371,36.261 116.236,26.749 116.812,24.732 C118.83,16.661 120.559,5.42 128.629,0.809 C116.236,4.556 105.859,7.726 94.618,14.067 C88.566,17.238 82.801,20.696 77.325,24.732 C74.731,27.614 70.695,30.496 68.101,33.09 C61.76,47.213 60.896,67.101 60.319,82.089 C58.013,135.988 60.031,195.363 79.919,246.091 C85.972,261.367 94.33,277.797 108.742,287.02 C120.271,294.226 136.7,296.82 149.958,298.549 C165.235,300.567 182.816,298.261 176.764,295.955 C167.54,293.073 167.829,292.208 163.793,289.326 z" fill="#1E8B46"/>
      <path d="M239.598,5.708 C234.698,13.779 227.492,22.138 225.474,31.361 C220.574,54.419 210.198,77.189 200.687,98.518 C189.158,124.459 176.187,149.823 160.623,173.458 C153.129,184.699 145.059,195.651 135.835,205.739 C132.953,208.91 130.359,210.927 129.206,214.963 C128.341,217.557 127.477,220.151 126.612,222.745 C158.029,191.616 180.511,150.976 199.534,111.2 C209.334,91.024 218.269,70.272 226.051,49.231 C229.221,40.584 232.392,31.937 235.274,23.002 C236.715,18.391 240.751,10.32 239.598,5.708 z" fill="#1E8B46"/>
      <path d="M135.547,54.707 C136.412,40.296 136.988,25.308 134.682,11.185 C134.106,6.861 133.241,-1.497 127.477,0.232 C122.865,1.673 118.253,3.114 113.642,4.844 C102.112,9.455 91.16,14.932 80.783,22.138 C77.036,24.732 73.578,27.614 70.407,30.496 C68.678,31.937 68.678,31.937 67.813,33.378 C67.237,34.531 67.813,37.99 67.813,40.584 C65.796,75.748 55.996,111.2 45.908,144.635 C42.449,156.74 38.702,176.052 28.614,184.41 C19.391,192.193 15.932,158.182 15.644,154.146 C17.085,178.358 23.426,202.569 36.108,223.321 C41.584,232.256 47.637,244.65 58.013,248.685 C70.119,253.585 80.783,241.768 86.836,232.833 C103.554,208.91 112.489,178.646 119.694,150.688 C127.765,119.847 133.529,87.277 135.547,54.707 C135.835,50.672 134.394,74.595 135.547,54.707 z" fill="#DDDDDC"/>
      <path d="M284.273,183.257 C283.697,151.552 279.085,119.847 271.591,89.007 C264.673,60.184 255.45,30.784 239.598,5.709 C240.75,9.744 237.292,16.661 236.139,20.408 C233.545,29.343 230.374,37.99 227.204,46.637 C219.422,67.678 210.775,88.142 200.975,108.318 C181.664,148.958 158.893,190.463 126.9,222.457 C149.094,218.421 169.846,211.504 190.599,202.857 C183.105,223.033 174.746,243.209 162.929,261.079 C152.264,277.22 134.682,297.108 113.065,289.614 C122.577,294.802 142.753,298.837 161.776,299.702 C177.628,300.567 195.787,299.99 209.91,291.92 C238.156,275.779 253.433,240.327 264.097,211.216 C269.285,219.286 274.185,227.645 279.661,235.715 C283.12,221.304 284.561,203.145 284.273,183.257 C283.985,163.37 284.561,203.145 284.273,183.257 z" fill="#DEDDDD"/>
    </g>
  </g>
</svg>
