<?xml version="1.0" encoding="utf-8"?>
<!-- Generator: Adobe Illustrator 25.4.1, SVG Export Plug-In . SVG Version: 6.00 Build 0)  -->
<svg version="1.1" id="Layer_1" xmlns="http://www.w3.org/2000/svg" xmlns:xlink="http://www.w3.org/1999/xlink" x="0px" y="0px"
	 viewBox="0 0 150 170" style="enable-background:new 0 0 644 204;" xml:space="preserve">
<style type="text/css">
	.st0{fill:#444545;}
	.st1{fill:#84C340;}
	.st2{fill:#1E8B46;}
	.st3{fill:#DDDDDC;}
	.st4{fill:#DEDDDD;}
	.st5{fill-rule:evenodd;clip-rule:evenodd;fill:#444545;}
</style>
<g>
	<g>
		<path class="st1" d="M39.8,91.7c-0.5,0.6-1.5-1.1-1.5-1.1c-1.9-3.5-2.4-8.2-3.1-12.1c-1.1-6-1.8-12.1-2-18.2L33.1,61
			c0-0.3,0.1-0.5,0.1-0.7c-2.9,7.2-3.7,22.4-3.7,22.4c0,0,0.2,9.9,3.1,10.9c0.2,0.1,0.4,0,0.6,0C35.4,93.2,37.5,92.1,39.8,91.7
			C39.8,91.7,39.8,91.7,39.8,91.7C39.8,91.7,39.8,91.7,39.8,91.7z"/>
		<path class="st2" d="M33.2,60.3c0,0.2-0.1,0.4-0.1,0.7L33.2,60.3z M34.3,93.3c-0.6-0.5-1.1-1.4-1.4-2.1c-0.4-1-0.8-2.1-1-3.1
			c-0.5-2.1-1-4.2-1.2-6.3c-0.2-2.4-0.2-4.7-0.1-7.1c0-0.7,0.1-1.4,0.1-2.1c0.4-4.2,1.1-8.2,2.5-12.2c-2.9,7.2-3.9,14.7-3.9,22.4
			c0,0,0,0.1,0,0.2c0.1,2.1,0.6,8.8,2.7,10.7C32.7,94.2,33.3,93.7,34.3,93.3z"/>
		<g>
			<path class="st2" d="M120.3,110c-0.9-1.3-2.6-4-2.6-4l-2.7-4.3c0,0-3.8-1.6-5.7-2.6c1.6,2.5,3,6.1,5.5,7.8c2,1.3,4,2.7,6,4
				C120.7,110.6,120.5,110.3,120.3,110C120.1,109.7,120.5,110.3,120.3,110z"/>
		</g>
		<g>
			<path class="st1" d="M88.8,125.2c-12.6-4.5-17.1-22-19.6-33.5c-3.5-16.2-4.6-33.4-2.9-50c-5.7,0-11.4,0-17.2,0
				c-2.2,18.5-1.3,38.4,3.1,56.4c1.9,7.8,4.5,16.9,10.6,22.4c3.5,3.2,8.8,4.1,13.3,4.9c6.4,1.1,12.6,1,19,0.2
				C93,126.1,90.8,125.9,88.8,125.2C69.1,118.2,90.8,125.9,88.8,125.2z"/>
		</g>
		<g>
			<path class="st2" d="M80.7,129.5c-1.6-1.2-3-3.6-4.9-4c4.2-4.2,7.1-9.6,9.6-15c1.3-2.8,2.5-5.6,3.6-8.4c0.5-1.2,1.7-2.6,0.9-3.6
				c-0.6-0.7-1.5-1.1-2.1-1.9c-2.3,6.1-4.9,12.3-8.5,17.7c-2.6,3.8-6.9,8.9-12.2,8.2c-3.4-0.3-6.1-3.9-7.8-6.4
				c-2.7-3.9-4.4-8.5-5.8-13c-3.2-10.5-4.5-21.6-5-32.5C48,61.1,48,51.3,49.1,41.7c4,0,8,0,12.1,0c0.7,0,1.4,0,2.1,0
				c0.6,0,0.9-3.3,1.1-4c0.7-2.8,1.3-6.7,4.1-8.3c-4.3,1.3-7.9,2.4-11.8,4.6c-2.1,1.1-4.1,2.3-6,3.7c-0.9,1-2.3,2-3.2,2.9
				c-2.2,4.9-2.5,11.8-2.7,17c-0.8,18.7-0.1,39.3,6.8,56.9c2.1,5.3,5,11,10,14.2c4,2.5,9.7,3.4,14.3,4c5.3,0.7,11.4-0.1,9.3-0.9
				C82,130.8,82.1,130.5,80.7,129.5z"/>
		</g>
		<path class="st2" d="M107,31.1c-1.7,2.8-4.2,5.7-4.9,8.9c-1.7,8-5.3,15.9-8.6,23.3c-4,9-8.5,17.8-13.9,26
			c-2.6,3.9-5.4,7.7-8.6,11.2c-1,1.1-1.9,1.8-2.3,3.2c-0.3,0.9-0.6,1.8-0.9,2.7c10.9-10.8,18.7-24.9,25.3-38.7
			c3.4-7,6.5-14.2,9.2-21.5c1.1-3,2.2-6,3.2-9.1C106,35.5,107.4,32.7,107,31.1z"/>
		<g>
			<path class="st3" d="M70.9,48.1c0.3-5,0.5-10.2-0.3-15.1c-0.2-1.5-0.5-4.4-2.5-3.8c-1.6,0.5-3.2,1-4.8,1.6c-4,1.6-7.8,3.5-11.4,6
				c-1.3,0.9-2.5,1.9-3.6,2.9c-0.6,0.5-0.6,0.5-0.9,1c-0.2,0.4,0,1.6,0,2.5c-0.7,12.2-4.1,24.5-7.6,36.1c-1.2,4.2-2.5,10.9-6,13.8
				c-3.2,2.7-4.4-9.1-4.5-10.5c0.5,8.4,2.7,16.8,7.1,24c1.9,3.1,4,7.4,7.6,8.8c4.2,1.7,7.9-2.4,10-5.5c5.8-8.3,8.9-18.8,11.4-28.5
				C68.2,70.7,70.2,59.4,70.9,48.1C71,46.7,70.5,55,70.9,48.1z"/>
		</g>
		<g>
			<path class="st4" d="M122.5,92.7c-0.2-11-1.8-22-4.4-32.7c-2.4-10-5.6-20.2-11.1-28.9c0.4,1.4-0.8,3.8-1.2,5.1
				c-0.9,3.1-2,6.1-3.1,9.1c-2.7,7.3-5.7,14.4-9.1,21.4c-6.7,14.1-14.6,28.5-25.7,39.6c7.7-1.4,14.9-3.8,22.1-6.8
				c-2.6,7-5.5,14-9.6,20.2c-3.7,5.6-9.8,12.5-17.3,9.9c3.3,1.8,10.3,3.2,16.9,3.5c5.5,0.3,11.8,0.1,16.7-2.7
				c9.8-5.6,15.1-17.9,18.8-28c1.8,2.8,3.5,5.7,5.4,8.5C122.1,105.9,122.6,99.6,122.5,92.7C122.4,85.8,122.6,99.6,122.5,92.7z"/>
		</g>
	</g>
</g>
</svg>
