<?xml version="1.0" encoding="UTF-8"?>
<!DOCTYPE svg PUBLIC "-//W3C//DTD SVG 1.1//EN" "http://www.w3.org/Graphics/SVG/1.1/DTD/svg11.dtd">
<svg version="1.1" xmlns="http://www.w3.org/2000/svg" xmlns:xlink="http://www.w3.org/1999/xlink" x="0" y="0" width="512" height="512" viewBox="0, 0, 512, 512">
  <g id="Background">
    <rect x="0" y="0" width="512" height="512" fill="#000000" fill-opacity="0"/>
  </g>
  <g id="Layer_1">
    <path d="M495.935,226.823 L285.177,16.065 C269.094,-0.019 242.918,-0.019 226.823,16.065 L16.065,226.823 C-0.019,242.906 -0.019,269.082 16.065,285.177 L226.823,495.935 C234.865,503.977 245.438,507.998 256,507.998 C266.562,507.998 277.135,503.977 285.177,495.935 L495.935,285.177 C512.019,269.094 512.019,242.906 495.935,226.823 z M256,313.277 L198.723,256 L256,198.723 L313.277,256 L256,313.277 z" fill="#4FC3F7"/>
    <path d="M361.918,92.805 L256,198.723 L313.277,256 L256,313.277 L361.918,419.195 L495.935,285.177 C512.019,269.094 512.019,242.918 495.935,226.823 L361.918,92.805 z" fill="#2979FF"/>
    <path d="M150.082,419.195 L226.823,495.935 C234.865,503.977 245.438,507.998 256,507.998 C266.562,507.998 277.135,503.977 285.177,495.935 L361.918,419.195 L256,313.277 L150.082,419.195 z" fill="#2962FF"/>
  </g>
</svg>
