<?xml version="1.0" encoding="UTF-8"?>
<!DOCTYPE svg PUBLIC "-//W3C//DTD SVG 1.1//EN" "http://www.w3.org/Graphics/SVG/1.1/DTD/svg11.dtd">
<svg version="1.1" xmlns="http://www.w3.org/2000/svg" xmlns:xlink="http://www.w3.org/1999/xlink" x="0" y="0" width="512" height="512" viewBox="0, 0, 512, 512">
  <g id="Background">
    <rect x="0" y="0" width="512" height="512" fill="#000000" fill-opacity="0"/>
  </g>
  <g id="Layer_1">
    <path d="M122.109,115.062 C87.051,115.062 58.687,143.426 58.687,178.484 L58.687,418.078 C58.687,453.136 87.051,481.5 122.109,481.5 L389.891,481.5 C424.949,481.5 453.312,453.136 453.312,418.078 L453.312,178.484 C453.312,143.426 424.949,115.062 389.891,115.062 L122.109,115.062 z M157.344,368.75 L185.531,368.75 C193.283,368.75 199.625,375.092 199.625,382.844 C199.625,390.595 193.283,396.938 185.531,396.938 L157.344,396.938 C149.592,396.938 143.25,390.595 143.25,382.844 C143.25,375.092 149.592,368.75 157.344,368.75 z M241.906,368.75 L270.094,368.75 C277.845,368.75 284.188,375.092 284.188,382.844 C284.188,390.595 277.845,396.938 270.094,396.938 L241.906,396.938 C234.155,396.938 227.812,390.595 227.812,382.844 C227.812,375.092 234.155,368.75 241.906,368.75 z M326.469,368.75 L354.656,368.75 C362.408,368.75 368.75,375.092 368.75,382.844 C368.75,390.595 362.408,396.938 354.656,396.938 L326.469,396.938 C318.717,396.938 312.375,390.595 312.375,382.844 C312.375,375.092 318.717,368.75 326.469,368.75 z M136.203,256 C136.203,236.541 151.978,220.766 171.438,220.766 C190.897,220.766 206.672,236.541 206.672,256 C206.672,275.459 190.897,291.234 171.438,291.234 C151.978,291.234 136.203,275.459 136.203,256 z M340.562,220.766 C360.022,220.766 375.797,236.541 375.797,256 C375.797,275.459 360.022,291.234 340.562,291.234 C321.103,291.234 305.328,275.459 305.328,256 C305.328,236.541 321.103,220.766 340.562,220.766 z" fill="#000000"/>
    <path d="M256,30.5 C240.409,30.5 227.812,43.096 227.812,58.687 L227.812,115.062 L284.188,115.062 L284.188,58.687 C284.188,43.096 271.591,30.5 256,30.5 z M143.25,382.844 C143.25,390.595 149.592,396.938 157.344,396.938 L185.531,396.938 C193.283,396.938 199.625,390.595 199.625,382.844 C199.625,375.092 193.283,368.75 185.531,368.75 L157.344,368.75 C149.592,368.75 143.25,375.092 143.25,382.844 z M227.812,382.844 C227.812,390.595 234.155,396.938 241.906,396.938 L270.094,396.938 C277.845,396.938 284.188,390.595 284.188,382.844 C284.188,375.092 277.845,368.75 270.094,368.75 L241.906,368.75 C234.155,368.75 227.812,375.092 227.812,382.844 z M312.375,382.844 C312.375,390.595 318.717,396.938 326.469,396.938 L354.656,396.938 C362.408,396.938 368.75,390.595 368.75,382.844 C368.75,375.092 362.408,368.75 354.656,368.75 L326.469,368.75 C318.717,368.75 312.375,375.092 312.375,382.844 z M44.594,227.812 C21.251,227.812 2.312,246.751 2.312,270.094 L2.312,354.656 C2.312,377.999 21.251,396.938 44.594,396.938 L58.687,396.938 L58.687,227.812 L44.594,227.812 z M467.406,227.812 L453.312,227.812 L453.312,396.938 L467.406,396.938 C490.749,396.938 509.688,377.999 509.688,354.656 L509.688,270.094 C509.688,246.751 490.749,227.812 467.406,227.812 z" fill="#FFAE00" opacity="0.8"/>
  </g>
</svg>
