<?xml version="1.0" encoding="UTF-8"?>
<!DOCTYPE svg PUBLIC "-//W3C//DTD SVG 1.1//EN" "http://www.w3.org/Graphics/SVG/1.1/DTD/svg11.dtd">
<svg version="1.1" xmlns="http://www.w3.org/2000/svg" xmlns:xlink="http://www.w3.org/1999/xlink" x="0" y="0" width="82" height="82" viewBox="0, 0, 82, 82">
  <defs>
    <linearGradient id="calendar-gradient" gradientUnits="userSpaceOnUse" x1="12.009" y1="69.991" x2="69.991" y2="12.009">
      <stop offset="0" stop-color="#0056FF"/>
      <stop offset="0" stop-color="#006AFF"/>
      <stop offset="1" stop-color="#00CAFF"/>
    </linearGradient>
  </defs>
  <g id="Calendar">
    <path d="M41,82 C18.356,82 0,63.644 0,41 C0,18.356 18.356,0 41,0 C63.644,0 82,18.356 82,41 C82,63.644 63.644,82 41,82 z" fill="url(#calendar-gradient)"/>
    <g>
      <path d="M33.021,16.373 C41.376,14.14 37.742,15.11 43.922,13.464 C53.184,11.037 55.151,18.28 55.821,20.639 C56.218,22.077 56.603,23.519 56.99,24.959 L55.403,30.878 C54.539,27.695 53.705,24.504 52.783,21.336 C51.388,16.681 49.49,15.334 44.455,16.51 C39.627,17.811 25.383,21.604 23.554,22.117 C20.667,22.941 17.53,24.517 19.005,30.254 C20.469,35.729 24.633,51.269 27.075,60.378 C28.8,67.012 32.497,66.155 35.401,65.539 C37.952,64.877 53.121,60.812 56.355,59.912 C61.315,58.533 62.035,55.918 60.862,51.384 L60.48,49.944 L62.082,43.964 C62.674,46.178 63.266,48.391 63.857,50.605 C66.212,59.41 61.091,61.684 57.054,62.957 C54.867,63.549 44.405,66.351 36.386,68.498 C26.981,71.075 24.827,63.756 24.134,61.214 C23.441,58.674 17.642,37.005 16.067,31.091 C13.567,21.886 20.616,19.759 22.711,19.158 C26.142,18.211 29.583,17.295 33.021,16.373 z" fill="#FFFFFF"/>
      <path d="M64.355,16.745 C65.823,17.103 66.745,18.376 66.385,19.723 C66.025,21.071 58.206,49.934 58.206,49.934 L58.206,49.934 C56.947,51.652 55.689,53.371 54.437,55.096 C54.22,55.397 53.818,55.293 53.792,54.895 L52.917,48.501 C52.917,48.501 60.73,19.646 61.1,18.292 C61.469,16.938 62.887,16.389 64.355,16.745 z" fill="#FF8300" id="Pencil"/>
      <path d="M18.061,30.54 L54,20.915 L54.491,23.469 L18.721,33 z" fill="#FFFFFF"/>
      <path d="M23.918,17.37 L25.377,22.814 C25.536,23.409 25.135,24.034 24.479,24.209 L24.479,24.209 C23.825,24.384 23.165,24.043 23.006,23.449 L21.547,18.005 C21.388,17.411 21.789,16.786 22.444,16.61 L22.444,16.61 C23.099,16.435 23.759,16.775 23.918,17.37 z" fill="#FFFFFF"/>
      <path d="M44.146,11.95 L45.605,17.393 C45.764,17.988 45.363,18.613 44.707,18.789 L44.707,18.789 C44.053,18.964 43.394,18.624 43.233,18.029 L41.775,12.586 C41.616,11.99 42.017,11.365 42.672,11.19 L42.672,11.19 C43.327,11.014 43.987,11.354 44.146,11.95 z" fill="#FFFFFF"/>
      <g>
        <path d="M22.275,34.267 L28.216,32.673 L29.805,38.609 L23.863,40.203 z" fill="#FFFFFF" display="none"/>
        <path d="M30.271,32.124 L36.212,30.53 L37.801,36.468 L31.859,38.061 z" fill="#FFFFFF" display="none"/>
        <path d="M26.638,50.556 L32.58,48.961 L34.17,54.898 L28.228,56.492 z" fill="#FFFFFF" display="none"/>
        <path d="M40.32,38.159 L46.261,36.565 L47.85,42.501 L41.908,44.095 z" fill="#FFFFFF" display="none"/>
        <path d="M32.451,40.267 L38.393,38.672 L39.983,44.61 L34.041,46.204 z" fill="#FFFFFF" display="none"/>
        <path d="M34.571,48.429 L40.513,46.836 L42.101,52.772 L36.16,54.366 z" fill="#FFFFFF" display="none"/>
        <path d="M45.98,27.916 L51.922,26.321 L53.51,32.257 L47.569,33.852 z" fill="#FFFFFF" display="none"/>
        <path d="M36.739,56.521 L42.68,54.927 L44.269,60.864 L38.328,62.457 z" fill="#FFFFFF" display="none"/>
      </g>
      <path d="M40.085,43.009 Q39.276,43.256 38.433,43.264 Q37.592,43.271 36.853,42.967 Q36.115,42.665 35.54,42.037 Q34.966,41.409 34.692,40.389 Q34.458,39.513 34.643,38.744 Q34.827,37.976 35.323,37.374 Q35.819,36.772 36.544,36.327 Q37.269,35.882 38.115,35.655 Q39.049,35.405 39.9,35.427 Q40.749,35.45 41.45,35.732 Q42.152,36.013 42.667,36.594 Q43.182,37.175 43.416,38.051 Q43.683,39.043 43.513,39.87 Q43.344,40.697 42.871,41.324 Q42.398,41.951 41.669,42.381 Q40.94,42.812 40.085,43.009 z M45.255,37.558 Q44.904,36.245 44.106,35.426 Q43.307,34.608 42.25,34.219 Q41.192,33.831 40,33.821 Q38.81,33.812 37.672,34.117 Q36.534,34.422 35.507,35.025 Q34.481,35.629 33.773,36.49 Q33.065,37.353 32.784,38.46 Q32.503,39.568 32.854,40.88 Q33.307,42.573 34.477,43.495 Q35.646,44.417 37.384,44.483 L37.4,44.542 Q35.568,45.408 34.872,47.126 Q34.175,48.846 34.656,50.875 Q35.071,52.421 35.934,53.425 Q36.797,54.43 37.963,54.93 Q39.129,55.431 40.515,55.466 Q41.901,55.502 43.33,55.118 Q44.789,54.727 45.957,54.008 Q47.125,53.288 47.884,52.272 Q48.644,51.254 48.889,49.954 Q49.135,48.653 48.72,47.107 Q48.158,45.005 46.715,43.938 Q45.271,42.87 43.148,43.001 L43.133,42.942 Q44.583,42.054 45.143,40.637 Q45.701,39.221 45.255,37.558 z M42.924,53.601 Q41.844,53.89 40.818,53.853 Q39.791,53.815 38.938,53.433 Q38.085,53.053 37.442,52.286 Q36.8,51.521 36.495,50.382 Q36.197,49.273 36.394,48.314 Q36.591,47.354 37.138,46.597 Q37.685,45.841 38.564,45.324 Q39.442,44.808 40.5,44.555 Q41.514,44.252 42.536,44.276 Q43.558,44.299 44.426,44.676 Q45.293,45.053 45.94,45.772 Q46.585,46.491 46.883,47.598 Q47.195,48.766 47.021,49.751 Q46.847,50.735 46.299,51.492 Q45.751,52.249 44.878,52.78 Q44.003,53.312 42.924,53.601 z" fill="#FFFFFF"/>
    </g>
  </g>
</svg>
