<?xml version="1.0" encoding="UTF-8"?>
<!DOCTYPE svg PUBLIC "-//W3C//DTD SVG 1.1//EN" "http://www.w3.org/Graphics/SVG/1.1/DTD/svg11.dtd">
<svg version="1.1" xmlns="http://www.w3.org/2000/svg" xmlns:xlink="http://www.w3.org/1999/xlink" x="0" y="0" width="82" height="82" viewBox="0, 0, 82, 82">
  <defs>
    <linearGradient id="express-gradient" gradientUnits="userSpaceOnUse" x1="12.009" y1="69.991" x2="69.991" y2="12.009">
      <stop offset="0" stop-color="#EC6A00"/>
      <stop offset="1" stop-color="#FFAB00"/>
    </linearGradient>
  </defs>
  <g id="ExpressForms">
    <path d="M41,82 C18.356,82 0,63.644 0,41 C0,18.356 18.356,0 41,0 C63.644,0 82,18.356 82,41 C82,63.644 63.644,82 41,82 z" fill="url(#express-gradient)"/>
    <path d="M25.893,24.322 L55.203,16.468 C57.281,15.912 59.417,17.145 59.973,19.222 L68.999,52.908 C69.556,54.986 68.323,57.121 66.245,57.678 L36.936,65.532 C34.858,66.088 32.722,64.855 32.166,62.778 L23.139,29.092 C22.583,27.014 23.816,24.879 25.893,24.322 z" fill="#FFFFFF"/>
    <g id="Options">
      <path d="M57.874,31.452 L58.231,32.786 L38.221,38.148 L37.863,36.813 L57.874,31.452 z" fill="#FF9100"/>
      <path d="M59.393,37.121 L59.75,38.455 L39.74,43.817 L39.382,42.483 L59.393,37.121 z" fill="#FF9100"/>
      <path d="M60.957,42.958 L61.314,44.292 L41.304,49.654 L40.946,48.32 L60.957,42.958 z" fill="#FF9100"/>
      <path d="M35.038,34.861 L36.036,35.44 L33.26,40.275 L32.973,40.776 L32.474,40.486 L29.828,38.95 L30.402,37.949 L32.549,39.196 L35.038,34.861 z" fill="#FF9100"/>
      <path d="M36.52,40.39 L37.518,40.97 L34.742,45.805 L34.455,46.306 L33.956,46.016 L31.309,44.48 L31.884,43.479 L34.031,44.726 L36.52,40.39 z" fill="#FF9100"/>
    </g>
    <g>
      <path d="M37.199,26.621 L53.687,22.203 C54.411,22.009 55.173,22.506 55.39,23.313 L55.859,25.067 C56.076,25.874 55.664,26.685 54.94,26.879 L38.452,31.297 C37.728,31.491 36.966,30.994 36.749,30.187 L36.28,28.434 C36.063,27.627 36.475,26.815 37.199,26.621 z" fill="#FFFFFF"/>
      <path d="M55.979,22.857 C56.246,23.73 56.547,24.882 56.547,24.882 C56.861,26.054 56.246,27.266 55.124,27.567 L38.637,31.985 C37.515,32.285 36.375,31.543 36.062,30.371 L35.592,28.618 C35.278,27.447 35.893,26.234 37.015,25.933 C37.015,25.933 51.452,22.072 53.34,21.57 C54.514,21.275 55.712,21.985 55.979,22.857 z M54.739,23.604 C54.612,23.159 54.135,22.826 53.754,22.921 C53.161,23.069 37.384,27.309 37.384,27.309 C37.057,27.397 36.849,27.807 36.967,28.249 L37.437,30.003 C37.556,30.446 37.941,30.697 38.268,30.609 L54.755,26.191 C55.082,26.104 55.29,25.694 55.172,25.251 C55.172,25.251 55.083,24.832 54.977,24.447 C54.872,24.061 54.841,23.962 54.739,23.604 z" fill="#FF9100"/>
    </g>
    <path d="M43.937,53.382 L54.202,50.632 C55.033,50.409 55.887,50.902 56.11,51.733 L56.716,53.996 C56.939,54.827 56.445,55.682 55.614,55.904 L45.35,58.655 C44.519,58.877 43.665,58.384 43.442,57.553 L42.836,55.29 C42.613,54.459 43.106,53.605 43.937,53.382 z" fill="#FF9100"/>
    <path d="M10.326,48.035 L23.135,44.603 C23.966,44.38 24.82,44.873 25.043,45.705 L25.043,45.705 C25.266,46.536 24.773,47.39 23.941,47.613 L11.133,51.045 C10.301,51.268 9.447,50.775 9.224,49.943 L9.224,49.943 C9.001,49.112 9.495,48.258 10.326,48.035 z" fill="#FFFFFF"/>
    <path d="M14.594,38.866 L21.155,37.108 C21.972,36.889 22.811,37.374 23.03,38.19 L23.03,38.19 C23.249,39.007 22.764,39.846 21.947,40.065 L15.386,41.823 C14.569,42.042 13.73,41.558 13.511,40.741 L13.511,40.741 C13.292,39.924 13.777,39.085 14.594,38.866 z" fill="#FFFFFF"/>
    <path d="M15.194,54.823 L25.153,52.155 C25.987,51.931 26.844,52.426 27.068,53.26 L27.068,53.26 C27.291,54.094 26.796,54.951 25.962,55.175 L16.003,57.843 C15.169,58.067 14.312,57.572 14.088,56.738 L14.088,56.738 C13.865,55.904 14.36,55.047 15.194,54.823 z" fill="#FFFFFF"/>
  </g>
</svg>
