<?xml version="1.0" encoding="UTF-8"?>
<!DOCTYPE svg PUBLIC "-//W3C//DTD SVG 1.1//EN" "http://www.w3.org/Graphics/SVG/1.1/DTD/svg11.dtd">
<svg version="1.1" xmlns="http://www.w3.org/2000/svg" xmlns:xlink="http://www.w3.org/1999/xlink" x="0" y="0" width="300" height="300" viewBox="0, 0, 300, 300">
  <g id="Background">
    <rect x="0" y="0" width="300" height="300" fill="#000000" fill-opacity="0"/>
  </g>
  <g id="Layer_1">
    <path d="M227.063,99.125 L227.063,63.547 C236.668,59.05 242.828,49.427 242.889,38.821 L242.889,37.983 C242.847,22.865 230.605,10.617 215.487,10.569 L214.649,10.569 C199.531,10.61 187.283,22.852 187.235,37.971 L187.235,38.808 C187.282,49.353 193.365,58.939 202.886,63.472 L203.048,63.547 L203.048,99.2 C189.446,101.278 176.638,106.929 165.934,115.576 L166.084,115.463 L68.227,39.258 C72.065,24.863 65.196,9.763 51.823,3.197 C38.45,-3.368 22.301,0.431 13.259,12.271 C4.217,24.111 4.802,40.691 14.656,51.864 C24.511,63.037 40.887,65.689 53.764,58.197 L53.614,58.272 L149.82,133.164 C141.314,145.917 136.797,160.913 136.844,176.242 C136.844,193.031 142.157,208.594 151.183,221.32 L151.02,221.082 L121.743,250.359 C119.4,249.603 116.955,249.202 114.493,249.172 L114.468,249.172 C100.432,249.172 89.054,260.55 89.054,274.586 C89.054,288.622 100.432,300 114.468,300 C128.504,300 139.882,288.622 139.882,274.586 C139.852,272.058 139.435,269.549 138.644,267.148 L138.694,267.323 L167.659,238.359 C193.519,258.105 228.912,259.748 256.49,242.482 C284.068,225.217 298.052,192.662 291.587,160.774 C285.122,128.886 259.562,104.348 227.438,99.187 L226.988,99.125 z M215.012,216.345 C192.891,216.289 174.997,198.322 175.034,176.201 C175.071,154.079 193.024,136.171 215.145,136.19 C237.266,136.208 255.189,154.146 255.189,176.267 L255.189,176.292 C255.189,198.426 237.246,216.37 215.112,216.37 z" fill="#FF7A59"/>
  </g>
</svg>
