<?xml version="1.0" encoding="UTF-8"?>
<!DOCTYPE svg PUBLIC "-//W3C//DTD SVG 1.1//EN" "http://www.w3.org/Graphics/SVG/1.1/DTD/svg11.dtd">
<svg version="1.1" xmlns="http://www.w3.org/2000/svg" xmlns:xlink="http://www.w3.org/1999/xlink" x="0" y="0" width="82" height="82" viewBox="0, 0, 82, 82">
  <g id="Calendar">
    <path d="M32.429,0.767 L68.539,10.443 C78.116,13.009 83.799,22.852 81.233,32.429 L71.557,68.539 C68.991,78.116 59.148,83.799 49.571,81.233 L13.461,71.557 C3.884,68.991 -1.799,59.148 0.767,49.571 L10.443,13.461 C13.009,3.884 22.852,-1.799 32.429,0.767 z" fill="#0BB1F4"/>
    <g>
      <path d="M33.594,18.339 C41.257,16.292 37.924,17.181 43.592,15.672 C52.086,13.446 53.89,20.088 54.504,22.252 C54.868,23.571 55.221,24.893 55.576,26.214 L54.121,31.642 C53.328,28.723 52.564,25.796 51.718,22.891 C50.439,18.622 48.698,17.387 44.08,18.465 C39.653,19.658 26.59,23.137 24.912,23.607 C22.265,24.363 19.388,25.808 20.74,31.07 C22.083,36.091 25.902,50.342 28.141,58.696 C29.723,64.78 33.114,63.994 35.777,63.429 C38.117,62.822 52.028,59.094 54.994,58.269 C59.543,57.004 60.203,54.606 59.127,50.448 L58.777,49.127 L60.246,43.643 C60.789,45.673 61.332,47.703 61.874,49.733 C64.034,57.808 59.337,59.894 55.635,61.061 C53.629,61.604 44.035,64.174 36.68,66.143 C28.055,68.506 26.08,61.794 25.444,59.463 C24.809,57.133 19.49,37.261 18.046,31.837 C15.753,23.395 22.218,21.445 24.139,20.894 C27.286,20.025 30.441,19.185 33.594,18.339 z" fill="#FFFFFF"/>
      <path d="M62.331,18.681 C63.677,19.009 64.522,20.176 64.192,21.412 C63.862,22.648 56.691,49.118 56.691,49.118 L56.691,49.118 C55.537,50.694 54.383,52.27 53.235,53.852 C53.036,54.128 52.667,54.033 52.643,53.668 L51.841,47.804 C51.841,47.804 59.006,21.341 59.345,20.099 C59.684,18.858 60.984,18.354 62.331,18.681 z" fill="#FFFFFF" id="Pencil"/>
      <path d="M19.875,31.332 L52.834,22.505 L53.284,24.847 L20.48,33.588 z" fill="#FFFFFF"/>
      <path d="M25.246,19.254 L26.584,24.246 C26.73,24.792 26.362,25.365 25.761,25.526 L25.761,25.526 C25.161,25.686 24.556,25.374 24.41,24.829 L23.072,19.836 C22.926,19.291 23.294,18.718 23.894,18.557 L23.894,18.557 C24.495,18.396 25.1,18.708 25.246,19.254 z" fill="#FFFFFF"/>
      <path d="M43.797,14.283 L45.135,19.275 C45.281,19.821 44.913,20.394 44.312,20.555 L44.312,20.555 C43.712,20.716 43.107,20.404 42.96,19.858 L41.623,14.866 C41.477,14.32 41.845,13.747 42.445,13.586 L42.445,13.586 C43.046,13.425 43.651,13.737 43.797,14.283 z" fill="#FFFFFF"/>
      <g display="none">
        <path d="M23.739,34.75 L29.188,33.288 L30.645,38.732 L25.196,40.194 z" fill="#FFFFFF"/>
        <path d="M31.072,32.785 L36.521,31.323 L37.978,36.768 L32.529,38.229 z" fill="#FFFFFF"/>
        <path d="M27.741,49.688 L33.19,48.226 L34.648,53.67 L29.199,55.132 z" fill="#FFFFFF"/>
        <path d="M40.288,38.319 L45.737,36.857 L47.194,42.301 L41.745,43.763 z" fill="#FFFFFF"/>
        <path d="M33.072,40.252 L38.521,38.79 L39.979,44.235 L34.53,45.697 z" fill="#FFFFFF"/>
        <path d="M35.016,47.738 L40.465,46.277 L41.922,51.721 L36.473,53.183 z" fill="#FFFFFF"/>
        <path d="M45.479,28.925 L50.928,27.463 L52.385,32.907 L46.936,34.369 z" fill="#FFFFFF"/>
        <path d="M37.004,55.159 L42.453,53.697 L43.91,59.142 L38.461,60.603 z" fill="#FFFFFF"/>
      </g>
      <path d="M40.073,42.767 Q39.331,42.994 38.558,43.001 Q37.786,43.007 37.109,42.729 Q36.432,42.452 35.905,41.876 Q35.378,41.3 35.127,40.364 Q34.912,39.561 35.082,38.856 Q35.251,38.151 35.706,37.599 Q36.16,37.047 36.825,36.639 Q37.49,36.231 38.266,36.023 Q39.123,35.794 39.903,35.814 Q40.682,35.835 41.325,36.093 Q41.968,36.351 42.441,36.884 Q42.913,37.417 43.128,38.22 Q43.372,39.13 43.217,39.888 Q43.062,40.647 42.628,41.222 Q42.194,41.797 41.525,42.191 Q40.857,42.586 40.073,42.767 z M44.814,37.768 Q44.492,36.564 43.76,35.813 Q43.028,35.063 42.058,34.706 Q41.088,34.35 39.995,34.341 Q38.903,34.333 37.86,34.612 Q36.816,34.892 35.874,35.445 Q34.933,35.999 34.284,36.789 Q33.635,37.58 33.377,38.595 Q33.119,39.611 33.441,40.815 Q33.857,42.367 34.93,43.213 Q36.002,44.058 37.596,44.119 L37.61,44.173 Q35.93,44.967 35.292,46.543 Q34.653,48.12 35.094,49.981 Q35.474,51.399 36.266,52.32 Q37.057,53.241 38.127,53.7 Q39.196,54.159 40.467,54.191 Q41.738,54.224 43.049,53.872 Q44.387,53.514 45.458,52.854 Q46.529,52.194 47.225,51.262 Q47.922,50.329 48.147,49.136 Q48.372,47.943 47.992,46.525 Q47.476,44.598 46.153,43.619 Q44.829,42.64 42.882,42.76 L42.868,42.706 Q44.198,41.891 44.711,40.592 Q45.223,39.293 44.814,37.768 z M42.676,52.481 Q41.686,52.746 40.745,52.712 Q39.803,52.677 39.021,52.327 Q38.239,51.978 37.649,51.275 Q37.06,50.573 36.78,49.529 Q36.507,48.512 36.688,47.632 Q36.868,46.752 37.37,46.058 Q37.872,45.364 38.678,44.89 Q39.483,44.417 40.453,44.185 Q41.383,43.907 42.321,43.929 Q43.258,43.95 44.054,44.296 Q44.849,44.642 45.442,45.301 Q46.034,45.96 46.307,46.976 Q46.593,48.047 46.434,48.95 Q46.274,49.853 45.772,50.547 Q45.269,51.241 44.468,51.728 Q43.666,52.216 42.676,52.481 z" fill="#FFFFFF"/>
    </g>
  </g>
</svg>
