<?xml version="1.0" encoding="UTF-8"?>
<!DOCTYPE svg PUBLIC "-//W3C//DTD SVG 1.1//EN" "http://www.w3.org/Graphics/SVG/1.1/DTD/svg11.dtd">
<svg version="1.1" xmlns="http://www.w3.org/2000/svg" xmlns:xlink="http://www.w3.org/1999/xlink" x="0" y="0" width="82" height="82" viewBox="0, 0, 82, 82">
  <g id="ExpressForms">
    <path d="M32.429,0.767 L68.539,10.443 C78.116,13.009 83.799,22.852 81.233,32.429 L71.557,68.539 C68.991,78.116 59.148,83.799 49.571,81.233 L13.461,71.557 C3.884,68.991 -1.799,59.148 0.767,49.571 L10.443,13.461 C13.009,3.884 22.852,-1.799 32.429,0.767 z" fill="#FF9100"/>
    <path d="M26.431,24.998 L54.553,17.463 C56.546,16.929 58.595,18.112 59.129,20.105 L67.789,52.425 C68.323,54.419 67.14,56.468 65.147,57.002 L37.025,64.537 C35.032,65.071 32.983,63.888 32.449,61.895 L23.789,29.575 C23.255,27.581 24.438,25.532 26.431,24.998 z" fill="#FFFFFF"/>
    <g id="Options">
      <path d="M57.115,31.839 L57.458,33.119 L38.258,38.263 L37.915,36.983 L57.115,31.839 z" fill="#FF9100"/>
      <path d="M58.572,37.279 L58.915,38.559 L39.716,43.703 L39.373,42.423 L58.572,37.279 z" fill="#FF9100"/>
      <path d="M60.073,42.878 L60.416,44.158 L41.216,49.303 L40.873,48.023 L60.073,42.878 z" fill="#FF9100"/>
      <path d="M35.205,35.109 L36.163,35.665 L33.499,40.305 L33.223,40.785 L32.745,40.507 L30.206,39.033 L30.757,38.073 L32.817,39.269 L35.205,35.109 z" fill="#FF9100"/>
      <path d="M36.627,40.415 L37.584,40.971 L34.921,45.611 L34.645,46.091 L34.166,45.813 L31.627,44.339 L32.179,43.378 L34.239,44.575 L36.627,40.415 z" fill="#FF9100"/>
    </g>
    <g>
      <path d="M37.279,27.204 L53.097,22.966 C53.792,22.779 54.524,23.256 54.731,24.03 L55.182,25.713 C55.39,26.487 54.994,27.265 54.3,27.452 L38.481,31.69 C37.786,31.877 37.054,31.4 36.847,30.626 L36.396,28.943 C36.188,28.169 36.584,27.39 37.279,27.204 z" fill="#FFFFFF"/>
      <path d="M55.296,23.593 C55.553,24.43 55.842,25.536 55.842,25.536 C56.143,26.66 55.553,27.823 54.476,28.111 L38.657,32.35 C37.581,32.639 36.488,31.926 36.187,30.802 L35.736,29.12 C35.435,27.996 36.026,26.833 37.102,26.544 C37.102,26.544 50.954,22.839 52.765,22.358 C53.891,22.074 55.04,22.756 55.296,23.593 z M54.107,24.31 C53.985,23.883 53.528,23.562 53.162,23.654 C52.593,23.796 37.455,27.864 37.455,27.864 C37.142,27.948 36.942,28.342 37.056,28.766 L37.507,30.449 C37.62,30.874 37.99,31.115 38.304,31.03 L54.123,26.792 C54.436,26.708 54.636,26.314 54.522,25.889 C54.522,25.889 54.437,25.488 54.336,25.118 C54.234,24.747 54.205,24.653 54.107,24.31 z" fill="#FF9100"/>
    </g>
    <path d="M43.743,52.88 L53.591,50.241 C54.389,50.028 55.208,50.501 55.422,51.298 L56.004,53.469 C56.217,54.267 55.744,55.086 54.947,55.3 L45.099,57.939 C44.301,58.152 43.482,57.679 43.268,56.882 L42.686,54.711 C42.473,53.913 42.946,53.094 43.743,52.88 z" fill="#FF9100"/>
    <path d="M11.495,47.75 L23.784,44.457 C24.582,44.243 25.401,44.716 25.615,45.514 L25.615,45.514 C25.829,46.312 25.356,47.131 24.558,47.345 L12.269,50.638 C11.471,50.852 10.651,50.378 10.438,49.581 L10.438,49.581 C10.224,48.783 10.697,47.963 11.495,47.75 z" fill="#FFFFFF"/>
    <path d="M15.589,38.953 L21.885,37.266 C22.668,37.056 23.473,37.521 23.683,38.304 L23.683,38.304 C23.893,39.088 23.428,39.893 22.645,40.103 L16.35,41.79 C15.566,42 14.761,41.535 14.551,40.751 L14.551,40.751 C14.341,39.968 14.806,39.163 15.589,38.953 z" fill="#FFFFFF"/>
    <path d="M16.165,54.263 L25.72,51.702 C26.521,51.488 27.343,51.963 27.558,52.763 L27.558,52.763 C27.772,53.563 27.297,54.386 26.497,54.6 L16.942,57.161 C16.141,57.375 15.319,56.9 15.105,56.1 L15.105,56.1 C14.89,55.3 15.365,54.477 16.165,54.263 z" fill="#FFFFFF"/>
  </g>
</svg>
