<?xml version="1.0" encoding="UTF-8"?>
<!DOCTYPE svg PUBLIC "-//W3C//DTD SVG 1.1//EN" "http://www.w3.org/Graphics/SVG/1.1/DTD/svg11.dtd">
<svg version="1.1" xmlns="http://www.w3.org/2000/svg" xmlns:xlink="http://www.w3.org/1999/xlink" x="0" y="0" width="82" height="82" viewBox="0, 0, 82, 82">
  <g id="Freeform">
    <path d="M32.406,0.727 L68.516,10.403 C78.093,12.969 83.776,22.813 81.21,32.389 L71.534,68.499 C68.968,78.076 59.125,83.759 49.548,81.193 L13.438,71.518 C3.861,68.952 -1.822,59.108 0.744,49.531 L10.42,13.421 C12.986,3.845 22.83,-1.839 32.406,0.727 z" fill="#0BB1F4"/>
    <g>
      <path d="M33.61,18.184 C41.348,16.117 37.982,17.014 43.707,15.49 C52.285,13.242 54.107,19.95 54.727,22.136 C55.095,23.468 55.451,24.803 55.81,26.138 L54.341,31.619 C53.54,28.671 52.767,25.715 51.913,22.782 C50.621,18.47 48.863,17.223 44.199,18.311 C39.728,19.516 26.536,23.03 24.841,23.505 C22.167,24.268 19.262,25.727 20.627,31.041 C21.984,36.113 25.841,50.505 28.102,58.942 C29.7,65.087 33.124,64.293 35.814,63.723 C38.177,63.109 52.226,59.344 55.222,58.511 C59.816,57.234 60.483,54.811 59.396,50.612 L59.042,49.278 L60.526,43.74 C61.075,45.79 61.623,47.84 62.171,49.89 C64.352,58.046 59.608,60.152 55.869,61.331 C53.843,61.879 44.154,64.474 36.726,66.463 C28.015,68.85 26.021,62.071 25.379,59.717 C24.736,57.363 19.365,37.294 17.907,31.816 C15.591,23.291 22.121,21.321 24.061,20.764 C27.239,19.886 30.425,19.039 33.61,18.184 z" fill="#FFFFFF"/>
      <path d="M62.632,18.53 C63.991,18.86 64.845,20.04 64.511,21.288 C64.178,22.536 56.936,49.268 56.936,49.268 L56.936,49.268 C55.77,50.86 54.605,52.452 53.446,54.05 C53.244,54.329 52.872,54.233 52.848,53.864 L52.038,47.942 C52.038,47.942 59.274,21.216 59.616,19.962 C59.958,18.708 61.272,18.199 62.632,18.53 z" fill="#FFFFFF" id="Pencil"/>
      <path d="M31.774,53.402 L40.975,50.937 L42.12,55.211 L32.919,57.676 z" fill="#FFFFFF"/>
      <path d="M38.839,29.084 L48.04,26.619 L48.65,28.897 L39.449,31.362 z" fill="#FFFFFF"/>
      <path d="M40.304,34.552 L49.505,32.086 L50.115,34.365 L40.914,36.83 z" fill="#FFFFFF"/>
      <path d="M36.43,25.245 L32.109,32.796 L30.423,31.784 L29.479,33.369 L32.765,35.266 L33.969,33.177 L34.908,36.683 L29.444,38.147 L27.626,31.362 L31.53,30.267 L32.796,28.074 L25.51,30.026 L28.243,40.226 L36.986,37.883 L35.169,31.101 L38.045,26.12 z" fill="#FFFFFF"/>
      <path d="M30.443,48.436 L51.409,42.809 L50.677,45.485 L31.053,50.713 z" fill="#FFFFFF"/>
      <path d="M29.019,43.274 L50.949,37.398 L51.56,39.676 L29.63,45.552 z" fill="#FFFFFF"/>
    </g>
  </g>
</svg>
