<svg viewBox="0 0 512 512" xmlns="http://www.w3.org/2000/svg"><path d="m0 0h512v512h-512z" fill="none"/><path d="m448 80.4v101.7c-14.5 10.6-37.9 20.6-68.9 28.3-34.6 8.5-77.1 13.6-123.1 13.6s-88.5-5.1-123.1-13.6c-31-7.6-54.4-17.7-68.9-28.3v-101.7c.3-.8 1.6-3.2 6.2-7.1 7.3-6.2 19.9-13.2 38.1-19.7 36.3-13 88.5-21.6 147.7-21.6s111.4 8.6 147.6 21.6c18.3 6.5 30.8 13.5 38.1 19.7 4.7 4 6 6.4 6.2 7.1zm0 139.1v90.6c-14.5 10.6-37.9 20.6-68.9 28.3-34.6 8.5-77.1 13.6-123.1 13.6s-88.5-5.1-123.1-13.6c-31-7.6-54.4-17.7-68.9-28.3v-90.6c17.2 8.9 38.1 16.3 61.2 21.9 37.5 9.3 82.6 14.6 130.8 14.6s93.3-5.3 130.8-14.5c23.1-5.7 44-13 61.2-21.9zm-384 212.1v-84c17.2 8.9 38.1 16.3 61.2 21.9 37.5 9.2 82.6 14.5 130.8 14.5s93.3-5.3 130.8-14.5c23.1-5.7 44-13 61.2-21.9v84c-.3.8-1.6 3.2-6.2 7.1-7.3 6.2-19.9 13.2-38.1 19.7-36.3 13-88.5 21.6-147.7 21.6s-111.4-8.6-147.6-21.6c-18.3-6.5-30.8-13.5-38.1-19.7-4.7-4-6-6.4-6.2-7.1zm384.1-.3c0-.055-.045-.1-.1-.1s-.1.045-.1.1.045.1.1.1.1-.045.1-.1zm-384.2 0c-.039.023-.058.069-.047.113.012.043.052.074.097.074s.085-.031.097-.074c.011-.044-.008-.09-.047-.113.039-.023.058-.069.047-.112-.012-.044-.052-.075-.097-.075s-.085.031-.097.075c-.011.043.008.089.047.112zm0-350.6c0 .055.045.1.1.1s.1-.045.1-.1-.045-.1-.1-.1c0-.055-.045-.1-.1-.1s-.1.045-.1.1.045.1.1.1zm384.1-.1c-.083-.028-.172.017-.2.1s.017.172.1.2.172-.017.2-.1-.017-.172-.1-.2zm32 351.4v-352c0-44.2-100.3-80-224-80s-224 35.8-224 80v352c0 44.2 100.3 80 224 80s224-35.8 224-80z"/></svg>