<svg xmlns="http://www.w3.org/2000/svg"
     viewBox="0 0 640 512"><!--!Font Awesome Pro 6.5.2 by @fontawesome - https://fontawesome.com License - https://fontawesome.com/license (Commercial License) Copyright 2024 Fonticons, Inc.-->
    <path d="M0 112C0 85.5 21.5 64 48 64c138.7 0 277.3 0 416 0c26.5 0 48 21.5 48 48c0 15.1-7.1 29.3-19.2 38.4L392 226c-1 .7-1.9 1.4-2.9 2.2L275.2 313.6c-11.4 8.5-27 8.5-38.4 0L19.2 150.4C7.1 141.3 0 127.1 0 112zm0 64L217.6 339.2c22.8 17.1 54 17.1 76.8 0l34.2-25.6C323 330.7 320 349 320 368c0 28.8 6.9 56 19.2 80L64 448c-35.3 0-64-28.7-64-64L0 176zM352 368c0-79.5 64.5-144 144-144s144 64.5 144 144s-64.5 144-144 144s-144-64.5-144-144zm84.7-59.3c-6.2 6.2-6.2 16.4 0 22.6L473.4 368l-36.7 36.7c-6.2 6.2-6.2 16.4 0 22.6s16.4 6.2 22.6 0L496 390.6l36.7 36.7c6.2 6.2 16.4 6.2 22.6 0s6.2-16.4 0-22.6L518.6 368l36.7-36.7c6.2-6.2 6.2-16.4 0-22.6s-16.4-6.2-22.6 0L496 345.4l-36.7-36.7c-6.2-6.2-16.4-6.2-22.6 0zm53.9-116.6L512 176l0 16.7c-5.3-.5-10.6-.7-16-.7c-1.8 0-3.6 0-5.4 .1z" />
</svg>
