<svg height="800" viewBox="0 0 800 800" width="800" xmlns="http://www.w3.org/2000/svg"><path d="m0 0h800v800h-800z" fill="none"/><path d="m698.667 570.667c0 4.33-.832 8.426-2.027 12.33l-189.973-204.33 192-149.334zm-564.139 41.514 192.512-205.141 72.96 55.147 69.803-55.488 195.669 205.482c-3.051.704-527.893.704-530.944 0zm-33.195-41.514v-341.334l192 149.334-189.973 204.33c-1.195-3.904-2.027-8-2.027-12.33zm576-384-277.333 213.333-277.333-213.333zm-21.333-42.667h-512c-47.125 0-85.333 38.208-85.333 85.333v341.334c0 47.125 38.208 85.333 85.333 85.333h512c47.125 0 85.333-38.208 85.333-85.333v-341.334c0-47.125-38.208-85.333-85.333-85.333z"/><path d="m85 726 650-650" fill="none" stroke="#f00" stroke-linecap="round" stroke-width="50"/></svg>