<svg height="82" viewBox="0 0 82 82" width="82" xmlns="http://www.w3.org/2000/svg"><path d="m0 0h82v82h-82z" fill="none"/><path d="m41 82c-22.644 0-41-18.356-41-41s18.356-41 41-41 41 18.356 41 41-18.356 41-41 41z" fill="#058ffe"/><path d="m32.588 16.262c8.729-2.331 4.932-1.319 11.389-3.039 9.677-2.536 11.732 5.031 12.432 7.498.415 1.502.816 3.008 1.221 4.513l-1.657 6.184c-.904-3.325-1.775-6.66-2.738-9.969-1.457-4.864-3.44-6.271-8.702-5.044-5.044 1.36-19.925 5.324-21.837 5.859-3.016.861-6.294 2.507-4.754 8.502 1.531 5.721 5.882 21.957 8.433 31.473 1.802 6.932 5.665 6.037 8.699 5.393 2.666-.691 18.514-4.939 21.893-5.878 5.183-1.442 5.935-4.174 4.708-8.911l-.398-1.505 1.674-6.247c.619 2.312 1.237 4.625 1.855 6.938 2.46 9.2-2.891 11.576-7.109 12.905-2.285.619-13.215 3.546-21.594 5.789-9.826 2.693-12.076-4.954-12.801-7.609-.724-2.655-6.784-25.294-8.428-31.474-2.612-9.617 4.753-11.839 6.942-12.467 3.585-.991 7.179-1.947 10.772-2.911z" fill="#fff"/><path d="m65.47 15.288c1.539.374 2.505 1.709 2.128 3.121-.378 1.412-8.573 31.665-8.573 31.665-1.319 1.802-2.638 3.603-3.95 5.411-.228.316-.649.208-.676-.209l-.917-6.703s8.189-30.245 8.576-31.664 1.873-1.995 3.412-1.621z" fill="#ff6624"/><g fill="#fff"><path d="m32.075 52.586 5.61-1.503c1.372-.368 2.783.447 3.15 1.819l.171.636c.367 1.372-.447 2.783-1.819 3.15l-5.61 1.504c-1.372.367-2.783-.447-3.15-1.819l-.171-.637c-.368-1.372.447-2.782 1.819-3.15z"/><path d="m36.307 24.857 10.168-2.724c.713-.191 1.445.232 1.636.944.191.713-.232 1.445-.944 1.636l-10.169 2.724c-.712.191-1.445-.231-1.635-.944-.191-.712.231-1.445.944-1.636z"/><path d="m37.974 31.08 10.169-2.725c.712-.191 1.445.232 1.635.945.191.712-.231 1.444-.944 1.635l-10.168 2.725c-.713.191-1.445-.232-1.636-.944-.191-.713.232-1.445.944-1.636z"/><path d="m29.202 46.687 22.207-5.951c.724-.194 1.466.227 1.657.939.191.713-.241 1.447-.965 1.641l-22.208 5.951c-.724.194-1.465-.226-1.656-.939-.191-.712.241-1.447.965-1.641z"/><path d="m27.555 40.54 22.207-5.95c.724-.194 1.466.226 1.657.939.191.712-.241 1.447-.965 1.641l-22.208 5.95c-.724.194-1.465-.226-1.656-.938-.191-.713.241-1.448.965-1.642z"/><path d="m30.321 26.476c.799-.213 1.619.26 1.833 1.059l1.597 5.962c.214.798-.259 1.619-1.058 1.833l-5.962 1.597c-.798.214-1.619-.26-1.833-1.058l-1.597-5.962c-.214-.799.26-1.619 1.058-1.833zm-.633 2.155-3.704.992c-.399.107-.636.518-.529.917l.993 3.704c.107.399.517.636.916.529l3.704-.993c.399-.107.636-.517.529-.916l-.992-3.704c-.107-.399-.518-.636-.917-.529z"/></g></svg>