<?xml version="1.0" encoding="UTF-8"?>
<!DOCTYPE svg PUBLIC "-//W3C//DTD SVG 1.1//EN" "http://www.w3.org/Graphics/SVG/1.1/DTD/svg11.dtd">
<svg version="1.1" xmlns="http://www.w3.org/2000/svg" xmlns:xlink="http://www.w3.org/1999/xlink" x="0" y="0" width="250" height="250" viewBox="0, 0, 250, 250">
  <g id="Layer_1">
    <path d="M125,250 C55.964,250 0,194.036 0,125 C0,55.964 55.964,0 125,0 C194.036,0 250,55.964 250,125 C250,194.036 194.036,250 125,250 z" fill="#058FFE"/>
    <path d="M169.625,57.359 L169.625,65.826 L127.25,65.826 C97.429,65.827 88.957,79.33 88.957,87.491 C88.957,106.323 94.604,103.495 138.232,116.68 C179.036,126.723 187.2,138.345 187.2,154.973 C187.2,158.43 186.889,192.641 121.286,192.641 L65.407,192.641 L65.407,184.17 L117.518,184.17 C161.15,184.17 160.832,166.602 160.832,160.627 C160.832,147.127 152.046,142.109 115.007,133.016 C100.734,127.434 77.062,126.087 67.345,112.584 C63.76,107.601 63.956,104.875 62.8,98.897 L62.8,91.539 C66.975,61.967 108.122,57.873 131.321,57.359 L169.625,57.359 z" fill="#FFFFFF"/>
  </g>
</svg>
