<?xml version="1.0" encoding="UTF-8"?>
<!DOCTYPE svg PUBLIC "-//W3C//DTD SVG 1.1//EN" "http://www.w3.org/Graphics/SVG/1.1/DTD/svg11.dtd">
<svg version="1.1" xmlns="http://www.w3.org/2000/svg" xmlns:xlink="http://www.w3.org/1999/xlink" x="0" y="0" width="300" height="300" viewBox="0, 0, 300, 300">
  <g id="Background">
    <rect x="0" y="0" width="300" height="300" fill="#000000" fill-opacity="0"/>
  </g>
  <g id="Layer_1">
    <path d="M138.769,299.995 C56.133,299.995 -0,232.635 -0,161.043 C-0,88.345 57.237,25.587 133.431,22.642 C136.376,22.458 138.953,25.035 138.953,27.979 L138.953,50.248 C138.953,53.009 136.744,55.402 133.8,55.586 C77.85,58.162 32.76,103.989 32.76,161.227 C32.76,217.176 76.93,267.236 138.769,267.236 C198.951,267.236 241.649,219.2 244.226,166.196 C244.41,163.435 246.618,161.043 249.563,161.043 L271.832,161.043 C274.777,161.043 277.169,163.435 277.169,166.564 C274.593,237.237 217.723,299.995 138.769,299.995 z" fill="#1856ED"/>
    <path d="M138.953,226.378 C102.144,226.378 73.617,197.115 73.617,161.043 C73.617,127.363 99.567,99.204 133.247,96.443 C136.376,96.259 138.953,98.652 138.953,101.781 L138.953,124.05 C138.953,126.626 137.112,129.019 134.352,129.387 C118.156,131.596 106.377,145.399 106.377,161.227 C106.377,178.895 120.18,193.802 138.953,193.802 C154.596,193.802 168.584,182.023 170.792,165.828 C171.16,163.251 173.553,161.227 176.13,161.227 L198.399,161.227 C201.528,161.227 203.92,163.803 203.736,166.932 C200.791,199.876 173.185,226.378 138.953,226.378 z" fill="#1856ED"/>
    <path d="M267.231,133.804 C264.654,79.879 221.588,35.341 166.191,32.764 C163.431,32.58 161.038,30.372 161.038,27.427 L161.038,5.342 C161.038,2.397 163.431,0.005 166.559,0.005 C238.52,2.765 297.23,60.371 299.991,133.436 C300.175,136.381 297.598,138.957 294.653,138.957 L272.384,138.957 C269.808,138.957 267.415,136.749 267.231,133.804 z" fill="#FF9E1A"/>
    <path d="M167.111,106.934 C163.799,106.382 161.406,103.621 161.406,100.861 L161.406,79.143 C161.406,76.015 163.983,73.622 167.111,73.806 C199.135,76.567 223.797,102.149 226.557,133.068 C226.741,136.197 224.349,138.773 221.22,138.773 L197.847,138.773 C195.638,138.773 193.982,137.301 193.614,135.093 C191.957,122.026 182.019,109.511 167.111,106.934 z" fill="#FF9E1A"/>
  </g>
</svg>
