<svg height="800" viewBox="0 0 800 800" width="800" xmlns="http://www.w3.org/2000/svg"><g fill="none"><path d="m0 0h800v800h-800z"/><g stroke-linecap="round"><path d="m400 700c116.667-120 233.333-227.453 233.333-360 0-132.548-104.466-240-233.333-240-128.866 0-233.333 107.452-233.333 240 0 132.547 116.666 240 233.333 360z" stroke="#000" stroke-linejoin="round" stroke-width="60"/><path d="m400 433.333c55.23 0 100-44.77 100-100 0-55.228-44.77-100-100-100s-100 44.772-100 100c0 55.23 44.77 100 100 100z" stroke="#000" stroke-linejoin="round" stroke-width="60"/><path d="m75 725 650-650" stroke="#f00" stroke-width="50"/></g></g></svg>