<?xml version="1.0" encoding="UTF-8"?>
<!DOCTYPE svg PUBLIC "-//W3C//DTD SVG 1.1//EN" "http://www.w3.org/Graphics/SVG/1.1/DTD/svg11.dtd">
<svg version="1.1" xmlns="http://www.w3.org/2000/svg" xmlns:xlink="http://www.w3.org/1999/xlink" x="0" y="0" width="512" height="512" viewBox="0, 0, 512, 512">
  <g id="Background">
    <rect x="0" y="0" width="512" height="512" fill="#000000" fill-opacity="0"/>
  </g>
  <g id="Layer_1">
    <path d="M216.694,60.087 C206.649,64.766 200.098,75.315 200.098,86.874 L200.098,145.586 L158.171,145.586 C73.269,145.586 4.44,217.875 4.44,307.043 C4.44,410.981 75.628,457.4 91.962,466.757 C94.145,468.041 96.591,468.5 99.037,468.5 C108.558,468.5 116.244,460.335 116.244,450.428 C116.244,443.548 112.488,437.218 107.684,432.539 C99.474,424.375 88.293,408.321 88.293,380.433 C88.293,331.812 125.852,292.365 172.147,292.365 L200.098,292.365 L200.098,351.077 C200.098,362.636 206.561,373.185 216.694,377.864 C226.826,382.542 238.531,380.616 246.741,372.91 L386.497,240.809 C392.349,235.213 395.756,227.324 395.756,218.976 C395.756,210.627 392.437,202.738 386.497,197.142 L246.741,65.041 C238.531,57.243 226.739,55.317 216.694,60.087 z" fill="#000000"/>
    <path d="M328.498,60.087 C318.453,64.766 311.902,75.315 311.902,86.874 L311.902,126.596 L386.497,197.142 C392.349,202.738 395.756,210.627 395.756,218.976 C395.756,227.324 392.437,235.213 386.497,240.809 L311.902,311.355 L311.902,351.077 C311.902,362.636 318.366,373.185 328.498,377.864 C338.631,382.543 350.335,380.616 358.546,372.91 L498.302,240.809 C504.154,235.213 507.56,227.324 507.56,218.976 C507.56,210.627 504.241,202.738 498.302,197.142 L358.546,65.041 C350.335,57.243 338.543,55.317 328.498,60.087 z" fill="#0083FF" opacity="0.7"/>
  </g>
</svg>
