<?xml version="1.0" encoding="UTF-8"?>
<!DOCTYPE svg PUBLIC "-//W3C//DTD SVG 1.1//EN" "http://www.w3.org/Graphics/SVG/1.1/DTD/svg11.dtd">
<svg version="1.1" xmlns="http://www.w3.org/2000/svg" xmlns:xlink="http://www.w3.org/1999/xlink" x="0" y="0" width="300" height="300" viewBox="0, 0, 300, 300">
  <g id="Background">
    <rect x="0" y="0" width="300" height="300" fill="#000000" fill-opacity="0"/>
  </g>
  <defs>
    <clipPath id="Clip_1">
      <path d="M52.134,-0 L247.866,-0 L247.866,300 L52.134,300 z"/>
    </clipPath>
  </defs>
  <g id="Layer_1">
    <g clip-path="url(#Clip_1)">
      <path d="M131.89,162.256 C136.646,162.256 141.403,160.427 146.524,156.585 C152.561,152.378 157.866,148.903 157.866,148.903 L159.695,147.622 L157.866,146.341 C157.134,145.793 77.561,90.549 69.329,85.244 C65.488,82.5 61.097,81.951 57.622,83.597 C54.329,85.244 52.5,88.719 52.5,92.927 L52.5,111.768 L53.231,112.134 C53.781,112.5 108.475,150.549 119.085,157.683 C123.475,160.793 127.683,162.256 131.89,162.256 z" fill="#174CFF"/>
      <path d="M238.537,129.147 C233.781,125.671 63.109,6.585 55.793,1.463 L53.415,-0.183 L53.415,29.085 C53.415,38.415 58.353,41.89 64.39,46.281 C64.39,46.281 195.366,137.561 211.646,148.719 C195.366,160.061 72.073,245.488 64.207,250.427 C54.878,256.647 53.963,260.671 53.963,269.085 L53.963,300.549 C53.963,300.549 234.512,171.403 238.353,168.475 C246.585,162.256 248.415,154.939 248.597,149.634 L248.597,146.341 C248.781,139.756 245.305,133.903 238.537,129.147 z" fill="#174CFF"/>
    </g>
  </g>
</svg>
