<?xml version="1.0" encoding="UTF-8"?>
<!DOCTYPE svg PUBLIC "-//W3C//DTD SVG 1.1//EN" "http://www.w3.org/Graphics/SVG/1.1/DTD/svg11.dtd">
<svg version="1.1" xmlns="http://www.w3.org/2000/svg" xmlns:xlink="http://www.w3.org/1999/xlink" x="0" y="0" width="100" height="100" viewBox="0, 0, 100, 100">
  <g id="Layer_1">
    <g>
      <path d="M34.531,62.497 Q33.717,61.195 32.999,59.813 Q32.281,58.431 31.752,56.899 Q31.223,55.367 30.925,53.66 Q30.627,51.952 30.627,50 Q30.627,46.72 31.644,43.548 Q32.66,40.377 34.531,37.503 L37.052,37.503 Q35.425,40.431 34.571,43.508 Q33.717,46.584 33.717,50 Q33.717,53.416 34.531,56.506 Q35.344,59.596 37.052,62.497 z" fill="#000000"/>
      <path d="M43.223,55.467 L46.991,55.467 L46.991,59.126 L43.223,59.126 z" fill="#000000"/>
      <path d="M46.693,44.562 L47.575,41.955 L51.986,43.68 L51.986,38.868 L54.713,38.868 L54.713,43.68 L59.083,41.955 L60.046,44.562 L55.474,46.086 L58.281,49.855 L56.156,51.419 L53.309,47.489 L50.582,51.419 L48.337,49.855 L51.144,46.086 z" fill="#000000"/>
      <path d="M65.469,37.503 Q66.283,38.805 66.988,40.201 Q67.692,41.597 68.221,43.128 Q68.75,44.66 69.061,46.368 Q69.373,48.075 69.373,50.027 Q69.373,53.307 68.356,56.479 Q67.34,59.65 65.469,62.497 L62.948,62.497 Q64.575,59.596 65.429,56.519 Q66.283,53.443 66.283,50.027 Q66.283,46.612 65.469,43.521 Q64.656,40.431 62.948,37.503 z" fill="#000000"/>
    </g>
    <g id="Regex">
      <path d="M87.921,28 C91.838,28 95,31.179 95,35.085 L95,64.915 C95,68.821 91.838,72 87.921,72 L12.079,72 C8.162,72 5,68.821 5,64.915 L5,35.085 C5,31.179 8.162,28 12.079,28 L87.921,28 z M87.921,32 L12.079,32 C10.411,32 9.045,33.374 9.045,35.085 L9.045,64.915 C9.045,66.626 10.411,68 12.079,68 L87.921,68 C89.589,68 90.955,66.626 90.955,64.915 L90.955,35.085 C90.955,33.374 89.589,32 87.921,32 z" fill="#000000"/>
    </g>
  </g>
</svg>
