<?xml version="1.0" encoding="UTF-8"?>
<!DOCTYPE svg PUBLIC "-//W3C//DTD SVG 1.1//EN" "http://www.w3.org/Graphics/SVG/1.1/DTD/svg11.dtd">
<svg version="1.1" xmlns="http://www.w3.org/2000/svg" xmlns:xlink="http://www.w3.org/1999/xlink" x="0" y="0" width="100" height="100" viewBox="0, 0, 100, 100">
  <g id="Layer_1">
    <g>
      <path d="M30.967,21.108 C30.712,21.189 30.284,21.374 30.006,21.513 C29.22,21.918 26.709,24 24.962,25.69 C22.266,28.316 21.098,29.994 20.994,31.405 C20.878,32.805 21.48,35.825 22.301,38.057 C24.441,43.772 28.583,50.043 34.877,57.042 C36.821,59.205 41.819,64.203 43.982,66.147 C50.819,72.291 56.917,76.374 62.551,78.561 C64.934,79.486 68.416,80.192 69.805,80.03 C70.557,79.938 71.702,79.313 72.917,78.329 C75.046,76.617 78.922,72.221 79.662,70.694 C79.998,70 80.021,69.849 80.021,68.727 C80.021,67.64 79.986,67.455 79.708,66.934 C79.546,66.61 79.257,66.217 79.072,66.043 C78.667,65.662 67.387,58.164 66.6,57.759 C66.114,57.505 65.871,57.459 65.038,57.459 C63.522,57.459 63.002,57.667 58.71,60.12 L56.789,61.207 L55.691,60.385 C53.55,58.778 51.282,56.73 47.788,53.236 C44.295,49.731 42.247,47.474 40.638,45.322 L39.805,44.224 L41.147,41.875 C42.929,38.729 43.253,38.057 43.473,37.028 C43.693,35.998 43.624,35.142 43.276,34.448 C42.778,33.488 35.108,22.035 34.749,21.733 C33.905,21.027 32.147,20.738 30.967,21.108 z M33.096,23.364 C33.292,23.561 37.48,29.843 40.268,34.112 C41.287,35.674 41.344,35.789 41.287,36.24 C41.206,36.854 40.662,37.941 38.776,41.25 C37.943,42.708 37.203,43.992 37.145,44.107 C36.948,44.454 38.903,47.15 41.587,50.215 C42.235,50.944 44.295,53.084 46.18,54.959 C50.287,59.078 53.052,61.507 55.621,63.243 L56.732,63.995 L57.09,63.763 C57.935,63.254 61.718,61.125 62.909,60.489 C63.777,60.038 64.39,59.784 64.761,59.749 L65.327,59.679 L71.459,63.752 C74.837,65.985 77.66,67.905 77.741,68.009 C77.938,68.276 77.914,68.947 77.66,69.479 C76.978,70.971 72.373,76.096 70.707,77.207 C70.105,77.612 70.025,77.635 69.122,77.635 C64.229,77.635 56.709,73.794 48.923,67.304 C44.029,63.22 37.805,56.996 33.721,52.102 C27.218,44.304 23.458,36.947 23.378,31.914 C23.366,31.15 23.4,30.965 23.69,30.479 C24.488,29.103 29.244,24.729 31.221,23.538 C31.996,23.075 32.737,23.006 33.096,23.364 z" fill="#000000"/>
      <path d="M30.967,21.108 C30.712,21.189 30.284,21.374 30.006,21.513 C29.22,21.918 26.709,24 24.962,25.69 C22.266,28.316 21.098,29.994 20.994,31.405 C20.878,32.805 21.48,35.825 22.301,38.057 C24.441,43.772 28.583,50.043 34.877,57.042 C36.821,59.205 41.819,64.203 43.982,66.147 C50.819,72.291 56.917,76.374 62.551,78.561 C64.934,79.486 68.416,80.192 69.805,80.03 C70.557,79.938 71.702,79.313 72.917,78.329 C75.046,76.617 78.922,72.221 79.662,70.694 C79.998,70 80.021,69.849 80.021,68.727 C80.021,67.64 79.986,67.455 79.708,66.934 C79.546,66.61 79.257,66.217 79.072,66.043 C78.667,65.662 67.387,58.164 66.6,57.759 C66.114,57.505 65.871,57.459 65.038,57.459 C63.522,57.459 63.002,57.667 58.71,60.12 L56.789,61.207 L55.691,60.385 C53.55,58.778 51.282,56.73 47.788,53.236 C44.295,49.731 42.247,47.474 40.638,45.322 L39.805,44.224 L41.147,41.875 C42.929,38.729 43.253,38.057 43.473,37.028 C43.693,35.998 43.624,35.142 43.276,34.448 C42.778,33.488 35.108,22.035 34.749,21.733 C33.905,21.027 32.147,20.738 30.967,21.108 z M33.096,23.364 C33.292,23.561 37.48,29.843 40.268,34.112 C41.287,35.674 41.344,35.789 41.287,36.24 C41.206,36.854 40.662,37.941 38.776,41.25 C37.943,42.708 37.203,43.992 37.145,44.107 C36.948,44.454 38.903,47.15 41.587,50.215 C42.235,50.944 44.295,53.084 46.18,54.959 C50.287,59.078 53.052,61.507 55.621,63.243 L56.732,63.995 L57.09,63.763 C57.935,63.254 61.718,61.125 62.909,60.489 C63.777,60.038 64.39,59.784 64.761,59.749 L65.327,59.679 L71.459,63.752 C74.837,65.985 77.66,67.905 77.741,68.009 C77.938,68.276 77.914,68.947 77.66,69.479 C76.978,70.971 72.373,76.096 70.707,77.207 C70.105,77.612 70.025,77.635 69.122,77.635 C64.229,77.635 56.709,73.794 48.923,67.304 C44.029,63.22 37.805,56.996 33.721,52.102 C27.218,44.304 23.458,36.947 23.378,31.914 C23.366,31.15 23.4,30.965 23.69,30.479 C24.488,29.103 29.244,24.729 31.221,23.538 C31.996,23.075 32.737,23.006 33.096,23.364 z" fill-opacity="0" stroke="#000000" stroke-width="0.5"/>
    </g>
  </g>
</svg>
