<?xml version="1.0" encoding="UTF-8"?>
<!DOCTYPE svg PUBLIC "-//W3C//DTD SVG 1.1//EN" "http://www.w3.org/Graphics/SVG/1.1/DTD/svg11.dtd">
<svg version="1.1" xmlns="http://www.w3.org/2000/svg" xmlns:xlink="http://www.w3.org/1999/xlink" x="0" y="0" width="100" height="100" viewBox="0, 0, 100, 100">
  <g id="Layer_1">
    <g id="Confirm">
      <path d="M51.859,16.833 C59.733,16.866 67.069,19.631 73.221,24.502 C74.329,25.379 75.219,26.501 76.219,27.5 L69.514,27.5 C64.407,23.359 58.306,21.738 51.859,21.413 C35.84,21.413 22.855,34.398 22.855,50.417 C22.855,66.435 35.84,79.42 51.859,79.42 C61.294,79.267 70.182,74.875 75.499,67 L81,67 C74.331,77.978 64.583,83.357 51.859,84 C33.311,84 18.275,68.964 18.275,50.417 C18.275,31.869 33.311,16.833 51.859,16.833 z" fill="#000000"/>
      <path d="M78.739,15.114 L78.739,33.587 L60.266,33.587 L78.739,15.114 z" fill="#000000"/>
    </g>
  </g>
</svg>
