<?xml version="1.0" encoding="UTF-8"?>
<!DOCTYPE svg PUBLIC "-//W3C//DTD SVG 1.1//EN" "http://www.w3.org/Graphics/SVG/1.1/DTD/svg11.dtd">
<svg version="1.1" xmlns="http://www.w3.org/2000/svg" xmlns:xlink="http://www.w3.org/1999/xlink" x="0" y="0" width="100" height="100" viewBox="0, 0, 100, 100">
  <g id="Layer_1">
    <g id="Number">
      <path d="M87.921,28 C91.838,28 95,31.179 95,35.085 L95,64.915 C95,68.821 91.838,72 87.921,72 L12.079,72 C8.162,72 5,68.821 5,64.915 L5,35.085 C5,31.179 8.162,28 12.079,28 L87.921,28 z M87.921,32 L12.079,32 C10.411,32 9.045,33.374 9.045,35.085 L9.045,64.915 C9.045,66.626 10.411,68 12.079,68 L87.921,68 C89.589,68 90.955,66.626 90.955,64.915 L90.955,35.085 C90.955,33.374 89.589,32 87.921,32 z" fill="#000000"/>
      <g>
        <path d="M20.576,43.245 Q21.615,43.245 22.596,43.072 Q23.578,42.898 24.372,42.494 Q25.166,42.09 25.728,41.455 Q26.291,40.82 26.465,39.896 L29.149,39.896 L29.149,60.104 L25.541,60.104 L25.541,45.843 L20.576,45.843 z" fill="#000000"/>
        <path d="M55.27,60.104 L41.471,60.104 Q41.5,57.592 42.683,55.716 Q43.867,53.839 45.916,52.454 Q46.898,51.732 47.966,51.054 Q49.034,50.375 49.929,49.596 Q50.824,48.816 51.401,47.907 Q51.979,46.998 52.008,45.814 Q52.008,45.266 51.878,44.645 Q51.748,44.024 51.373,43.49 Q50.997,42.956 50.333,42.595 Q49.669,42.234 48.601,42.234 Q47.62,42.234 46.97,42.624 Q46.321,43.014 45.931,43.692 Q45.541,44.371 45.354,45.294 Q45.166,46.218 45.137,47.286 L41.846,47.286 Q41.846,45.612 42.294,44.183 Q42.741,42.754 43.636,41.715 Q44.531,40.676 45.815,40.084 Q47.1,39.492 48.803,39.492 Q50.651,39.492 51.892,40.098 Q53.134,40.704 53.899,41.628 Q54.664,42.552 54.981,43.635 Q55.299,44.717 55.299,45.699 Q55.299,46.911 54.923,47.893 Q54.548,48.874 53.913,49.697 Q53.278,50.52 52.47,51.212 Q51.661,51.905 50.795,52.512 Q49.929,53.118 49.063,53.666 Q48.197,54.215 47.461,54.763 Q46.725,55.312 46.176,55.904 Q45.628,56.495 45.426,57.159 L55.27,57.159 z" fill="#000000"/>
        <path d="M70.851,48.268 Q71.659,48.297 72.467,48.152 Q73.276,48.008 73.911,47.647 Q74.546,47.286 74.936,46.651 Q75.325,46.016 75.325,45.092 Q75.325,43.793 74.445,43.014 Q73.564,42.234 72.179,42.234 Q71.313,42.234 70.677,42.581 Q70.042,42.927 69.624,43.519 Q69.205,44.111 69.003,44.847 Q68.801,45.583 68.83,46.363 L65.539,46.363 Q65.597,44.89 66.087,43.635 Q66.578,42.379 67.43,41.455 Q68.281,40.531 69.494,40.012 Q70.706,39.492 72.236,39.492 Q73.42,39.492 74.56,39.838 Q75.701,40.185 76.61,40.849 Q77.519,41.513 78.068,42.538 Q78.616,43.562 78.616,44.89 Q78.616,46.42 77.923,47.561 Q77.231,48.701 75.758,49.221 L75.758,49.278 Q77.49,49.625 78.457,50.996 Q79.424,52.367 79.424,54.33 Q79.424,55.774 78.847,56.914 Q78.27,58.054 77.288,58.848 Q76.307,59.642 75.008,60.075 Q73.709,60.508 72.265,60.508 Q70.504,60.508 69.191,60.003 Q67.877,59.498 66.997,58.574 Q66.116,57.65 65.654,56.351 Q65.193,55.052 65.164,53.464 L68.455,53.464 Q68.397,55.312 69.364,56.539 Q70.331,57.766 72.265,57.766 Q73.911,57.766 75.022,56.827 Q76.134,55.889 76.134,54.157 Q76.134,52.973 75.672,52.281 Q75.21,51.588 74.459,51.227 Q73.709,50.866 72.77,50.779 Q71.832,50.693 70.851,50.722 z" fill="#000000"/>
      </g>
    </g>
  </g>
</svg>
