<?xml version="1.0" encoding="UTF-8"?>
<!DOCTYPE svg PUBLIC "-//W3C//DTD SVG 1.1//EN" "http://www.w3.org/Graphics/SVG/1.1/DTD/svg11.dtd">
<svg version="1.1" xmlns="http://www.w3.org/2000/svg" xmlns:xlink="http://www.w3.org/1999/xlink" x="0" y="0" width="100" height="100" viewBox="0, 0, 100, 100">
  <g id="Layer_1">
    <g id="Signature">
      <path d="M34.898,84 L40.126,62.828 L40.126,62.828 L72.408,18.554 C74.602,15.546 78.871,14.966 81.937,17.201 L84.115,18.79 C87.181,21.025 87.934,25.268 85.741,28.276 L56.699,68.105 L53.458,72.549 L34.898,84 z M46.599,60.74 L45.715,61.952 L52.583,66.96 L82.508,25.919 C83.378,24.726 83.068,22.977 81.759,22.022 L79.58,20.433 C78.271,19.479 76.51,19.718 75.64,20.911 L46.599,60.74 z" fill="#000000"/>
      <path d="M23.872,71.254 L24.485,71.29 L25.098,71.541 L25.515,71.866 L25.817,72.2 L26.062,72.54 L26.28,72.892 L26.485,73.262 L26.779,73.846 L27.176,74.704 L27.586,75.635 L28.01,76.61 L28.451,77.604 L28.91,78.591 L29.386,79.541 L29.878,80.424 L30.38,81.207 L30.748,81.695 L30.98,81.962 L31.216,82.199 L31.439,82.388 L31.645,82.528 L31.826,82.62 L31.861,82.627 C32.619,82.962 32.963,83.847 32.629,84.605 C32.294,85.363 31.409,85.707 30.651,85.372 L30.356,85.235 L29.89,84.962 L29.462,84.645 L29.067,84.293 L28.698,83.91 L28.341,83.485 L27.85,82.819 L27.255,81.88 L26.704,80.884 L26.19,79.856 L25.708,78.82 L25.259,77.806 L24.84,76.842 L24.453,75.961 L24.232,75.482 L24.143,75.756 L23.864,76.728 L23.58,77.786 L23.292,78.89 L22.998,80.001 L22.696,81.086 L22.384,82.105 L22.141,82.807 L21.965,83.254 L21.775,83.68 L21.558,84.089 L21.291,84.49 L20.924,84.889 L20.365,85.251 L19.579,85.413 L18.81,85.238 L18.348,84.949 L18.266,84.877 C18.222,84.838 18.179,84.796 18.139,84.751 L17.928,84.497 L17.656,84.085 L17.429,83.649 L17.225,83.181 L17.036,82.68 L16.853,82.14 L16.593,81.292 L16.259,80.108 L15.93,78.907 L15.602,77.75 L15.354,76.951 L15.192,76.479 L15.089,76.205 L15.077,76.231 L14.944,76.549 L14.806,76.907 L14.662,77.307 L14.513,77.749 L14.36,78.234 L14.202,78.761 L14.038,79.336 L13.953,79.647 C13.733,80.446 12.908,80.916 12.109,80.696 C11.31,80.477 10.84,79.652 11.06,78.853 L11.145,78.542 L11.316,77.94 L11.486,77.372 L11.653,76.843 L11.819,76.351 L11.982,75.895 L12.144,75.472 L12.306,75.081 L12.544,74.562 L12.868,73.967 L13.223,73.451 L13.644,73.003 L14.202,72.626 L14.967,72.413 L15.813,72.521 L16.484,72.894 L16.945,73.355 L17.28,73.838 L17.549,74.338 L17.782,74.859 L17.993,75.405 L18.19,75.974 L18.466,76.858 L18.816,78.086 L19.153,79.315 L19.48,80.478 L19.614,80.911 L19.826,80.211 L20.107,79.198 L20.391,78.123 L20.678,77.027 L20.967,75.951 L21.26,74.928 L21.561,73.993 L21.801,73.352 L21.976,72.949 L22.162,72.583 L22.378,72.236 L22.655,71.895 L23.063,71.554 L23.488,71.342 C23.59,71.305 23.695,71.279 23.802,71.264 L23.872,71.254 z M20.321,82.697 L20.398,82.795 L20.373,82.748 L20.321,82.697 z M20.302,82.672 L20.302,82.672 L20.328,82.695 L20.302,82.672 z M15.754,75.135 L15.668,75.189 L15.601,75.276 L15.681,75.237 L15.754,75.135 z M24.899,73.862 L24.825,73.966 L24.815,73.984 L24.915,73.868 L24.899,73.862 z" fill="#000000"/>
    </g>
  </g>
</svg>
