<?xml version="1.0" standalone="no"?>
<!DOCTYPE svg PUBLIC "-//W3C//DTD SVG 20010904//EN"
        "http://www.w3.org/TR/2001/REC-SVG-20010904/DTD/svg10.dtd">
<svg version="1.0" xmlns="http://www.w3.org/2000/svg"
     width="480.000000pt" height="129.000000pt" viewBox="0 0 480.000000 129.000000"
     preserveAspectRatio="xMidYMid meet">
    <metadata>
        Created by potrace 1.10, written by Peter Selinger 2001-2011
    </metadata>
    <g transform="translate(0.000000,129.000000) scale(0.100000,-0.100000)"
       fill="#000000" stroke="none">
        <path d="M1780 1275 c0 -10 -11 -15 -32 -16 -33 -1 -127 -10 -318 -30 -58 -6
-112 -14 -120 -19 -9 -4 -36 -11 -60 -15 -25 -4 -70 -13 -100 -21 -30 -8 -73
-14 -96 -14 -28 0 -44 -5 -48 -15 -3 -10 -19 -15 -43 -15 -21 0 -47 -7 -57
-15 -11 -8 -32 -15 -47 -15 -15 0 -31 -4 -34 -10 -3 -5 -16 -10 -28 -10 -12 0
-39 -9 -60 -20 -20 -11 -47 -20 -59 -20 -13 0 -32 -7 -42 -15 -11 -8 -32 -15
-47 -15 -15 0 -29 -7 -33 -15 -3 -8 -16 -15 -29 -15 -14 0 -30 -7 -37 -15 -7
-8 -20 -15 -30 -15 -10 0 -23 -7 -30 -15 -7 -8 -19 -15 -27 -15 -8 0 -39 -17
-69 -37 -31 -21 -65 -43 -76 -50 -37 -21 -238 -227 -238 -245 0 -9 -4 -20 -10
-23 -13 -8 -13 -272 0 -280 6 -3 10 -17 10 -29 0 -13 7 -29 15 -36 8 -7 15
-18 15 -24 0 -18 103 -116 122 -116 8 0 21 -7 28 -15 7 -8 18 -15 25 -15 7 0
18 -7 25 -15 7 -9 29 -15 51 -15 22 0 39 -5 39 -11 0 -7 72 -9 242 -5 262 6
356 13 374 27 7 5 41 12 78 16 36 3 71 12 77 19 7 8 31 14 59 14 33 0 50 5 54
15 3 10 19 15 43 15 21 0 47 7 57 15 11 8 31 15 45 15 14 0 35 7 45 15 11 8
31 15 45 15 14 0 35 7 45 15 11 8 32 15 47 15 14 0 32 7 39 15 7 8 20 15 30
15 10 0 23 7 30 15 7 8 25 15 40 15 15 0 33 7 40 15 7 8 21 15 31 15 10 0 21
5 24 11 4 5 17 15 28 20 12 5 36 18 52 29 17 11 37 23 45 26 23 11 90 77 90
90 0 6 7 17 15 24 10 8 15 31 15 69 -1 64 -32 121 -85 153 -42 25 -44 26 -97
33 -26 3 -50 10 -53 16 -4 5 -51 9 -105 9 -54 0 -101 4 -104 8 -5 9 46 52 61
52 5 0 39 31 76 68 68 68 68 69 65 118 l-3 49 -80 3 c-68 3 -87 -1 -123 -20
-77 -41 -84 -45 -133 -94 l-49 -48 0 -77 c0 -70 -2 -78 -24 -93 -14 -9 -58
-19 -98 -22 -53 -5 -79 -12 -95 -27 -26 -24 -30 -62 -7 -71 18 -7 10 -26 -11
-26 -8 0 -34 -13 -58 -30 -25 -16 -49 -30 -55 -30 -5 0 -12 -7 -16 -15 -3 -8
-14 -15 -25 -15 -11 0 -23 -5 -26 -11 -4 -5 -17 -14 -28 -20 -33 -14 -61 -33
-70 -46 -4 -7 -16 -13 -26 -13 -24 0 -64 -44 -59 -67 3 -15 13 -18 58 -18 49
0 55 2 58 22 3 24 80 93 102 93 6 0 32 14 57 30 24 17 48 30 53 30 5 0 39 20
75 46 56 38 69 43 82 32 8 -7 61 -17 117 -24 92 -10 103 -10 119 6 17 16 17
20 4 52 -8 20 -20 39 -26 42 -23 15 -9 26 32 26 24 0 48 5 54 11 7 7 56 14
110 17 83 4 101 2 112 -12 7 -9 24 -16 36 -16 12 0 28 -7 35 -15 7 -8 20 -15
29 -15 28 0 61 -54 61 -99 0 -35 -6 -45 -52 -86 -29 -26 -62 -51 -73 -56 -11
-5 -28 -13 -37 -19 -10 -5 -26 -15 -35 -20 -10 -6 -25 -13 -33 -16 -8 -3 -22
-10 -30 -15 -8 -5 -25 -13 -37 -18 -11 -6 -24 -15 -28 -20 -3 -6 -19 -11 -34
-11 -16 0 -34 -7 -41 -15 -7 -8 -25 -15 -40 -15 -15 0 -33 -7 -40 -15 -7 -8
-24 -15 -39 -15 -14 0 -35 -7 -45 -15 -11 -8 -31 -15 -45 -15 -14 0 -35 -7
-45 -15 -11 -8 -36 -15 -57 -15 -20 0 -42 -7 -49 -15 -7 -8 -27 -15 -44 -15
-18 0 -37 -5 -44 -12 -7 -7 -36 -15 -64 -19 -54 -7 -118 -23 -173 -40 -16 -6
-83 -13 -148 -16 -65 -3 -120 -10 -123 -14 -7 -12 -71 -11 -79 1 -3 6 -44 10
-91 10 -66 0 -86 3 -90 15 -4 8 -17 15 -29 15 -59 0 -245 136 -245 178 0 9 -6
23 -14 31 -15 17 -21 63 -18 147 2 42 7 56 32 80 20 19 30 39 30 59 0 37 64
105 98 105 13 0 22 6 22 15 0 8 7 15 15 15 9 0 15 9 15 24 0 17 14 36 44 60
23 20 48 36 53 36 6 0 16 7 23 15 7 8 20 15 30 15 10 0 23 7 30 15 7 8 20 15
30 15 10 0 23 7 30 15 7 8 20 15 30 15 10 0 23 7 30 15 7 8 23 15 35 15 12 0
28 7 35 15 7 8 26 15 42 15 16 0 36 7 44 15 9 8 29 15 45 15 17 0 37 7 45 15
9 8 30 15 48 15 19 0 39 7 46 15 7 8 27 15 44 15 17 0 40 7 50 15 11 8 38 15
60 15 23 0 50 7 60 15 11 8 36 15 57 15 20 0 53 7 72 15 20 8 63 15 95 15 32
0 63 5 69 11 6 6 51 13 100 16 48 2 100 9 115 15 28 10 228 25 463 34 91 4
136 2 152 -7 20 -11 26 -9 48 11 52 49 46 50 -240 50 -229 0 -265 -2 -265 -15z
m-90 -321 c-25 -25 -70 -64 -100 -87 -30 -22 -69 -54 -87 -70 -40 -38 -63 -31
-63 19 0 32 9 45 65 100 36 35 71 64 78 64 7 0 19 6 25 12 7 7 32 18 55 23 33
9 45 8 57 -2 12 -11 8 -19 -30 -59z m-246 -315 c24 -40 9 -60 -28 -35 -14 9
-32 16 -40 16 -27 0 -27 19 1 33 41 22 47 20 67 -14z" />
        <path d="M2317 1263 c-7 -37 5 -43 88 -43 86 -1 153 -9 161 -21 3 -5 24 -9 48
-9 23 0 51 -7 62 -15 10 -8 36 -15 57 -15 24 0 40 -5 43 -15 4 -8 17 -15 30
-15 14 0 27 -7 30 -15 4 -8 11 -15 18 -15 21 0 92 -73 114 -118 14 -27 22 -61
22 -93 0 -45 -8 -70 -41 -129 -5 -8 -15 -30 -24 -48 -8 -19 -44 -64 -80 -101
-36 -37 -65 -72 -65 -78 0 -6 -7 -16 -15 -23 -27 -23 -18 -40 23 -40 31 0 46
9 90 51 28 28 52 55 52 60 0 5 7 9 15 9 8 0 15 -7 15 -15 0 -8 -7 -15 -16 -15
-11 0 -14 -8 -12 -27 4 -39 41 -43 77 -9 21 20 30 23 39 14 15 -15 70 13 122
62 36 35 37 35 116 32 199 -7 340 -19 361 -32 17 -11 24 -11 36 -1 9 6 18 8
21 3 3 -5 67 -12 143 -16 76 -4 179 -9 228 -12 50 -2 221 -6 382 -9 247 -4
293 -2 303 10 7 8 19 15 26 15 9 0 14 11 14 30 0 26 -3 30 -29 30 -16 0 -34
-6 -40 -14 -6 -7 -27 -16 -46 -19 -54 -9 -775 11 -788 21 -7 5 -95 12 -197 16
-101 4 -189 11 -194 16 -6 6 -86 10 -187 10 -113 0 -180 4 -184 10 -4 6 -15 8
-25 5 -10 -3 -21 -1 -25 5 -3 5 -22 10 -41 10 -35 0 -35 1 -29 33 4 17 14 47
21 66 25 60 18 143 -18 217 -32 65 -98 134 -130 134 -7 0 -18 4 -24 9 -11 12
-127 51 -149 51 -9 0 -26 7 -38 15 -15 9 -54 16 -110 17 -79 3 -92 7 -88 31 0
4 -6 7 -14 7 -8 0 -14 -5 -12 -11 1 -6 -4 -14 -10 -16 -7 -3 -13 2 -13 11 0
13 -11 16 -54 16 -51 0 -54 -2 -59 -27z" />
    </g>
</svg>
