<?xml version="1.0" encoding="UTF-8"?>
<!DOCTYPE svg PUBLIC "-//W3C//DTD SVG 1.1//EN" "http://www.w3.org/Graphics/SVG/1.1/DTD/svg11.dtd">
<svg version="1.1" xmlns="http://www.w3.org/2000/svg" xmlns:xlink="http://www.w3.org/1999/xlink" x="0" y="0" width="82" height="82" viewBox="0, 0, 82, 82">
  <g id="Freeform">
    <path d="M0,41 C0,63.644 18.356,82 41,82 C63.644,82 82,63.644 82,41 C82,18.356 63.644,0 41,0 C18.356,0 0,18.356 0,41 z" fill="#0BB1F4" id="Circle"/>
    <g>
      <path d="M33.076,16.537 C41.373,14.32 37.764,15.282 43.902,13.648 C53.1,11.237 55.053,18.43 55.718,20.774 C56.113,22.202 56.494,23.634 56.879,25.064 L55.304,30.942 C54.445,27.781 53.617,24.611 52.702,21.466 C51.316,16.843 49.431,15.506 44.43,16.672 C39.636,17.965 25.491,21.733 23.674,22.241 C20.807,23.06 17.692,24.624 19.156,30.322 C20.611,35.76 24.746,51.192 27.171,60.237 C28.884,66.826 32.555,65.975 35.439,65.363 C37.973,64.706 53.037,60.669 56.249,59.776 C61.175,58.406 61.89,55.808 60.724,51.306 L60.345,49.876 L61.936,43.938 C62.525,46.136 63.112,48.334 63.7,50.532 C66.038,59.277 60.952,61.536 56.943,62.799 C54.771,63.387 44.382,66.169 36.418,68.301 C27.078,70.861 24.939,63.592 24.251,61.069 C23.562,58.545 17.802,37.027 16.239,31.153 C13.756,22.012 20.757,19.9 22.837,19.303 C26.245,18.362 29.662,17.453 33.076,16.537 z" fill="#FFFFFF"/>
      <path d="M64.194,16.907 C65.652,17.262 66.567,18.526 66.209,19.864 C65.852,21.202 58.087,49.866 58.087,49.866 L58.087,49.866 C56.837,51.572 55.587,53.279 54.345,54.992 C54.128,55.291 53.729,55.189 53.704,54.793 L52.835,48.443 C52.835,48.443 60.594,19.787 60.96,18.443 C61.327,17.098 62.736,16.553 64.194,16.907 z" fill="#FFFFFF" id="Pencil"/>
      <g>
        <path d="M31.107,54.298 L40.973,51.654 L42.201,56.237 L32.335,58.88 z" fill="#FFFFFF"/>
        <path d="M38.683,28.224 L48.548,25.58 L49.203,28.023 L39.337,30.666 z" fill="#FFFFFF"/>
        <path d="M40.254,34.086 L50.119,31.443 L50.774,33.886 L40.908,36.529 z" fill="#FFFFFF"/>
        <path d="M36.1,24.107 L31.467,32.204 L29.659,31.118 L28.647,32.817 L32.17,34.851 L33.461,32.612 L34.468,36.371 L28.609,37.941 L26.66,30.666 L30.846,29.492 L32.204,27.14 L24.392,29.234 L27.322,40.17 L36.696,37.658 L34.748,30.386 L37.831,25.046 z" fill="#FFFFFF"/>
        <path d="M29.681,48.973 L52.161,42.939 L51.376,45.808 L30.335,51.415 z" fill="#FFFFFF"/>
        <path d="M28.154,43.439 L51.668,37.138 L52.322,39.58 L28.809,45.881 z" fill="#FFFFFF"/>
      </g>
    </g>
  </g>
</svg>
