<?xml version="1.0" encoding="UTF-8"?>
<!DOCTYPE svg PUBLIC "-//W3C//DTD SVG 1.1//EN" "http://www.w3.org/Graphics/SVG/1.1/DTD/svg11.dtd">
<svg version="1.1" xmlns="http://www.w3.org/2000/svg" xmlns:xlink="http://www.w3.org/1999/xlink" x="0" y="0" width="83" height="82" viewBox="0, 0, 83, 82">
  <g id="Page-1">
    <path d="M0.5,41 C0.5,63.644 18.856,82 41.5,82 C64.144,82 82.5,63.644 82.5,41 C82.5,18.356 64.144,0 41.5,0 C18.856,0 0.5,18.356 0.5,41 z" fill="#0DB1F4" id="Oval-1"/>
    <g>
      <g>
        <path d="M45.154,42.284 L52.461,42.284 L52.461,44.567 L45.154,44.567 z" fill="#FFFFFF"/>
        <path d="M45.154,47.764 L52.461,47.764 L52.461,50.048 L45.154,50.048 z" fill="#FFFFFF"/>
        <path d="M43.156,21.731 C43.156,22.645 42.414,23.386 41.5,23.386 C40.586,23.386 39.844,22.645 39.844,21.731 C39.844,20.816 40.586,20.075 41.5,20.075 C42.414,20.075 43.156,20.816 43.156,21.731 z" fill="#FFFFFF"/>
        <path d="M59.769,27.212 C59.769,25.194 58.133,23.558 56.115,23.558 L51.043,23.558 C50.366,22.806 49.497,22.231 48.498,21.944 C47.657,21.702 47.01,21.054 46.768,20.213 C46.11,17.924 44,16.25 41.5,16.25 C39,16.25 36.89,17.924 36.232,20.213 C35.99,21.055 35.341,21.702 34.499,21.944 C33.501,22.232 32.633,22.806 31.957,23.558 L26.885,23.558 C24.867,23.558 23.231,25.194 23.231,27.212 L23.231,60.096 C23.231,62.114 24.867,63.75 26.885,63.75 C35.273,63.75 45.583,63.75 56.115,63.75 C58.133,63.75 59.769,62.114 59.769,60.096 C59.769,49.719 59.769,39.783 59.769,27.212 z M32.651,27.154 C32.663,25.548 33.622,24.344 35.163,23.9 C36.614,23.482 37.886,22.266 38.303,20.817 C38.75,19.262 39.822,18.419 41.443,18.419 C43.064,18.419 44.193,19.148 44.64,20.703 C45.057,22.153 46.501,23.54 47.951,23.957 C49.506,24.404 50.349,25.591 50.349,27.212 L50.406,28.753 L32.651,28.696 L32.651,27.154 z M55.373,60.838 C45.616,60.838 37.473,60.781 27.741,60.781 C26.733,60.781 26.257,60.304 26.257,59.297 L26.199,28.239 C26.199,27.232 26.391,26.526 27.398,26.526 L30.596,26.469 C30.538,27.154 30.544,26.543 30.539,27.168 L30.539,30.865 L52.461,30.865 L52.461,27.212 C52.461,26.57 52.462,27.34 52.462,26.541 L55.145,26.526 C56.152,26.526 56.972,27.46 56.972,28.468 C56.972,33.691 56.972,55.786 56.972,58.954 C56.972,59.962 56.381,60.838 55.373,60.838 z" fill="#FFFFFF"/>
        <path d="M44.811,35.09 L37.389,42.569 L35.734,40.856 L34.133,42.414 L37.382,45.663 L39.445,43.597 L39.445,47.993 L32.594,47.993 L32.594,39.486 L37.504,39.429 L39.673,37.26 L30.538,37.26 L30.538,50.048 L41.5,50.048 L41.5,41.545 L46.425,36.62 z" fill="#FFFFFF"/>
      </g>
      <path d="M30.481,53.531 L52.462,53.531 L52.462,55.814 L30.481,55.814 z" fill="#FFFFFF"/>
    </g>
  </g>
</svg>
