<?xml version="1.0" encoding="UTF-8"?>
<!DOCTYPE svg PUBLIC "-//W3C//DTD SVG 1.1//EN" "http://www.w3.org/Graphics/SVG/1.1/DTD/svg11.dtd">
<svg version="1.1" xmlns="http://www.w3.org/2000/svg" xmlns:xlink="http://www.w3.org/1999/xlink" x="0" y="0" width="64" height="64" viewBox="0, 0, 64, 64">
  <g id="Freeform">
    <g>
      <path d="M22.988,4.179 C32.424,1.658 28.32,2.752 35.3,0.894 C45.761,-1.848 47.982,6.332 48.738,8.998 C49.187,10.622 49.621,12.25 50.059,13.877 L48.268,20.561 C47.291,16.967 46.349,13.362 45.308,9.785 C43.732,4.527 41.589,3.007 35.901,4.333 C30.449,5.803 14.362,10.088 12.296,10.667 C9.036,11.597 5.493,13.377 7.157,19.856 C8.812,26.041 13.515,43.591 16.273,53.878 C18.221,61.371 22.396,60.403 25.676,59.708 C28.558,58.96 45.689,54.369 49.342,53.353 C54.945,51.795 55.757,48.841 54.431,43.721 L54.001,42.094 L55.81,35.341 C56.479,37.841 57.147,40.341 57.815,42.841 C60.475,52.785 54.69,55.354 50.131,56.791 C47.661,57.46 35.846,60.624 26.789,63.049 C16.167,65.96 13.735,57.694 12.952,54.823 C12.168,51.953 5.618,27.481 3.84,20.802 C1.017,10.405 8.979,8.004 11.344,7.325 C15.22,6.254 19.105,5.221 22.988,4.179 z" fill="#FFFFFF"/>
      <path d="M58.377,4.6 C60.035,5.003 61.076,6.441 60.67,7.963 C60.263,9.485 51.432,42.083 51.432,42.083 L51.432,42.083 C50.011,44.024 48.589,45.965 47.176,47.913 C46.93,48.253 46.477,48.136 46.447,47.687 L45.46,40.465 C45.46,40.465 54.283,7.875 54.7,6.346 C55.118,4.817 56.719,4.197 58.377,4.6 z" fill="#FFFFFF" id="Pencil"/>
      <g>
        <path d="M20.75,47.123 L31.969,44.117 L33.366,49.328 L22.146,52.335 z" fill="#FFFFFF"/>
        <path d="M29.365,17.47 L40.584,14.464 L41.328,17.241 L30.109,20.248 z" fill="#FFFFFF"/>
        <path d="M31.151,24.137 L42.371,21.131 L43.115,23.909 L31.896,26.916 z" fill="#FFFFFF"/>
        <path d="M26.428,12.789 L21.158,21.997 L19.102,20.762 L17.951,22.694 L21.958,25.008 L23.426,22.461 L24.572,26.736 L17.908,28.521 L15.692,20.248 L20.452,18.913 L21.996,16.238 L13.112,18.619 L16.444,31.056 L27.106,28.199 L24.89,19.929 L28.396,13.856 z" fill="#FFFFFF"/>
        <path d="M19.127,41.067 L44.693,34.206 L43.8,37.468 L19.871,43.844 z" fill="#FFFFFF"/>
        <path d="M17.391,34.773 L44.132,27.608 L44.876,30.385 L18.135,37.551 z" fill="#FFFFFF"/>
      </g>
    </g>
  </g>
</svg>
