<?xml version="1.0" encoding="UTF-8"?>
<!DOCTYPE svg PUBLIC "-//W3C//DTD SVG 1.1//EN" "http://www.w3.org/Graphics/SVG/1.1/DTD/svg11.dtd">
<svg version="1.1" xmlns="http://www.w3.org/2000/svg" xmlns:xlink="http://www.w3.org/1999/xlink" x="0" y="0" width="300" height="300" viewBox="0, 0, 300, 300">
  <g id="Background">
    <rect x="0" y="0" width="300" height="300" fill="#000000" fill-opacity="0"/>
  </g>
  <g id="Image">
    <path d="M150,300 C67.157,300 0,232.843 0,150 C0,67.157 67.157,-0 150,-0 C232.843,-0 300,67.157 300,150 C300,232.843 232.843,300 150,300 z" fill="#027737"/>
    <path d="M131.036,128.126 C131.036,146.589 140.402,166.507 161.014,166.507 C176.3,166.507 191.755,154.573 191.755,127.855 C191.755,104.43 179.606,88.704 161.523,88.704 C146.788,88.704 131.036,99.055 131.036,128.126 z M168.784,54.5 C205.741,54.5 230.591,83.771 230.591,127.342 C230.591,170.228 204.413,200.169 166.99,200.169 C149.147,200.169 137.718,192.527 131.742,186.995 C131.785,188.307 131.813,189.775 131.813,191.344 L131.813,249.5 L93.528,249.5 L93.528,94.549 C93.528,92.297 92.807,91.584 90.575,91.584 L77.409,91.584 L77.409,57.651 L109.534,57.651 C124.326,57.651 128.112,65.179 128.832,70.982 C134.836,64.252 147.282,54.5 168.784,54.5 z" fill="#FFFFFF" id="p"/>
  </g>
</svg>
